<?xml version="1.0" standalone="no"?>
<!DOCTYPE svg PUBLIC "-//W3C//DTD SVG 1.1//EN" "http://www.w3.org/Graphics/SVG/1.1/DTD/svg11.dtd" >
<svg xmlns="http://www.w3.org/2000/svg" xmlns:xlink="http://www.w3.org/1999/xlink" version="1.1">
<metadata>
Created by FontForge 20161013 at Mon Feb 21 17:52:03 2005
 By ,,,
Copyright (c) 1990 Neufville SL, Copyright (c) 1990-2000 ParaType, Inc. All Rights Reserved. Futura is a registered trade mark of Neufville SL.
</metadata>
<defs>
<font id="FuturaFuturisCameoExtraBoldC" horiz-adv-x="696" >
  <font-face 
    font-family="FuturaFuturisCameoExtraBoldC"
    font-weight="800"
    font-stretch="normal"
    units-per-em="1000"
    panose-1="0 0 9 0 0 0 0 0 0 0"
    ascent="755"
    descent="-245"
    x-height="909"
    cap-height="909"
    bbox="0 -245 1332 909"
    underline-thickness="50"
    underline-position="-200"
    unicode-range="U+0020-2122"
  />
<missing-glyph horiz-adv-x="233" 
 />
    <glyph glyph-name=".notdef" horiz-adv-x="233" 
 />
    <glyph glyph-name=".null" horiz-adv-x="0" 
 />
    <glyph glyph-name="nonmarkingreturn" horiz-adv-x="333" 
 />
    <glyph glyph-name="space" unicode=" " horiz-adv-x="233" 
 />
    <glyph glyph-name="space" unicode="&#xa0;" horiz-adv-x="233" 
 />
    <glyph glyph-name="exclam" unicode="!" horiz-adv-x="402" 
d="M85 238h232v462h-232v-462zM75 91q0 -52 37.5 -80t88.5 -28t88.5 28t37.5 80t-37.5 80.5t-88.5 28.5t-88.5 -28.5t-37.5 -80.5zM0 -244v1153h402v-1153h-402z" />
    <glyph glyph-name="quotedbl" unicode="&#x22;" horiz-adv-x="432" 
d="M0 -244v1153h432v-1153h-432zM188 700h-126l34 -203h56zM370 700h-126l34 -203h56z" />
    <glyph glyph-name="numbersign" unicode="#" horiz-adv-x="826" 
d="M162 535l-16 -100h123l-29 -170h-124l-16 -100h123l-22 -125h80l22 125h157l-22 -125h80l22 125h123l16 100h-122l29 170h123l17 100h-123l22 125h-80l-22 -125h-157l22 125h-80l-22 -125h-124zM477 265h-157l29 170h157zM0 -244v1153h826v-1153h-826z" />
    <glyph glyph-name="dollar" unicode="$" horiz-adv-x="633" 
d="M125 248l-106 -156q131 -98 241 -109v-98h126v102q38 4 73.5 20.5t66 44.5t49 74.5t18.5 104.5q0 82 -46.5 131.5t-157.5 78.5q-8 2 -25 6t-24 6t-18.5 6.5t-16.5 9t-9 12t-4 17.5q0 44 65 44q54 0 128 -45l81 154q-93 64 -180 66v109h-126v-110q-84 -12 -143.5 -71
t-59.5 -168q0 -40 13 -72.5t32 -53t49.5 -37t54.5 -25t58 -18.5q27 -7 37 -10t27.5 -11t24 -18t6.5 -24q0 -15 -12.5 -28.5t-46.5 -13.5q-44 0 -82.5 19.5t-92.5 62.5zM0 -244v1153h633v-1153h-633z" />
    <glyph glyph-name="percent" unicode="%" horiz-adv-x="904" 
d="M179 -21h91l455 728h-91zM33 515q0 -79 56.5 -135.5t135.5 -56.5t135.5 56.5t56.5 135.5t-56.5 135.5t-135.5 56.5t-135.5 -56.5t-56.5 -135.5zM149 515q0 31 22.5 53.5t53.5 22.5t53.5 -22.5t22.5 -53.5t-22.5 -53.5t-53.5 -22.5t-53.5 22.5t-22.5 53.5zM487 172
q0 -79 56.5 -135.5t135.5 -56.5t135.5 56.5t56.5 135.5t-56.5 135.5t-135.5 56.5t-135.5 -56.5t-56.5 -135.5zM603 172q0 32 22.5 54t53.5 22t53.5 -22t22.5 -54t-22.5 -54t-53.5 -22t-53.5 22t-22.5 54zM0 -244v1153h904v-1153h-904z" />
    <glyph glyph-name="ampersand" unicode="&#x26;" horiz-adv-x="800" 
d="M543 0h245l-143 156l108 96l-120 125l-113 -99l-44 48q61 38 94 82.5t33 108.5q0 33 -11.5 64.5t-35 61t-68 47t-104.5 17.5q-108 0 -168 -56t-60 -135q0 -74 55 -138q-28 -10 -53.5 -25.5t-52 -39.5t-42.5 -59.5t-16 -76.5q0 -34 12 -66t38 -62.5t75.5 -49t117.5 -18.5
q67 0 110 15.5t94 55.5zM311 255l64 -77q-36 -35 -68 -35q-21 0 -35 10.5t-14 29.5q0 14 2.5 23.5t13.5 20t14 12.5t23 16zM382 441q-33 35 -33 66q0 25 13 36t28 11q17 0 31 -10t14 -33q0 -35 -53 -70zM0 -244v1153h800v-1153h-800z" />
    <glyph glyph-name="quotesingle" unicode="'" horiz-adv-x="250" 
d="M0 -244v1153h250v-1153h-250zM188 700h-126l34 -203h56z" />
    <glyph glyph-name="parenleft" unicode="(" horiz-adv-x="340" 
d="M202 -224l112 60q-119 207 -119 430q0 218 119 431l-112 59q-158 -228 -158 -490t158 -490zM0 -244v1153h340v-1153h-340z" />
    <glyph glyph-name="parenright" unicode=")" horiz-adv-x="341" 
d="M138 756l-112 -59q119 -202 119 -431q0 -232 -119 -430l112 -60q159 226 159 490t-159 490zM0 -244v1153h341v-1153h-341z" />
    <glyph glyph-name="asterisk" unicode="*" horiz-adv-x="519" 
d="M210 603l-107 78l-63 -109l121 -54l-121 -54l63 -109l107 78l-14 -132h126l-14 132l108 -78l63 109l-122 54l122 54l-63 109l-108 -78l14 132h-126zM0 -244v1153h519v-1153h-519z" />
    <glyph glyph-name="plus" unicode="+" horiz-adv-x="668" 
d="M281 74h106v220h220v105h-220v221h-106v-221h-220v-105h220v-220zM0 -244v1153h668v-1153h-668z" />
    <glyph glyph-name="comma" unicode="," horiz-adv-x="416" 
d="M40 -140h154l182 315h-238zM0 -244v1153h416v-1153h-416z" />
    <glyph glyph-name="hyphen" unicode="-" horiz-adv-x="409" 
d="M40 364v-154h329v154h-329zM0 -244v1153h409v-1153h-409z" />
    <glyph glyph-name="hyphen" unicode="&#xad;" horiz-adv-x="409" 
d="M40 364v-154h329v154h-329zM0 -244v1153h409v-1153h-409z" />
    <glyph glyph-name="period" unicode="." horiz-adv-x="402" 
d="M75 91q0 -52 37.5 -80t88.5 -28t88.5 28t37.5 80t-37.5 80.5t-88.5 28.5t-88.5 -28.5t-37.5 -80.5zM0 -244v1153h402v-1153h-402z" />
    <glyph glyph-name="slash" unicode="/" horiz-adv-x="557" 
d="M33 -196h126l365 931h-126zM0 -244v1153h557v-1153h-557z" />
    <glyph glyph-name="zero" unicode="0" 
d="M348 -14q21 0 41 1.5t52 9.5t58.5 22t56 41.5t50 64t33.5 94t13 128.5q0 72 -13 130.5t-33 95.5t-49.5 65t-56 42t-59 22t-52 10t-41.5 2t-42 -2t-52 -10t-58.5 -22t-56 -42t-49.5 -65t-33 -95.5t-13 -130.5q0 -71 13 -128.5t33 -94t49.5 -64t56 -41.5t59 -22t52 -9.5
t41.5 -1.5zM348 182q-22 0 -38 11.5t-24 26.5t-12.5 40.5t-5 43t-0.5 43.5q0 23 0.5 37.5t3 37.5t7.5 37.5t13.5 29t22.5 22t33 7.5q81 0 80 -166v-5v-22.5t-1.5 -27t-4 -33t-8.5 -29.5t-14 -28t-21.5 -17.5t-30.5 -7.5zM0 -244v1153h696v-1153h-696z" />
    <glyph glyph-name="one" unicode="1" horiz-adv-x="697" 
d="M268 0h238v700h-343v-193h105v-507zM0 -244v1153h697v-1153h-697z" />
    <glyph glyph-name="two" unicode="2" 
d="M628 0v189h-172q49 45 71 68t52.5 62.5t43 78t12.5 84.5q0 110 -78 171t-212 61q-73 0 -128.5 -20.5t-85.5 -50t-49 -69.5t-24.5 -70.5t-6.5 -62.5h217q1 28 16.5 52.5t51.5 24.5q30 0 47.5 -17t17.5 -46q0 -34 -27 -63l-348 -392h602zM0 -244v1153h696v-1153h-696z" />
    <glyph glyph-name="three" unicode="3" 
d="M284 291h39q80 0 80 -58q0 -63 -60 -63q-43 0 -58 23.5t-15 51.5h-229q3 -34 11 -65.5t28.5 -68t50.5 -63t81.5 -44.5t117.5 -18q161 0 236 60t75 150q0 46 -16.5 81t-42.5 53.5t-45 26.5t-37 12v3q51 10 84 49t33 100q0 96 -82 144.5t-197 48.5q-15 0 -30.5 -1t-43 -6.5
t-51 -14.5t-51 -27t-48 -42.5t-36.5 -62t-21 -84.5h221q0 21 13 37.5t44 16.5q23 0 37.5 -13.5t14.5 -33.5q0 -26 -14 -39.5t-25.5 -15t-29.5 -1.5h-34v-136zM0 -244v1153h696v-1153h-696z" />
    <glyph glyph-name="four" unicode="4" 
d="M354 0h224v133h85v182h-85v385h-264l-288 -388v-179h328v-133zM368 315h-138l138 193v-193zM0 -244v1153h696v-1153h-696z" />
    <glyph glyph-name="five" unicode="5" 
d="M609 518v182h-443l-82 -392h12q82 21 150 21q44 0 75 -8.5t44.5 -23t18.5 -26t5 -23.5q0 -87 -132 -87q-88 0 -178 63h-6l-25 -182q108 -56 265 -56q83 0 148 22.5t103 60t57.5 82t19.5 93.5q0 38 -12.5 74t-41 70.5t-85 55.5t-134.5 21q-32 0 -72 -5l11 58h302zM0 -244
v1153h696v-1153h-696z" />
    <glyph glyph-name="six" unicode="6" 
d="M293 700l-186 -261q-66 -91 -66 -184q0 -129 86 -199t218 -70q143 0 226.5 67.5t83.5 180.5q0 102 -64 167.5t-171 65.5q-10 0 -30 -2l174 235h-271zM347 161q-32 0 -51 21t-19 53q0 31 19 52t51 21q36 0 53 -23t17 -50q0 -28 -17 -51t-53 -23zM0 -244v1153h696v-1153
h-696z" />
    <glyph glyph-name="seven" unicode="7" horiz-adv-x="716" 
d="M78 0h273l333 700h-630v-189h287zM0 -244v1153h716v-1153h-716z" />
    <glyph glyph-name="eight" unicode="8" 
d="M504 370v2q45 14 80.5 52t35.5 103q0 88 -77 137.5t-195 49.5t-195 -49.5t-77 -137.5q0 -65 35.5 -103t80.5 -52v-2q-19 -5 -36.5 -11.5t-39.5 -21t-38 -33t-27 -48t-11 -64.5q0 -24 5.5 -47.5t25 -53.5t51 -52t90.5 -37.5t136 -15.5t136 15.5t90.5 37.5t51 52t25 53.5
t5.5 47.5q0 35 -11 64.5t-27 48t-38 33t-39.5 21t-36.5 11.5zM348 439q-24 0 -39.5 15.5t-15.5 38.5q0 30 18 42.5t37 12.5q8 0 18.5 -2.5t23.5 -16t13 -36.5t-15.5 -38.5t-39.5 -15.5zM348 152q-29 0 -49.5 17.5t-20.5 49.5t20.5 49t49.5 17t49.5 -17t20.5 -49t-20.5 -49.5
t-49.5 -17.5zM0 -244v1153h696v-1153h-696z" />
    <glyph glyph-name="nine" unicode="9" 
d="M410 0l174 245q71 98 71 206q0 113 -79 188t-225 75q-143 0 -226.5 -67.5t-83.5 -180.5q0 -115 76.5 -180t188.5 -51l-188 -235h292zM349 539q32 0 51 -21t19 -52q0 -32 -19 -53t-51 -21q-36 0 -53 23t-17 51q0 27 17 50t53 23zM0 -244v1153h696v-1153h-696z" />
    <glyph glyph-name="colon" unicode=":" horiz-adv-x="402" 
d="M75 392q0 -52 37.5 -80t88.5 -28t88.5 28t37.5 80t-37.5 80.5t-88.5 28.5t-88.5 -28.5t-37.5 -80.5zM75 91q0 -52 37.5 -80t88.5 -28t88.5 28t37.5 80t-37.5 80.5t-88.5 28.5t-88.5 -28.5t-37.5 -80.5zM0 -244v1153h402v-1153h-402z" />
    <glyph glyph-name="semicolon" unicode=";" horiz-adv-x="423" 
d="M131 392q0 -52 37.5 -80t88.5 -28t88.5 28t37.5 80t-37.5 80.5t-88.5 28.5t-88.5 -28.5t-37.5 -80.5zM40 -140h154l182 315h-238zM0 -244v1153h423v-1153h-423z" />
    <glyph glyph-name="less" unicode="&#x3c;" horiz-adv-x="524" 
d="M0 -244v1153h524v-1153h-524zM170 350l292 140v100l-400 -200v-80l400 -200v100z" />
    <glyph glyph-name="equal" unicode="=" horiz-adv-x="668" 
d="M61 210h546v105h-546v-105zM61 378h546v105h-546v-105zM0 -244v1153h668v-1153h-668z" />
    <glyph glyph-name="greater" unicode="&#x3e;" horiz-adv-x="524" 
d="M0 -244v1153h524v-1153h-524zM354 350l-292 -140v-100l400 200v80l-400 200v-100z" />
    <glyph glyph-name="question" unicode="?" horiz-adv-x="605" 
d="M201 238h196v55q77 1 122.5 59t45.5 146q0 102 -72.5 161t-196.5 59q-67 0 -117.5 -21t-76 -48t-40.5 -64.5t-18.5 -59t-3.5 -42.5h218v8q0 16 10.5 33.5t35.5 17.5q27 0 39 -17.5t12 -40.5q0 -67 -81 -67h-73v-179zM173 91q0 -52 37.5 -80t88.5 -28t88.5 28t37.5 80
t-37.5 80.5t-88.5 28.5t-88.5 -28.5t-37.5 -80.5zM0 -244v1153h605v-1153h-605z" />
    <glyph glyph-name="at" unicode="@" horiz-adv-x="941" 
d="M0 -244v1153h941v-1153h-941zM674 530h-105l-9 -42q-24 51 -83 51q-89 0 -156.5 -70.5t-67.5 -162.5q0 -78 48.5 -116t110.5 -38q64 0 118 62q38 -62 101 -62q58 0 109.5 22.5t88 74t36.5 121.5q0 44 -11 91t-40 98t-72.5 90.5t-115 65t-161.5 25.5q-165 0 -277 -109.5
t-112 -280.5q0 -78 25 -147t73 -124t125.5 -87t175.5 -32q104 0 189 54l-33 70q-71 -46 -156 -46q-58 0 -113 19.5t-102 57.5t-75.5 101.5t-28.5 143.5q0 127 84.5 215.5t224.5 88.5q136 0 228 -78.5t92 -215.5q0 -61 -35 -102.5t-94 -41.5q-48 0 -38 48zM433 250
q-53 0 -53 68q0 47 24.5 87t70.5 40q61 0 61 -74q0 -36 -26.5 -78.5t-76.5 -42.5z" />
    <glyph glyph-name="A" unicode="A" horiz-adv-x="855" 
d="M0 -244v1153h855v-1153h-855zM25 0h287l28 102h175l28 -102h287l-248 700h-308zM379 277l49 178l48 -178h-97z" />
    <glyph glyph-name="B" unicode="B" horiz-adv-x="765" 
d="M0 -244v1153h765v-1153h-765zM75 0h414q69 0 118.5 20t73 51.5t34 62t10.5 61.5q0 70 -43 119t-112 60v2q49 14 85.5 52.5t36.5 93.5q0 20 -3.5 39.5t-17 46t-36 46t-65.5 33t-100 13.5h-395v-700zM355 434v98h26q62 0 62 -49t-62 -49h-26zM355 168v105h34q70 0 70 -52
q0 -53 -70 -53h-34z" />
    <glyph glyph-name="C" unicode="C" horiz-adv-x="669" 
d="M0 -244v1153h669v-1153h-669zM622 22v245q-71 -64 -156 -64q-68 0 -110.5 37.5t-42.5 102.5q0 67 39.5 110.5t114.5 43.5q40 0 82.5 -18.5t72.5 -55.5v245q-76 53 -192 53q-69 0 -136 -23t-123.5 -66.5t-91.5 -117t-35 -164.5q0 -167 109 -269t281 -102q106 0 188 43z
" />
    <glyph glyph-name="D" unicode="D" horiz-adv-x="819" 
d="M0 -244v1153h819v-1153h-819zM75 0h326q185 0 279.5 99t94.5 251q0 51 -10 97t-36 93.5t-67 82t-108 56t-153 21.5h-326v-700zM355 203v294h22q61 0 96.5 -37t35.5 -110q0 -39 -11 -68t-25.5 -44t-35 -23.5t-33.5 -10t-27 -1.5h-22z" />
    <glyph glyph-name="E" unicode="E" horiz-adv-x="619" 
d="M0 -244v1153h619v-1153h-619zM75 0h490v203h-210v67h189v168h-189v59h210v203h-490v-700z" />
    <glyph glyph-name="F" unicode="F" horiz-adv-x="605" 
d="M0 -244v1153h605v-1153h-605zM75 0h280v224h189v189h-189v84h210v203h-490v-700z" />
    <glyph glyph-name="G" unicode="G" horiz-adv-x="886" 
d="M0 -244v1153h886v-1153h-886zM429 420v-161h147q-2 -37 -33 -60.5t-80 -23.5q-73 0 -113 50t-40 121q0 79 42 125.5t112 46.5q87 0 125 -70l204 102q-102 171 -339 171q-106 0 -187.5 -32t-128.5 -86.5t-70.5 -119.5t-23.5 -138q0 -163 111 -264.5t302 -101.5
q183 0 284 98t101 259v84h-413z" />
    <glyph glyph-name="H" unicode="H" horiz-adv-x="850" 
d="M0 -244v1153h850v-1153h-850zM75 0h280v256h140v-256h280v700h-280v-241h-140v241h-280v-700z" />
    <glyph glyph-name="I" unicode="I" horiz-adv-x="430" 
d="M0 -244v1153h430v-1153h-430zM75 0h280v700h-280v-700z" />
    <glyph glyph-name="J" unicode="J" horiz-adv-x="705" 
d="M0 -244v1153h705v-1153h-705zM282 700v-461q0 -27 -13 -42t-35 -15q-46 0 -64 56l-119 -136q84 -123 241 -123q56 0 100.5 12.5t72 31t47.5 46.5t29.5 50t14.5 51.5t5.5 42t0.5 29.5v458h-280z" />
    <glyph glyph-name="K" unicode="K" horiz-adv-x="859" 
d="M0 -244v1153h859v-1153h-859zM75 0h280v266l147 -266h322l-245 368l238 332h-307l-155 -252v252h-280v-700z" />
    <glyph glyph-name="L" unicode="L" horiz-adv-x="577" 
d="M0 -244v1153h577v-1153h-577zM75 0h476v203h-196v497h-280v-700z" />
    <glyph glyph-name="M" unicode="M" horiz-adv-x="1082" 
d="M541 301l-109 399h-308l-98 -700h272l32 364l106 -364h210l106 364l32 -364h272l-98 700h-308zM0 -244v1153h1082v-1153h-1082z" />
    <glyph glyph-name="N" unicode="N" horiz-adv-x="864" 
d="M0 -244v1153h864v-1153h-864zM75 0h266v336l189 -336h259v700h-266v-329l-185 329h-263v-700z" />
    <glyph glyph-name="O" unicode="O" horiz-adv-x="899" 
d="M0 -244v1153h899v-1153h-899zM450 -21q99 0 178 31t127.5 84t74 118.5t25.5 137.5t-25.5 137.5t-74 118.5t-127.5 84t-178 31q-100 0 -179 -31t-127.5 -84t-74 -118t-25.5 -138t25.5 -138t74 -118t127.5 -84t179 -31zM450 203q-57 0 -97.5 38.5t-40.5 108.5t40.5 108.5
t97.5 38.5t97 -38.5t40 -108.5t-40 -108.5t-97 -38.5z" />
    <glyph glyph-name="P" unicode="P" horiz-adv-x="759" 
d="M0 -244v1153h759v-1153h-759zM75 0h280v217h85q79 0 136.5 23t87 61t42.5 77t13 81t-13 80.5t-42 76.5t-87 61t-137 23h-365v-700zM355 518h31q67 0 67 -59q0 -60 -67 -60h-31v119z" />
    <glyph glyph-name="Q" unicode="Q" horiz-adv-x="899" 
d="M0 -244v1153h899v-1153h-899zM866 0l-95 110q84 99 84 240q0 171 -114 271t-292 100q-99 0 -178 -31t-127.5 -84t-74 -118.5t-25.5 -137.5q0 -73 25.5 -138.5t74 -118t127.5 -83.5t178 -31q101 0 178 31l73 -89zM433 254l43 -49q-18 -2 -27 -2q-63 0 -100 41.5t-37 105.5
q0 70 40 108.5t97 38.5t97.5 -38.5t40.5 -108.5q0 -18 -5 -41z" />
    <glyph glyph-name="R" unicode="R" horiz-adv-x="780" 
d="M0 -244v1153h780v-1153h-780zM75 0h280v217l92 -217h321l-177 273q66 30 99 77t33 121q0 54 -18 96t-45 66.5t-63 40t-68.5 21t-65.5 5.5h-388v-700zM355 518h28q74 0 74 -66q0 -67 -74 -67h-28v133z" />
    <glyph glyph-name="S" unicode="S" horiz-adv-x="665" 
d="M0 -244v1153h665v-1153h-665zM517 497l81 154q-105 70 -254 70q-140 0 -213.5 -71t-73.5 -173q0 -32 9 -59.5t20.5 -46t34 -35.5t36.5 -25.5t41 -18.5t35 -12.5t31 -8.5q27 -7 37 -10t27.5 -11t24 -18t6.5 -24q0 -40 -59 -40q-75 0 -175 80l-106 -156q147 -113 293 -113
q141 0 227 67.5t86 184.5q0 83 -45 129t-124 71q-16 5 -39.5 11t-37.5 9.5t-28.5 9.5t-21 15t-6.5 22q0 41 65 41q50 0 129 -42z" />
    <glyph glyph-name="T" unicode="T" horiz-adv-x="612" 
d="M166 0h280v497h147v203h-574v-203h147v-497zM0 -244v1153h612v-1153h-612z" />
    <glyph glyph-name="U" unicode="U" horiz-adv-x="850" 
d="M0 -244v1153h850v-1153h-850zM68 700v-404q0 -33 4 -64.5t25 -80.5t56 -84t105.5 -61.5t166.5 -26.5t166.5 26.5t105.5 61.5t56 84t25 80.5t4 64.5v404h-280v-413q0 -105 -77 -105t-77 105v413h-280z" />
    <glyph glyph-name="V" unicode="V" horiz-adv-x="866" 
d="M433 308l-115 392h-283l252 -700h292l252 700h-283zM0 -244v1153h866v-1153h-866z" />
    <glyph glyph-name="W" unicode="W" horiz-adv-x="1252" 
d="M626 392l111 -392h263l207 700h-301l-75 -343l-90 343h-230l-90 -343l-75 343h-301l207 -700h263zM0 -244v1153h1252v-1153h-1252z" />
    <glyph glyph-name="X" unicode="X" horiz-adv-x="901" 
d="M0 -244v1153h901v-1153h-901zM451 175l90 -175h315l-250 378l213 322h-306l-62 -133l-62 133h-319l224 -332l-249 -368h308z" />
    <glyph glyph-name="Y" unicode="Y" horiz-adv-x="804" 
d="M0 -244v1153h804v-1153h-804zM262 0h280v291l217 409h-266l-81 -206l-87 206h-280l217 -409v-291z" />
    <glyph glyph-name="Z" unicode="Z" horiz-adv-x="784" 
d="M0 -244v1153h784v-1153h-784zM35 0h686v203h-273l301 497h-665v-203h259z" />
    <glyph glyph-name="bracketleft" unicode="[" horiz-adv-x="367" 
d="M341 -196v105h-105v721h105v105h-273v-931h273zM0 -244v1153h367v-1153h-367z" />
    <glyph glyph-name="backslash" unicode="\" horiz-adv-x="536" 
d="M0 -244v1153h536v-1153h-536zM503 -210l-365 945h-105l365 -945h105z" />
    <glyph glyph-name="bracketright" unicode="]" horiz-adv-x="367" 
d="M26 735v-105h105v-721h-105v-105h273v931h-273zM0 -244v1153h367v-1153h-367z" />
    <glyph glyph-name="asciicircum" unicode="^" horiz-adv-x="604" 
d="M0 -244v1153h604v-1153h-604zM302 646l120 -146h130l-156 200h-188l-156 -200h130z" />
    <glyph glyph-name="underscore" unicode="_" horiz-adv-x="564" 
d="M0 -244v1153h564v-1153h-564zM32 -110v-100h500v100h-500z" />
    <glyph glyph-name="grave" unicode="`" horiz-adv-x="407" 
d="M0 -244v1153h407v-1153h-407zM34 700l213 -161h120l-123 161h-210z" />
    <glyph glyph-name="a" unicode="a" horiz-adv-x="705" 
d="M0 -244v1153h705v-1153h-705zM637 483h-217v-52q-58 73 -157 73q-98 0 -159.5 -74.5t-61.5 -187.5q0 -122 66 -192.5t155 -70.5q97 0 157 71v-50h217v483zM343 147q-37 0 -60.5 26t-23.5 69q0 42 23.5 68t60.5 26t60.5 -26t23.5 -68q0 -43 -23.5 -69t-60.5 -26z" />
    <glyph glyph-name="b" unicode="b" horiz-adv-x="705" 
d="M0 -244v1153h705v-1153h-705zM292 735h-224v-735h217v50q60 -71 157 -71q89 0 155 71.5t66 191.5q0 125 -67 193.5t-154 68.5q-92 0 -150 -64v295zM362 147q-37 0 -60.5 26t-23.5 69q0 42 23.5 68t60.5 26t60.5 -26t23.5 -68q0 -43 -23.5 -69t-60.5 -26z" />
    <glyph glyph-name="c" unicode="c" horiz-adv-x="496" 
d="M0 -244v1153h496v-1153h-496zM456 14v185q-51 -38 -97 -38q-41 0 -70.5 19.5t-29.5 56.5q0 41 27 63t65 22q53 0 105 -43v190q-80 35 -151 35q-119 0 -191 -75.5t-72 -186.5q0 -118 75 -190.5t188 -72.5q81 0 151 35z" />
    <glyph glyph-name="d" unicode="d" horiz-adv-x="705" 
d="M0 -244v1153h705v-1153h-705zM637 735h-224v-295q-58 64 -150 64q-87 0 -154 -68t-67 -194q0 -118 63 -190.5t158 -72.5t157 71v-50h217v735zM344 147q-38 0 -61.5 26t-23.5 69q0 42 23.5 68t61.5 26t60.5 -26t22.5 -68q0 -43 -22.5 -69t-60.5 -26z" />
    <glyph glyph-name="e" unicode="e" horiz-adv-x="644" 
d="M0 -244v1153h644v-1153h-644zM249 196h353q1 36 -3.5 72t-22 80.5t-46.5 77.5t-83 55.5t-125 22.5q-128 0 -204 -72.5t-76 -189.5q0 -112 68.5 -187.5t204.5 -75.5q110 0 180.5 46t96.5 122h-200q-12 -42 -66 -42q-38 0 -58 27.5t-19 63.5zM399 294h-147q2 33 21.5 58.5
t52.5 25.5q35 0 54 -25t19 -59z" />
    <glyph glyph-name="f" unicode="f" horiz-adv-x="456" 
d="M0 -244v1153h456v-1153h-456zM102 0h224v315h91v168h-91v30q0 64 45 64q21 0 46 -10v168q-60 10 -109 10q-206 0 -206 -167v-95h-63v-168h63v-315z" />
    <glyph glyph-name="g" unicode="g" horiz-adv-x="698" 
d="M0 -244v1153h698v-1153h-698zM630 483h-217v-49q-52 70 -147 70q-87 0 -155.5 -62.5t-68.5 -180.5q0 -111 63.5 -186t171.5 -75q81 0 136 52v-17q0 -53 -32.5 -82.5t-95.5 -29.5q-70 0 -130 42l-71 -134q97 -48 240 -48q82 0 143 19.5t91 45t47.5 61.5t21 58.5t3.5 46.5
v469zM340 154q-33 0 -57 23t-24 68t24 68t57 23q30 0 55 -20.5t25 -70.5t-25 -70.5t-55 -20.5z" />
    <glyph glyph-name="h" unicode="h" horiz-adv-x="675" 
d="M0 -244v1153h675v-1153h-675zM68 0h224v245q0 43 16 67t41 24q41 0 41 -63v-273h224v282q0 222 -173 222q-95 0 -149 -77v308h-224v-735z" />
    <glyph glyph-name="i" unicode="i" horiz-adv-x="360" 
d="M0 -244v1153h360v-1153h-360zM68 483v-483h224v483h-224zM54 637q0 -47 37 -79.5t89 -32.5t89 32.5t37 79.5t-37 79.5t-89 32.5t-89 -32.5t-37 -79.5z" />
    <glyph glyph-name="j" unicode="j" horiz-adv-x="360" 
d="M0 -244v1153h360v-1153h-360zM68 483v-679h224v679h-224zM54 637q0 -47 37 -79.5t89 -32.5t89 32.5t37 79.5t-37 79.5t-89 32.5t-89 -32.5t-37 -79.5z" />
    <glyph glyph-name="k" unicode="k" horiz-adv-x="686" 
d="M0 -244v1153h686v-1153h-686zM68 0h224v200l129 -200h263l-203 256l178 227h-252l-115 -185v437h-224v-735z" />
    <glyph glyph-name="l" unicode="l" horiz-adv-x="360" 
d="M0 -244v1153h360v-1153h-360zM68 0h224v735h-224v-735z" />
    <glyph glyph-name="m" unicode="m" horiz-adv-x="955" 
d="M0 -244v1153h955v-1153h-955zM68 0h210v245q0 43 16 67t41 24q41 0 41 -63v-273h210v245q0 43 16 67t41 24q41 0 41 -63v-273h210v282q0 222 -172 222q-98 0 -157 -77q-44 77 -131 77q-100 0 -156 -77v56h-210v-483z" />
    <glyph glyph-name="n" unicode="n" horiz-adv-x="675" 
d="M0 -244v1153h675v-1153h-675zM68 0h224v245q0 43 16 67t41 24q41 0 41 -63v-273h224v282q0 222 -173 222q-95 0 -149 -77v56h-224v-483z" />
    <glyph glyph-name="o" unicode="o" horiz-adv-x="668" 
d="M0 -244v1153h668v-1153h-668zM334 504q-145 0 -218.5 -75t-73.5 -187t74 -187.5t218 -75.5t218 75.5t74 187.5t-73.5 187t-218.5 75zM334 161q-39 0 -57 25.5t-18 55.5q0 29 18 54.5t57 25.5t57 -25.5t18 -54.5q0 -30 -18 -55.5t-57 -25.5z" />
    <glyph glyph-name="p" unicode="p" horiz-adv-x="705" 
d="M0 -244v1153h705v-1153h-705zM68 -196h224v238q58 -63 150 -63q89 0 155 71.5t66 191.5q0 126 -67 194t-154 68q-101 0 -157 -73v52h-217v-679zM362 147q-37 0 -60.5 26t-23.5 69q0 42 23.5 68t60.5 26t60.5 -26t23.5 -68q0 -43 -23.5 -69t-60.5 -26z" />
    <glyph glyph-name="q" unicode="q" horiz-adv-x="705" 
d="M0 -244v1153h705v-1153h-705zM413 -196h224v679h-217v-52q-57 73 -157 73q-87 0 -154 -68.5t-67 -193.5q0 -120 66 -191.5t155 -71.5q92 0 150 63v-238zM343 147q-37 0 -60.5 26t-23.5 69q0 42 23.5 68t60.5 26t60.5 -26t23.5 -68q0 -43 -23.5 -69t-60.5 -26z" />
    <glyph glyph-name="r" unicode="r" horiz-adv-x="458" 
d="M0 -244v1153h458v-1153h-458zM68 0h224v192q0 51 25.5 87t71.5 36q28 0 50 -14v196q-98 7 -154 -77v63h-217v-483z" />
    <glyph glyph-name="s" unicode="s" horiz-adv-x="510" 
d="M0 -244v1153h510v-1153h-510zM89 158l-56 -128q81 -51 196 -51q64 0 111 15.5t70 35.5t36 48t15 43.5t2 32.5q0 126 -132 147q-5 1 -16 2.5t-16.5 2.5t-14.5 3t-13.5 4.5t-10 6.5t-7.5 9.5t-2 12.5t2.5 13.5t15.5 14.5t36 8q45 0 97 -31l54 112q-81 45 -188 45
q-109 0 -164.5 -49.5t-55.5 -123.5q0 -32 9 -57t25.5 -39.5t30 -22t31.5 -13.5q22 -7 55.5 -13.5t43.5 -13t10 -25.5q0 -2 -0.5 -4t-3 -7t-7.5 -8.5t-15.5 -6t-24.5 -2.5q-43 0 -113 39z" />
    <glyph glyph-name="t" unicode="t" horiz-adv-x="409" 
d="M0 -244v1153h409v-1153h-409zM82 0h224v315h84v168h-84v147h-224v-147h-63v-168h63v-315z" />
    <glyph glyph-name="u" unicode="u" horiz-adv-x="668" 
d="M0 -244v1153h668v-1153h-668zM61 483v-260q0 -27 2 -49t17 -61t41.5 -65.5t81.5 -47.5t131 -21t131 21t81.5 47.5t41.5 65.5t17 61t2 49v260h-224v-253q0 -69 -49 -69t-49 69v253h-224z" />
    <glyph glyph-name="v" unicode="v" horiz-adv-x="610" 
d="M0 -244v1153h610v-1153h-610zM305 252l-63 231h-210l182 -483h182l182 483h-210z" />
    <glyph glyph-name="w" unicode="w" horiz-adv-x="924" 
d="M0 -244v1153h924v-1153h-924zM462 217l60 -217h166l194 483h-217l-67 -217l-64 217h-144l-64 -217l-67 217h-217l194 -483h166z" />
    <glyph glyph-name="x" unicode="x" horiz-adv-x="680" 
d="M0 -244v1153h680v-1153h-680zM340 137l84 -137h231l-196 256l175 227h-238l-56 -115l-56 115h-238l175 -227l-196 -256h231z" />
    <glyph glyph-name="y" unicode="y" horiz-adv-x="728" 
d="M0 -244v1153h728v-1153h-728zM33 483l251 -427l-125 -252h224l294 679h-216l-73 -210l-103 210h-252z" />
    <glyph glyph-name="z" unicode="z" horiz-adv-x="616" 
d="M0 -244v1153h616v-1153h-616zM70 483v-168h173l-201 -315h504v168h-183l204 315h-497z" />
    <glyph glyph-name="braceleft" unicode="{" horiz-adv-x="507" 
d="M0 -244v1153h507v-1153h-507zM112 296v-100q94 -8 94 -135q0 -19 -2 -59q-2 -38 -2 -57q0 -53 18 -89.5t48.5 -53t61.5 -22.5t65 -4v80q-86 13 -86 93q0 59 3.5 96t3.5 73q0 21 -3 35t-13 31t-34 31.5t-61 26.5v8q111 29 111 126q0 34 -3.5 77.5t-3.5 87.5q0 46 26.5 68
t59.5 27v80q-20 1 -39.5 0t-49 -10t-51 -26t-37.5 -51.5t-16 -81.5q0 -19 2 -47.5t2 -68.5q0 -70 -27 -101t-67 -34z" />
    <glyph glyph-name="bar" unicode="|" horiz-adv-x="224" 
d="M0 -244v1153h224v-1153h-224zM62 -224h100v1053h-100v-1053z" />
    <glyph glyph-name="braceright" unicode="}" horiz-adv-x="507" 
d="M0 -244v1153h507v-1153h-507zM395 196v100q-94 8 -94 135q0 19 2 59q2 38 2 57q0 53 -18 89.5t-48.5 53t-61.5 22.5t-65 4v-80q86 -13 86 -93q0 -59 -3.5 -96t-3.5 -73q0 -21 3 -35t13 -31t34 -31.5t61 -26.5v-8q-111 -29 -111 -126q0 -34 3.5 -77.5t3.5 -87.5
q0 -46 -26.5 -68t-59.5 -27v-80q20 -1 39.5 0t49 10t51 26t37.5 51.5t16 81.5q0 19 -2 48t-2 68q0 70 27 101t67 34z" />
    <glyph glyph-name="asciitilde" unicode="~" horiz-adv-x="624" 
d="M0 -244v1153h624v-1153h-624zM62 390v-100q52 50 110 50q29 0 135 -40q105 -40 145 -40q62 0 110 50v100q-52 -50 -110 -50q-29 0 -135 40q-105 40 -145 40q-62 0 -110 -50z" />
    <glyph glyph-name="currency" unicode="&#xa4;" horiz-adv-x="716" 
d="M0 -244v1153h716v-1153h-716zM62 124l70 -70l74 73q68 -47 152 -47t152 47l74 -73l70 70l-73 74q47 68 47 152t-47 152l73 74l-70 70l-74 -73q-68 47 -152 47t-152 -47l-74 73l-70 -70l73 -74q-47 -68 -47 -152t47 -152zM178 350q0 75 52.5 127.5t127.5 52.5t127.5 -52.5
t52.5 -127.5t-52.5 -127.5t-127.5 -52.5t-127.5 52.5t-52.5 127.5z" />
    <glyph glyph-name="section" unicode="&#xa7;" horiz-adv-x="669" 
d="M281 21h-221q3 -38 16.5 -71t41.5 -64t81 -49.5t125 -18.5q130 0 201.5 53.5t71.5 124.5q0 92 -69 123q38 16 66 53t28 96q0 134 -159 185q-15 5 -41.5 11t-43.5 11t-35.5 12t-27.5 18t-9 26q0 20 13 32t34 12q20 0 31.5 -10.5t11.5 -27.5v-9h214q0 37 -13.5 70t-43 63.5
t-84.5 48.5t-130 18q-128 0 -195.5 -55.5t-67.5 -132.5q0 -84 77 -127q-49 -15 -77.5 -54.5t-28.5 -97.5q0 -83 52.5 -125t146.5 -64q11 -3 31 -7l30 -6t24 -7.5t21 -11.5t12.5 -16t5.5 -24q0 -15 -11.5 -26t-29.5 -11q-48 0 -48 47v11zM335 207q-30 0 -50 18t-20 48
q0 29 20 48t50 19t50 -19t20 -48q0 -30 -20 -48t-50 -18zM0 -244v1153h669v-1153h-669z" />
    <glyph glyph-name="copyright" unicode="&#xa9;" horiz-adv-x="924" 
d="M0 -244v1153h924v-1153h-924zM62 350q0 -165 117.5 -282.5t282.5 -117.5t282.5 117.5t117.5 282.5t-117.5 282.5t-282.5 117.5t-282.5 -117.5t-117.5 -282.5zM154 350q0 128 90 218t218 90q127 0 217.5 -90.5t90.5 -217.5t-90.5 -217.5t-217.5 -90.5q-128 0 -218 90
t-90 218zM607 161v116q-49 -36 -100 -36q-53 0 -83.5 28t-30.5 81q0 55 34 81.5t80 26.5q48 0 100 -39v117q-61 37 -134 37q-97 0 -158 -66.5t-61 -156.5q0 -96 62 -160t157 -64q67 0 134 35z" />
    <glyph glyph-name="guillemotleft" unicode="&#xab;" horiz-adv-x="563" 
d="M180 252l126 171l-95 60l-171 -231l171 -231l95 60zM397 252l126 171l-95 60l-171 -231l171 -231l95 60zM0 -244v1153h563v-1153h-563z" />
    <glyph glyph-name="logicalnot" unicode="&#xac;" horiz-adv-x="664" 
d="M0 -244v1153h664v-1153h-664zM62 350h420v-150h120v250h-540v-100z" />
    <glyph glyph-name="registered" unicode="&#xae;" horiz-adv-x="930" 
d="M0 -244v1153h930v-1153h-930zM65 350q0 -165 117.5 -282.5t282.5 -117.5t282.5 117.5t117.5 282.5t-117.5 282.5t-282.5 117.5t-282.5 -117.5t-117.5 -282.5zM157 350q0 128 90.5 218t217.5 90t217.5 -90t90.5 -218t-90.5 -218t-217.5 -90t-217.5 90t-90.5 218zM292 143
h126v163h5l86 -163h135l-101 170q87 19 87 113q0 57 -37.5 93.5t-106.5 36.5h-194v-413zM418 388v70h41q25 0 33 -9.5t8 -24.5q0 -18 -9.5 -27t-21.5 -9h-51z" />
    <glyph glyph-name="degree" unicode="&#xb0;" horiz-adv-x="360" 
d="M68 609q0 -47 33 -79.5t79 -32.5t79 32.5t33 79.5t-33 79.5t-79 32.5t-79 -32.5t-33 -79.5zM117 609q0 24 17.5 43.5t45.5 19.5q27 0 45 -18t18 -45t-18 -45t-45 -18q-29 0 -46 20t-17 43zM0 -244v1153h360v-1153h-360z" />
    <glyph glyph-name="mu" unicode="&#xb5;" horiz-adv-x="717" 
d="M0 -244v1153h717v-1153h-717zM68 483v-679h224v231q26 -42 77 -42q56 0 84 56v-49h203v483h-224v-245q0 -37 -17.5 -64t-52.5 -27t-52.5 27t-17.5 64v245h-224z" />
    <glyph glyph-name="mu" unicode="&#x3bc;" horiz-adv-x="717" 
d="M0 -244v1153h717v-1153h-717zM68 483v-679h224v231q26 -42 77 -42q56 0 84 56v-49h203v483h-224v-245q0 -37 -17.5 -64t-52.5 -27t-52.5 27t-17.5 64v245h-224z" />
    <glyph glyph-name="paragraph" unicode="&#xb6;" horiz-adv-x="606" 
d="M215 -210h126v945h-126q-72 0 -123.5 -51t-51.5 -124q0 -66 46.5 -119.5t128.5 -55.5v-595zM425 -210h126v945h-126v-945zM0 -244v1153h606v-1153h-606z" />
    <glyph glyph-name="periodcentered" unicode="&#xb7;" horiz-adv-x="354" 
d="M0 -244v1153h354v-1153h-354zM75 273q0 -42 30 -72t72 -30t72 30t30 72t-30 72t-72 30t-72 -30t-30 -72z" />
    <glyph glyph-name="periodcentered" unicode="&#x2219;" horiz-adv-x="354" 
d="M0 -244v1153h354v-1153h-354zM75 273q0 -42 30 -72t72 -30t72 30t30 72t-30 72t-72 30t-72 -30t-30 -72z" />
    <glyph glyph-name="guillemotright" unicode="&#xbb;" horiz-adv-x="563" 
d="M166 252l-126 -171l95 -60l171 231l-171 231l-95 -60zM383 252l-126 -171l95 -60l171 231l-171 231l-95 -60zM0 -244v1153h563v-1153h-563z" />
    <glyph glyph-name="afii10023" unicode="&#x401;" horiz-adv-x="619" 
d="M0 -244v1153h619v-1153h-619zM75 0h490v196h-210v74h189v168h-189v66h210v196h-490v-700zM114 812q0 -37 26.5 -57t64.5 -20q45 0 68 23.5t23 53.5t-23 53.5t-68 23.5q-38 0 -64.5 -20t-26.5 -57zM352 812q0 -37 26.5 -57t64.5 -20q45 0 68 23.5t23 53.5t-23 53.5
t-68 23.5q-38 0 -64.5 -20t-26.5 -57z" />
    <glyph glyph-name="afii10051" unicode="&#x402;" horiz-adv-x="863" 
d="M159 0h280v194q30 45 66 45q21 0 33.5 -10.5t15.5 -20.5t3 -19q0 -19 -17.5 -37t-50.5 -12v-140q99 -10 169 6.5t104 53t47.5 74.5t13.5 83q0 93 -60 152t-154 59q-89 0 -170 -66v142h280v196h-700v-196h140v-504zM0 -244v1153h863v-1153h-863z" />
    <glyph glyph-name="afii10052" unicode="&#x403;" horiz-adv-x="591" 
d="M0 -244v1153h591v-1153h-591zM75 0h280v497h210v203h-490v-700zM139 735h147l228 154h-224z" />
    <glyph glyph-name="afii10053" unicode="&#x404;" horiz-adv-x="693" 
d="M0 -244v1153h693v-1153h-693zM646 28v203q-85 -56 -182 -56q-72 0 -105 31t-40 71h243v153h-232q10 44 52.5 69.5t99.5 25.5q84 0 164 -56v200q-104 52 -226 52q-162 0 -269 -101.5t-107 -259.5q0 -165 102.5 -273t275.5 -108q127 0 224 49z" />
    <glyph glyph-name="afii10054" unicode="&#x405;" horiz-adv-x="665" 
d="M0 -244v1153h665v-1153h-665zM517 497l81 154q-105 70 -254 70q-140 0 -213.5 -71t-73.5 -173q0 -32 9 -59.5t20.5 -46t34 -35.5t36.5 -25.5t41 -18.5t35 -12.5t31 -8.5q27 -7 37 -10t27.5 -11t24 -18t6.5 -24q0 -40 -59 -40q-75 0 -175 80l-106 -156q147 -113 293 -113
q141 0 227 67.5t86 184.5q0 83 -45 129t-124 71q-16 5 -39.5 11t-37.5 9.5t-28.5 9.5t-21 15t-6.5 22q0 41 65 41q50 0 129 -42z" />
    <glyph glyph-name="afii10055" unicode="&#x406;" horiz-adv-x="430" 
d="M0 -244v1153h430v-1153h-430zM75 0h280v700h-280v-700z" />
    <glyph glyph-name="afii10056" unicode="&#x407;" horiz-adv-x="444" 
d="M0 -244v1153h444v-1153h-444zM82 0h280v700h-280v-700zM33 812q0 -33 23 -55t61 -22q33 0 58.5 20t25.5 57t-25.5 57t-58.5 20q-38 0 -61 -22t-23 -55zM243 812q0 -33 23 -55t61 -22q33 0 58.5 20t25.5 57t-25.5 57t-58.5 20q-38 0 -61 -22t-23 -55z" />
    <glyph glyph-name="afii10057" unicode="&#x408;" horiz-adv-x="705" 
d="M0 -244v1153h705v-1153h-705zM282 700v-461q0 -27 -13 -42t-35 -15q-46 0 -64 56l-119 -136q84 -123 241 -123q56 0 100.5 12.5t72 31t47.5 46.5t29.5 50t14.5 51.5t5.5 42t0.5 29.5v458h-280z" />
    <glyph glyph-name="afii10058" unicode="&#x409;" horiz-adv-x="1193" 
d="M152 700v-358q0 -30 -1 -47t-6 -40.5t-14.5 -35.5t-28.5 -21t-46 -9q-18 0 -44 7v-196q62 -11 105 -11q58 0 104.5 9t76 22.5t50.5 36t32 41.5t16.5 47.5t6.5 45.5t1 44v262h112v-497h362q82 0 139 20t85 54.5t39.5 69.5t11.5 77q0 41 -12 76.5t-41 69.5t-87.5 54
t-141.5 20h-75v259h-644zM796 168v105h34q64 0 64 -52q0 -53 -64 -53h-34zM0 -244v1153h1193v-1153h-1193z" />
    <glyph glyph-name="afii10059" unicode="&#x40a;" horiz-adv-x="1172" 
d="M75 0h280v256h140v-256h362q82 0 139 20t85 54.5t39.5 69.5t11.5 77q0 43 -12 79.5t-41 71.5t-87.5 55.5t-141.5 20.5h-75v252h-280v-252h-140v252h-280v-700zM775 168v112h34q64 0 64 -56t-64 -56h-34zM0 -244v1153h1172v-1153h-1172z" />
    <glyph glyph-name="afii10060" unicode="&#x40b;" horiz-adv-x="892" 
d="M159 0h280v167q28 51 68 51q44 0 44 -64v-154h280v204q0 106 -54.5 161.5t-156.5 55.5q-98 0 -181 -72v155h266v196h-686v-196h140v-504zM0 -244v1153h892v-1153h-892z" />
    <glyph glyph-name="afii10061" unicode="&#x40c;" horiz-adv-x="859" 
d="M0 -244v1153h859v-1153h-859zM75 0h280v266l147 -266h322l-245 368l238 332h-307l-155 -252v252h-280v-700zM273 735h147l228 154h-224z" />
    <glyph glyph-name="afii10062" unicode="&#x40e;" horiz-adv-x="875" 
d="M0 -244v1153h875v-1153h-875zM245 0h294l301 700h-290l-80 -214l-99 214h-329l298 -507zM403 889h-149q8 -43 30 -74t45 -46t54.5 -23t47.5 -9.5t34 -1.5t34 1.5t47.5 9.5t54.5 23t45 46t30 74h-148q-6 -70 -62 -70q-57 0 -63 70z" />
    <glyph glyph-name="afii10145" unicode="&#x40f;" horiz-adv-x="857" 
d="M75 0h228v-196h251v196h228v700h-280v-497h-147v497h-280v-700zM0 -244v1153h857v-1153h-857z" />
    <glyph glyph-name="afii10017" unicode="&#x410;" horiz-adv-x="855" 
d="M0 -244v1153h855v-1153h-855zM25 0h287l28 102h175l28 -102h287l-248 700h-308zM379 277l49 178l48 -178h-97z" />
    <glyph glyph-name="afii10018" unicode="&#x411;" horiz-adv-x="765" 
d="M0 -244v1153h765v-1153h-765zM75 0h376q81 0 138 20t85 54t39.5 69.5t11.5 77.5q0 41 -11.5 75t-39.5 67t-85 52t-138 19h-96v63h301v203h-581v-700zM355 168v105h27q70 0 70 -52q0 -53 -70 -53h-27z" />
    <glyph glyph-name="afii10019" unicode="&#x412;" horiz-adv-x="765" 
d="M0 -244v1153h765v-1153h-765zM75 0h414q69 0 118.5 20t73 51.5t34 62t10.5 61.5q0 70 -43 119t-112 60v2q49 14 85.5 52.5t36.5 93.5q0 20 -3.5 39.5t-17 46t-36 46t-65.5 33t-100 13.5h-395v-700zM355 434v98h26q62 0 62 -49t-62 -49h-26zM355 168v105h34q70 0 70 -52
q0 -53 -70 -53h-34z" />
    <glyph glyph-name="afii10020" unicode="&#x413;" horiz-adv-x="591" 
d="M0 -244v1153h591v-1153h-591zM75 0h280v497h210v203h-490v-700z" />
    <glyph glyph-name="afii10021" unicode="&#x414;" horiz-adv-x="911" 
d="M0 -244v1153h911v-1153h-911zM172 700v-271q0 -25 -1 -42.5t-4.5 -46.5t-13 -49.5t-24 -41.5t-39.5 -32.5t-58 -13.5v-343h238v140h364v-140h238v343h-84v497h-616zM424 497h84v-294h-148q64 51 64 195v99z" />
    <glyph glyph-name="afii10022" unicode="&#x415;" horiz-adv-x="619" 
d="M0 -244v1153h619v-1153h-619zM75 0h490v203h-210v67h189v168h-189v59h210v203h-490v-700z" />
    <glyph glyph-name="afii10024" unicode="&#x416;" horiz-adv-x="1260" 
d="M0 -244v1153h1260v-1153h-1260zM756 0v266l147 -266h322l-252 364l234 336h-315l-136 -255v255h-252v-255l-136 255h-315l234 -336l-252 -364h322l147 266v-266h252z" />
    <glyph glyph-name="afii10025" unicode="&#x417;" horiz-adv-x="675" 
d="M0 -244v1153h675v-1153h-675zM33 655l80 -161q77 45 157 45q81 0 81 -50q0 -29 -21.5 -38.5t-63.5 -9.5h-103v-175h110q45 0 63.5 -12t18.5 -36q0 -30 -23 -43.5t-57 -13.5q-37 0 -80 20t-74 47l-102 -158q89 -53 154.5 -72t159.5 -19q134 0 218 60t84 155
q0 42 -15.5 74.5t-40 51t-43 27.5t-36.5 14v3q53 17 87.5 60t34.5 98q0 86 -81.5 142.5t-220.5 56.5q-155 0 -287 -66z" />
    <glyph glyph-name="afii10026" unicode="&#x418;" horiz-adv-x="864" 
d="M0 -244v1153h864v-1153h-864zM75 700v-700h252l196 336v-336h266v700h-252l-196 -349v349h-266z" />
    <glyph glyph-name="afii10027" unicode="&#x419;" horiz-adv-x="864" 
d="M0 -244v1153h864v-1153h-864zM75 700v-700h252l196 336v-336h266v700h-252l-196 -349v349h-266zM378 889h-147q29 -154 210 -154t210 154h-147q-2 -24 -10 -39.5t-20 -21.5t-19 -7.5t-14 -1.5t-14 1.5t-19 7.5t-20 21.5t-10 39.5z" />
    <glyph glyph-name="afii10028" unicode="&#x41a;" horiz-adv-x="859" 
d="M0 -244v1153h859v-1153h-859zM75 0h280v266l147 -266h322l-245 368l238 332h-307l-155 -252v252h-280v-700z" />
    <glyph glyph-name="afii10029" unicode="&#x41b;" horiz-adv-x="901" 
d="M0 -244v1153h901v-1153h-901zM182 700v-358q0 -30 -1 -47t-6 -40.5t-14.5 -35.5t-28.5 -21t-46 -9q-18 0 -44 7v-196q62 -11 105 -11q58 0 104.5 9t76 22.5t50.5 36t32 41.5t16.5 47.5t6.5 45.5t1 44v262h112v-497h280v700h-644z" />
    <glyph glyph-name="afii10030" unicode="&#x41c;" horiz-adv-x="1082" 
d="M541 301l-109 399h-308l-98 -700h272l32 364l106 -364h210l106 364l32 -364h272l-98 700h-308zM0 -244v1153h1082v-1153h-1082z" />
    <glyph glyph-name="afii10031" unicode="&#x41d;" horiz-adv-x="850" 
d="M0 -244v1153h850v-1153h-850zM75 0h280v256h140v-256h280v700h-280v-241h-140v241h-280v-700z" />
    <glyph glyph-name="afii10032" unicode="&#x41e;" horiz-adv-x="899" 
d="M0 -244v1153h899v-1153h-899zM450 -21q99 0 178 31t127.5 84t74 118.5t25.5 137.5t-25.5 137.5t-74 118.5t-127.5 84t-178 31q-100 0 -179 -31t-127.5 -84t-74 -118t-25.5 -138t25.5 -138t74 -118t127.5 -84t179 -31zM450 203q-57 0 -97.5 38.5t-40.5 108.5t40.5 108.5
t97.5 38.5t97 -38.5t40 -108.5t-40 -108.5t-97 -38.5z" />
    <glyph glyph-name="afii10033" unicode="&#x41f;" horiz-adv-x="870" 
d="M0 -244v1153h870v-1153h-870zM75 700v-700h280v497h160v-497h280v700h-720z" />
    <glyph glyph-name="afii10034" unicode="&#x420;" horiz-adv-x="759" 
d="M0 -244v1153h759v-1153h-759zM75 0h280v217h85q79 0 136.5 23t87 61t42.5 77t13 81t-13 80.5t-42 76.5t-87 61t-137 23h-365v-700zM355 518h31q67 0 67 -59q0 -60 -67 -60h-31v119z" />
    <glyph glyph-name="afii10035" unicode="&#x421;" horiz-adv-x="669" 
d="M0 -244v1153h669v-1153h-669zM622 22v245q-71 -64 -156 -64q-68 0 -110.5 37.5t-42.5 102.5q0 67 39.5 110.5t114.5 43.5q40 0 82.5 -18.5t72.5 -55.5v245q-76 53 -192 53q-69 0 -136 -23t-123.5 -66.5t-91.5 -117t-35 -164.5q0 -167 109 -269t281 -102q106 0 188 43z
" />
    <glyph glyph-name="afii10036" unicode="&#x422;" horiz-adv-x="612" 
d="M166 0h280v497h147v203h-574v-203h147v-497zM0 -244v1153h612v-1153h-612z" />
    <glyph glyph-name="afii10037" unicode="&#x423;" horiz-adv-x="875" 
d="M0 -244v1153h875v-1153h-875zM245 0h294l301 700h-290l-80 -214l-99 214h-329l298 -507z" />
    <glyph glyph-name="afii10038" unicode="&#x424;" horiz-adv-x="1040" 
d="M0 -244v1153h1040v-1153h-1040zM380 0h280v98q42 0 81.5 5t88 23t83.5 47.5t59 84t24 127.5t-24 127.5t-59 84t-83.5 47.5t-88 23t-81.5 5v77h-280v-77q-43 0 -83 -5t-88 -23t-83 -48t-58.5 -84.5t-23.5 -126.5t23.5 -126.5t58.5 -84.5t83 -48t88 -23t83 -5v-98zM408 294
h-19q-36 0 -61 23.5t-25 67.5q0 10 2 20.5t9 29t26.5 30t48.5 11.5h19v-182zM632 294v182h18q41 0 64 -25.5t23 -65.5t-23 -65.5t-64 -25.5h-18z" />
    <glyph glyph-name="afii10039" unicode="&#x425;" horiz-adv-x="901" 
d="M0 -244v1153h901v-1153h-901zM451 175l90 -175h315l-250 378l213 322h-306l-62 -133l-62 133h-319l224 -332l-249 -368h308z" />
    <glyph glyph-name="afii10040" unicode="&#x426;" horiz-adv-x="899" 
d="M0 -244v1153h899v-1153h-899zM75 0h567v-140h238v343h-84v497h-280v-497h-161v497h-280v-700z" />
    <glyph glyph-name="afii10041" unicode="&#x427;" horiz-adv-x="801" 
d="M0 -244v1153h801v-1153h-801zM446 0h280v700h-280v-259q-23 -4 -42 -5h-6h-7h-6q-18 2 -29.5 11.5t-15.5 27.5t-5 30.5t-1 35.5v159h-280v-231q0 -31 1 -51t6.5 -47.5t15.5 -45t29.5 -37t46.5 -30t68 -18t94 -7.5q60 0 131 12v-245z" />
    <glyph glyph-name="afii10042" unicode="&#x428;" horiz-adv-x="1172" 
d="M0 -244v1153h1172v-1153h-1172zM75 0h1022v700h-266v-497h-112v497h-266v-497h-112v497h-266v-700z" />
    <glyph glyph-name="afii10043" unicode="&#x429;" horiz-adv-x="1200" 
d="M0 -244v1153h1200v-1153h-1200zM75 0h868v-140h238v343h-84v497h-266v-497h-112v497h-266v-497h-112v497h-266v-700z" />
    <glyph glyph-name="afii10044" unicode="&#x42a;" horiz-adv-x="829" 
d="M0 -244v1153h829v-1153h-829zM425 168v105h34q64 0 64 -52q0 -53 -64 -53h-34zM145 0h369q81 0 138.5 20t85.5 54.5t39.5 69.5t11.5 77q0 41 -11.5 76.5t-39.5 69.5t-85 54t-139 20h-89v259h-406v-203h126v-497z" />
    <glyph glyph-name="afii10045" unicode="&#x42b;" horiz-adv-x="1102" 
d="M0 -244v1153h1102v-1153h-1102zM75 0h362q82 0 139 20t85 54.5t39.5 69.5t11.5 77q0 41 -12 76.5t-41 69.5t-87.5 54t-141.5 20h-75v259h-280v-700zM355 168v105h34q64 0 64 -52q0 -53 -64 -53h-34zM747 0h280v700h-280v-700z" />
    <glyph glyph-name="afii10046" unicode="&#x42c;" horiz-adv-x="752" 
d="M0 -244v1153h752v-1153h-752zM75 0h362q82 0 139 20t85 54.5t39.5 69.5t11.5 77q0 41 -12 76.5t-41 69.5t-87.5 54t-141.5 20h-75v259h-280v-700zM355 168v105h34q64 0 64 -52q0 -53 -64 -53h-34z" />
    <glyph glyph-name="afii10047" unicode="&#x42d;" horiz-adv-x="700" 
d="M0 -244v1153h700v-1153h-700zM54 231v-203q95 -49 225 -49q173 0 275 108t102 273q0 158 -106.5 259.5t-269.5 101.5q-123 0 -226 -52v-200q80 56 164 56q58 0 100.5 -25.5t52.5 -69.5h-205v-153h216q-22 -102 -145 -102q-98 0 -183 56z" />
    <glyph glyph-name="afii10048" unicode="&#x42e;" horiz-adv-x="1252" 
d="M0 -244v1153h1252v-1153h-1252zM355 449v251h-280v-700h280v260h66q15 -128 119.5 -204.5t261.5 -76.5q179 0 292.5 100t113.5 271q0 170 -113.5 270.5t-291.5 100.5q-162 0 -260.5 -75.5t-121.5 -196.5h-66zM806 203q-59 0 -99.5 38.5t-40.5 108.5t40.5 108.5t99.5 38.5
q56 0 95 -38.5t39 -108.5t-39 -108.5t-95 -38.5z" />
    <glyph glyph-name="afii10049" unicode="&#x42f;" horiz-adv-x="772" 
d="M0 -244v1153h772v-1153h-772zM26 0h307l84 196v-196h280v700h-356q-70 0 -124 -15.5t-86.5 -39.5t-53 -57t-28 -64.5t-7.5 -65.5q0 -84 41.5 -135t101.5 -70zM417 385h-28q-81 0 -81 67q0 66 81 66h28v-133z" />
    <glyph glyph-name="afii10065" unicode="&#x430;" horiz-adv-x="705" 
d="M0 -244v1153h705v-1153h-705zM637 483h-217v-52q-58 73 -157 73q-98 0 -159.5 -74.5t-61.5 -187.5q0 -122 66 -192.5t155 -70.5q97 0 157 71v-50h217v483zM343 147q-37 0 -60.5 26t-23.5 69q0 42 23.5 68t60.5 26t60.5 -26t23.5 -68q0 -43 -23.5 -69t-60.5 -26z" />
    <glyph glyph-name="afii10066" unicode="&#x431;" horiz-adv-x="670" 
d="M0 -244v1153h670v-1153h-670zM617 735h-168q-2 -10 -8.5 -16.5t-21 -11t-30 -7.5t-43.5 -8.5t-53 -11.5q-246 -63 -246 -369q0 -24 1.5 -46t8.5 -57.5t18.5 -64.5t34.5 -60.5t53.5 -53.5t78.5 -36t107 -14q138 0 208.5 77t70.5 184q0 41 -13.5 80.5t-40 73.5t-71.5 54.5
t-103 20.5q-115 0 -168 -69h-3q4 32 18 56t31 39.5t47 28t54.5 19.5t66.5 16q27 6 45 11.5t43.5 19t41 30.5t28 47t13.5 68zM337 140q-34 0 -53.5 23t-19.5 64q0 40 19.5 64t53.5 24q35 0 54.5 -24t19.5 -64q0 -41 -19.5 -64t-54.5 -23z" />
    <glyph glyph-name="afii10067" unicode="&#x432;" horiz-adv-x="605" 
d="M0 -244v1153h605v-1153h-605zM68 0h330q90 0 128.5 39t38.5 91q0 100 -118 120v2q94 27 94 113q0 41 -19.5 67.5t-50.5 36t-47.5 12t-32.5 2.5h-323v-483zM278 287v84h16q51 0 51 -41q0 -43 -51 -43h-16zM278 112v84h22q48 0 48 -42t-48 -42h-22z" />
    <glyph glyph-name="afii10068" unicode="&#x433;" horiz-adv-x="492" 
d="M0 -244v1153h492v-1153h-492zM68 0h224v315h133v168h-357v-483z" />
    <glyph glyph-name="afii10069" unicode="&#x434;" 
d="M0 -244v1153h696v-1153h-696zM138 483v-163q0 -27 -2.5 -48t-12 -53t-34.5 -49.5t-63 -15.5v-294h168v140h308v-140h168v294h-70v329h-462zM390 154h-124q54 41 54 114v61h70v-175z" />
    <glyph glyph-name="afii10070" unicode="&#x435;" horiz-adv-x="644" 
d="M0 -244v1153h644v-1153h-644zM249 196h353q1 36 -3.5 72t-22 80.5t-46.5 77.5t-83 55.5t-125 22.5q-128 0 -204 -72.5t-76 -189.5q0 -112 68.5 -187.5t204.5 -75.5q110 0 180.5 46t96.5 122h-200q-12 -42 -66 -42q-38 0 -58 27.5t-19 63.5zM399 294h-147q2 33 21.5 58.5
t52.5 25.5q35 0 54 -25t19 -59z" />
    <glyph glyph-name="afii10072" unicode="&#x436;" horiz-adv-x="1048" 
d="M419 0h210v207l118 -207h246l-182 252l160 231h-238l-104 -199v199h-210v-199l-104 199h-238l160 -231l-182 -252h246l118 207v-207zM0 -244v1153h1048v-1153h-1048z" />
    <glyph glyph-name="afii10073" unicode="&#x437;" horiz-adv-x="556" 
d="M0 -244v1153h556v-1153h-556zM53 463l52 -125q66 33 128 33q72 0 72 -40q0 -30 -53 -30h-93v-112h83q63 0 63 -30q0 -16 -16 -28t-46 -12q-66 0 -143 48l-67 -134q115 -54 233 -54q132 0 191 47t59 105q0 41 -29.5 74.5t-85.5 44.5v2q34 13 60 40.5t26 72.5
q0 61 -57.5 100t-164.5 39q-109 0 -212 -41z" />
    <glyph glyph-name="afii10074" unicode="&#x438;" horiz-adv-x="682" 
d="M0 -244v1153h682v-1153h-682zM68 483v-483h205l131 238v-238h210v483h-205l-131 -231v231h-210z" />
    <glyph glyph-name="afii10075" unicode="&#x439;" horiz-adv-x="682" 
d="M0 -244v1153h682v-1153h-682zM68 483v-483h205l131 238v-238h210v483h-205l-131 -231v231h-210zM293 700h-135q11 -66 61 -110t136 -44q87 0 137 44t61 110h-135q-5 -70 -63 -70q-33 0 -47.5 21.5t-14.5 48.5z" />
    <glyph glyph-name="afii10076" unicode="&#x43a;" horiz-adv-x="713" 
d="M0 -244v1153h713v-1153h-713zM68 0h224v214l122 -214h256l-189 256l171 227h-249l-111 -197v197h-224v-483z" />
    <glyph glyph-name="afii10077" unicode="&#x43b;" 
d="M0 -244v1153h696v-1153h-696zM628 483h-504v-234q0 -85 -68 -85q-17 0 -30 4v-168q50 -11 97 -11q53 0 91.5 12t58.5 28.5t31 42t13.5 44.5t2.5 45v154h84v-315h224v483z" />
    <glyph glyph-name="afii10078" unicode="&#x43c;" horiz-adv-x="858" 
d="M0 -244v1153h858v-1153h-858zM26 0h209l40 238l70 -238h168l70 238l40 -238h209l-77 483h-252l-74 -259l-74 259h-252z" />
    <glyph glyph-name="afii10079" unicode="&#x43d;" horiz-adv-x="675" 
d="M0 -244v1153h675v-1153h-675zM68 0h224v175h91v-175h224v483h-224v-154h-91v154h-224v-483z" />
    <glyph glyph-name="afii10080" unicode="&#x43e;" horiz-adv-x="668" 
d="M0 -244v1153h668v-1153h-668zM334 504q-145 0 -218.5 -75t-73.5 -187t74 -187.5t218 -75.5t218 75.5t74 187.5t-73.5 187t-218.5 75zM334 161q-39 0 -57 25.5t-18 55.5q0 29 18 54.5t57 25.5t57 -25.5t18 -54.5q0 -30 -18 -55.5t-57 -25.5z" />
    <glyph glyph-name="afii10081" unicode="&#x43f;" horiz-adv-x="682" 
d="M0 -244v1153h682v-1153h-682zM68 483v-483h224v329h98v-329h224v483h-546z" />
    <glyph glyph-name="afii10082" unicode="&#x440;" horiz-adv-x="705" 
d="M0 -244v1153h705v-1153h-705zM68 -196h224v238q58 -63 150 -63q89 0 155 71.5t66 191.5q0 126 -67 194t-154 68q-101 0 -157 -73v52h-217v-679zM362 147q-37 0 -60.5 26t-23.5 69q0 42 23.5 68t60.5 26t60.5 -26t23.5 -68q0 -43 -23.5 -69t-60.5 -26z" />
    <glyph glyph-name="afii10083" unicode="&#x441;" horiz-adv-x="496" 
d="M0 -244v1153h496v-1153h-496zM456 14v185q-51 -38 -97 -38q-41 0 -70.5 19.5t-29.5 56.5q0 41 27 63t65 22q53 0 105 -43v190q-80 35 -151 35q-119 0 -191 -75.5t-72 -186.5q0 -118 75 -190.5t188 -72.5q81 0 151 35z" />
    <glyph glyph-name="afii10084" unicode="&#x442;" horiz-adv-x="478" 
d="M0 -244v1153h478v-1153h-478zM127 0h224v315h108v168h-440v-168h108v-315z" />
    <glyph glyph-name="afii10085" unicode="&#x443;" horiz-adv-x="728" 
d="M0 -244v1153h728v-1153h-728zM33 483l251 -427l-125 -252h224l294 679h-216l-73 -210l-103 210h-252z" />
    <glyph glyph-name="afii10086" unicode="&#x444;" horiz-adv-x="854" 
d="M0 -244v1153h854v-1153h-854zM322 -196h210v189q36 0 70.5 5.5t73.5 22t68 43t48.5 72.5t19.5 106t-19 105.5t-48 72t-68.5 43t-74 22t-70.5 5.5v210h-210v-210q-36 0 -70.5 -5.5t-74 -22t-68.5 -43t-48 -72t-19 -105.5t19.5 -106t48.5 -72.5t68 -43t73.5 -22t70.5 -5.5
v-189zM343 322v-161q-11 0 -23 3q-34 6 -51 26.5t-17 47.5q0 35 24 59t67 25zM511 161v161q42 -1 66.5 -25t24.5 -59q0 -37 -27 -56t-64 -21z" />
    <glyph glyph-name="afii10087" unicode="&#x445;" horiz-adv-x="680" 
d="M0 -244v1153h680v-1153h-680zM340 137l84 -137h231l-196 256l175 227h-238l-56 -115l-56 115h-238l175 -227l-196 -256h231z" />
    <glyph glyph-name="afii10088" unicode="&#x446;" 
d="M0 -244v1153h696v-1153h-696zM68 0h434v-140h168v294h-71v329h-224v-329h-83v329h-224v-483z" />
    <glyph glyph-name="afii10089" unicode="&#x447;" horiz-adv-x="654" 
d="M0 -244v1153h654v-1153h-654zM362 0h224v483h-224v-186q-20 -7 -38 -7q-22 0 -34 12t-12 48v133h-224v-206q0 -28 7 -49.5t27 -44t63.5 -35t108.5 -12.5q63 0 102 7v-143z" />
    <glyph glyph-name="afii10090" unicode="&#x448;" horiz-adv-x="934" 
d="M0 -244v1153h934v-1153h-934zM68 0h798v483h-210v-329h-84v329h-210v-329h-84v329h-210v-483z" />
    <glyph glyph-name="afii10091" unicode="&#x449;" horiz-adv-x="962" 
d="M0 -244v1153h962v-1153h-962zM68 0h700v-140h168v294h-70v329h-210v-329h-84v329h-210v-329h-84v329h-210v-483z" />
    <glyph glyph-name="afii10092" unicode="&#x44a;" horiz-adv-x="644" 
d="M0 -244v1153h644v-1153h-644zM19 483v-168h84v-315h324q78 0 129 43.5t51 114.5q0 68 -44 116t-136 48h-100v161h-308zM327 112v98h17q24 0 38.5 -12t14.5 -36q0 -23 -14 -36.5t-39 -13.5h-17z" />
    <glyph glyph-name="afii10093" unicode="&#x44b;" horiz-adv-x="910" 
d="M0 -244v1153h910v-1153h-910zM292 322v161h-224v-483h324q78 0 129 43.5t51 114.5q0 68 -44 116t-136 48h-100zM292 112v98h17q24 0 38.5 -12t14.5 -36q0 -23 -14 -36.5t-39 -13.5h-17zM618 0h224v483h-224v-483z" />
    <glyph glyph-name="afii10094" unicode="&#x44c;" horiz-adv-x="609" 
d="M0 -244v1153h609v-1153h-609zM292 322v161h-224v-483h324q78 0 129 43.5t51 114.5q0 68 -44 116t-136 48h-100zM292 112v98h17q24 0 38.5 -12t14.5 -36q0 -23 -14 -36.5t-39 -13.5h-17z" />
    <glyph glyph-name="afii10095" unicode="&#x44d;" horiz-adv-x="544" 
d="M0 -244v1153h544v-1153h-544zM54 154v-147q67 -28 150 -28q127 0 212.5 73t85.5 193q0 108 -80.5 183.5t-221.5 75.5q-78 0 -146 -34v-144q60 38 120 38q40 0 75 -15.5t46 -50.5h-178v-112h182q-6 -35 -39.5 -51t-78.5 -16q-65 0 -127 35z" />
    <glyph glyph-name="afii10096" unicode="&#x44e;" horiz-adv-x="958" 
d="M0 -244v1153h958v-1153h-958zM278 322v161h-210v-483h210v168h51q18 -85 87 -137t182 -52q147 0 219.5 75.5t72.5 187.5q0 111 -74.5 186.5t-217.5 75.5q-66 0 -116.5 -17.5t-80.5 -47t-46 -57.5t-25 -60h-52zM598 161q-39 0 -57 26t-18 55q0 28 18 54t57 26t57 -25
t18 -55t-18 -55.5t-57 -25.5z" />
    <glyph glyph-name="afii10097" unicode="&#x44f;" horiz-adv-x="619" 
d="M0 -244v1153h619v-1153h-619zM40 0h217l77 143h7v-143h210v483h-315q-49 0 -86 -13.5t-56.5 -33t-31.5 -45t-15 -44.5t-3 -37q0 -52 26 -96t79 -58zM341 259h-31q-56 0 -56 48q0 50 56 50h31v-98z" />
    <glyph glyph-name="afii10071" unicode="&#x451;" horiz-adv-x="644" 
d="M0 -244v1153h644v-1153h-644zM249 196h353q1 36 -3.5 72t-22 80.5t-46.5 77.5t-83 55.5t-125 22.5q-128 0 -204 -72.5t-76 -189.5q0 -112 68.5 -187.5t204.5 -75.5q110 0 180.5 46t96.5 122h-200q-12 -42 -66 -42q-38 0 -58 27.5t-19 63.5zM399 294h-147q2 33 21.5 58.5
t52.5 25.5q35 0 54 -25t19 -59zM98 637q0 -40 26.5 -69t64.5 -29q39 0 65 29t26 69t-26 69t-65 29q-38 0 -64.5 -29t-26.5 -69zM364 637q0 -40 26.5 -69t64.5 -29q39 0 65 29t26 69t-26 69t-65 29q-38 0 -64.5 -29t-26.5 -69z" />
    <glyph glyph-name="afii10099" unicode="&#x452;" horiz-adv-x="714" 
d="M0 -244v1153h714v-1153h-714zM103 0h224v245q0 36 15 63.5t44 27.5q62 0 62 -90q0 -169 -91 -329l167 -72q139 218 139 415q0 104 -46.5 172.5t-137.5 68.5q-48 0 -89.5 -19.5t-62.5 -54.5v133h189v105h-189v70h-224v-70h-84v-105h84v-560z" />
    <glyph glyph-name="afii10100" unicode="&#x453;" horiz-adv-x="492" 
d="M0 -244v1153h492v-1153h-492zM68 0h224v315h133v168h-357v-483zM83 539h119l214 161h-210z" />
    <glyph glyph-name="afii10101" unicode="&#x454;" horiz-adv-x="530" 
d="M0 -244v1153h530v-1153h-530zM425 186v112h-165q10 32 41 49t74 17q51 0 113 -38v144q-63 34 -139 34q-123 0 -209 -70t-86 -189t83.5 -192.5t207.5 -73.5q82 0 143 28v147q-60 -35 -120 -35q-51 0 -78 19t-33 48h168z" />
    <glyph glyph-name="afii10102" unicode="&#x455;" horiz-adv-x="510" 
d="M0 -244v1153h510v-1153h-510zM89 158l-56 -128q81 -51 196 -51q64 0 111 15.5t70 35.5t36 48t15 43.5t2 32.5q0 126 -132 147q-5 1 -16 2.5t-16.5 2.5t-14.5 3t-13.5 4.5t-10 6.5t-7.5 9.5t-2 12.5t2.5 13.5t15.5 14.5t36 8q45 0 97 -31l54 112q-81 45 -188 45
q-109 0 -164.5 -49.5t-55.5 -123.5q0 -32 9 -57t25.5 -39.5t30 -22t31.5 -13.5q22 -7 55.5 -13.5t43.5 -13t10 -25.5q0 -2 -0.5 -4t-3 -7t-7.5 -8.5t-15.5 -6t-24.5 -2.5q-43 0 -113 39z" />
    <glyph glyph-name="afii10103" unicode="&#x456;" horiz-adv-x="360" 
d="M0 -244v1153h360v-1153h-360zM68 483v-483h224v483h-224zM54 637q0 -47 37 -79.5t89 -32.5t89 32.5t37 79.5t-37 79.5t-89 32.5t-89 -32.5t-37 -79.5z" />
    <glyph glyph-name="afii10104" unicode="&#x457;" horiz-adv-x="416" 
d="M0 -244v1153h416v-1153h-416zM96 483v-483h224v483h-224zM26 637q0 -41 24 -69.5t60 -28.5t60 28.5t24 69.5t-24 69.5t-60 28.5t-60 -28.5t-24 -69.5zM222 637q0 -41 24 -69.5t60 -28.5t60 28.5t24 69.5t-24 69.5t-60 28.5t-60 -28.5t-24 -69.5z" />
    <glyph glyph-name="afii10105" unicode="&#x458;" horiz-adv-x="360" 
d="M0 -244v1153h360v-1153h-360zM68 483v-679h224v679h-224zM54 637q0 -47 37 -79.5t89 -32.5t89 32.5t37 79.5t-37 79.5t-89 32.5t-89 -32.5t-37 -79.5z" />
    <glyph glyph-name="afii10106" unicode="&#x459;" horiz-adv-x="945" 
d="M0 -244v1153h945v-1153h-945zM628 483h-504v-234q0 -85 -68 -85q-17 0 -30 4v-168q50 -11 97 -11q53 0 91.5 12t58.5 28.5t31 42t13.5 44.5t2.5 45v154h84v-315h324q78 0 129 43.5t51 114.5q0 68 -44 116t-136 48h-100v161zM628 112v98h17q24 0 38.5 -12t14.5 -36
q0 -23 -14 -36.5t-39 -13.5h-17z" />
    <glyph glyph-name="afii10107" unicode="&#x45a;" horiz-adv-x="924" 
d="M0 -244v1153h924v-1153h-924zM68 0h224v168h91v-168h324q78 0 129 43.5t51 114.5q0 68 -44 116t-136 48h-100v161h-224v-161h-91v161h-224v-483zM607 112v98h17q24 0 38.5 -12t14.5 -36q0 -23 -14 -36.5t-39 -13.5h-17z" />
    <glyph glyph-name="afii10108" unicode="&#x45b;" horiz-adv-x="710" 
d="M0 -244v1153h710v-1153h-710zM103 0h224v245q0 43 16 67t41 24q41 0 41 -63v-273h224v282q0 222 -173 222q-95 0 -149 -77v133h189v105h-189v70h-224v-70h-84v-105h84v-560z" />
    <glyph glyph-name="afii10109" unicode="&#x45c;" horiz-adv-x="713" 
d="M0 -244v1153h713v-1153h-713zM68 0h224v214l122 -214h256l-189 256l171 227h-249l-111 -197v197h-224v-483zM193 539h119l214 161h-210z" />
    <glyph glyph-name="afii10110" unicode="&#x45e;" horiz-adv-x="748" 
d="M0 -244v1153h748v-1153h-748zM52 483l251 -427l-125 -252h224l294 679h-216l-73 -210l-103 210h-252zM339 700h-135q11 -66 61 -110t136 -44q87 0 137 44t61 110h-135q-6 -70 -62 -70q-57 0 -63 70z" />
    <glyph glyph-name="afii10193" unicode="&#x45f;" horiz-adv-x="682" 
d="M0 -244v1153h682v-1153h-682zM68 0h189v-140h168v140h189v483h-224v-329h-98v329h-224v-483z" />
    <glyph glyph-name="afii10050" unicode="&#x490;" horiz-adv-x="619" 
d="M75 0h280v504h238v336h-224v-140h-294v-700zM0 -244v1153h619v-1153h-619z" />
    <glyph glyph-name="afii10098" unicode="&#x491;" horiz-adv-x="458" 
d="M0 -244v1153h458v-1153h-458zM68 0h224v315h147v294h-133v-126h-238v-483z" />
    <glyph glyph-name="endash" unicode="&#x2013;" horiz-adv-x="668" 
d="M61 294h546v105h-546v-105zM0 -244v1153h668v-1153h-668z" />
    <glyph glyph-name="emdash" unicode="&#x2014;" horiz-adv-x="801" 
d="M40 350v-119h721v119h-721zM0 -244v1153h801v-1153h-801z" />
    <glyph glyph-name="quoteleft" unicode="&#x2018;" horiz-adv-x="416" 
d="M376 735h-154l-182 -315h238zM0 -244v1153h416v-1153h-416z" />
    <glyph glyph-name="quoteright" unicode="&#x2019;" horiz-adv-x="416" 
d="M40 420h154l182 315h-238zM0 -244v1153h416v-1153h-416z" />
    <glyph glyph-name="quotesinglbase" unicode="&#x201a;" horiz-adv-x="416" 
d="M40 -140h154l182 315h-238zM0 -244v1153h416v-1153h-416z" />
    <glyph glyph-name="quotedblleft" unicode="&#x201c;" horiz-adv-x="682" 
d="M362 735h-154l-168 -315h224zM642 735h-154l-168 -315h224zM0 -244v1153h682v-1153h-682z" />
    <glyph glyph-name="quotedblright" unicode="&#x201d;" horiz-adv-x="682" 
d="M40 420h154l168 315h-224zM320 420h154l168 315h-224zM0 -244v1153h682v-1153h-682z" />
    <glyph glyph-name="quotedblbase" unicode="&#x201e;" horiz-adv-x="682" 
d="M40 -140h154l168 315h-224zM320 -140h154l168 315h-224zM0 -244v1153h682v-1153h-682z" />
    <glyph glyph-name="dagger" unicode="&#x2020;" horiz-adv-x="640" 
d="M215 -196h210v532h175v189h-175v210h-210v-210h-175v-189h175v-532zM0 -244v1153h640v-1153h-640z" />
    <glyph glyph-name="bullet" unicode="&#x2022;" horiz-adv-x="484" 
d="M62 350q0 -75 52.5 -127.5t127.5 -52.5t127.5 52.5t52.5 127.5t-52.5 127.5t-127.5 52.5t-127.5 -52.5t-52.5 -127.5zM0 -244v1153h484v-1153h-484z" />
    <glyph glyph-name="ellipsis" unicode="&#x2026;" horiz-adv-x="1014" 
d="M75 84q0 -42 30 -72t72 -30t72 30t30 72t-30 72t-72 30t-72 -30t-30 -72zM405 84q0 -42 30 -72t72 -30t72 30t30 72t-30 72t-72 30t-72 -30t-30 -72zM735 84q0 -42 30 -72t72 -30t72 30t30 72t-30 72t-72 30t-72 -30t-30 -72zM0 -244v1153h1014v-1153h-1014z" />
    <glyph glyph-name="perthousand" unicode="&#x2030;" horiz-adv-x="1332" 
d="M0 -244v1153h1332v-1153h-1332zM179 -21h91l455 728h-91zM33 515q0 -79 56.5 -135.5t135.5 -56.5t135.5 56.5t56.5 135.5t-56.5 135.5t-135.5 56.5t-135.5 -56.5t-56.5 -135.5zM149 515q0 31 22.5 53.5t53.5 22.5t53.5 -22.5t22.5 -53.5t-22.5 -53.5t-53.5 -22.5
t-53.5 22.5t-22.5 53.5zM487 172q0 -79 56.5 -135.5t135.5 -56.5t135.5 56.5t56.5 135.5t-56.5 135.5t-135.5 56.5t-135.5 -56.5t-56.5 -135.5zM603 172q0 32 22.5 54t53.5 22t53.5 -22t22.5 -54t-22.5 -54t-53.5 -22t-53.5 22t-22.5 54zM915 172q0 -79 56.5 -135.5
t135.5 -56.5t135.5 56.5t56.5 135.5t-56.5 135.5t-135.5 56.5t-135.5 -56.5t-56.5 -135.5zM1031 172q0 32 22.5 54t53.5 22t53.5 -22t22.5 -54t-22.5 -54t-53.5 -22t-53.5 22t-22.5 54z" />
    <glyph glyph-name="guilsinglleft" unicode="&#x2039;" horiz-adv-x="346" 
d="M0 -244v1153h346v-1153h-346zM180 252l126 171l-95 60l-171 -231l171 -231l95 60z" />
    <glyph glyph-name="guilsinglright" unicode="&#x203a;" horiz-adv-x="346" 
d="M0 -244v1153h346v-1153h-346zM166 252l-126 -171l95 -60l171 231l-171 231l-95 -60z" />
    <glyph glyph-name="Euro" unicode="&#x20ac;" 
d="M628 842v-265q-42 67 -148 67q-70 0 -105 -42t-48 -116h255l-37 -136h-225q-1 -9 -1 -34q0 -20 2 -44h203l-36 -135h-152q12 -59 46 -87t98 -28q42 0 85.5 19t62.5 46v-268q-60 -62 -175 -62q-160 0 -241.5 96t-106.5 284h-92l36 135h47q-1 14 -1 40q0 23 1 38h-83
l36 136h54q13 97 36.5 169.5t63 132t102.5 90.5t147 31q64 0 110 -20.5t66 -46.5z" />
    <glyph glyph-name="afii61352" unicode="&#x2116;" horiz-adv-x="1263" 
d="M75 0h245v350l203 -350h259v700h-245v-343l-200 343h-262v-700zM1027 196q80 0 138 51t58 145t-58 145t-138 51t-138 -51t-58 -145t58 -145t138 -51zM1027 322q-22 0 -35.5 14t-17 28t-3.5 28t3.5 28t17 28t35.5 14t35.5 -14t17 -28t3.5 -28t-3.5 -28t-17 -28t-35.5 -14z
M866 0h322v140h-322v-140zM0 -244v1153h1263v-1153h-1263z" />
    <glyph glyph-name="trademark" unicode="&#x2122;" horiz-adv-x="816" 
d="M132 420h120v190h70v90h-260v-90h70v-190zM543 549l-41 151h-126l-44 -280h102l23 152l44 -152h84l44 152l23 -152h102l-44 280h-126zM0 -244v1153h816v-1153h-816z" />
    <glyph glyph-name="hyphenminus" horiz-adv-x="409" 
d="M40 364v-154h329v154h-329zM0 -244v1153h409v-1153h-409z" />
    <glyph glyph-name="edgeleft" horiz-adv-x="577" 
d="M577 909v-1154q-111 3 -206.5 39.5t-162.5 94t-114.5 131.5t-70.5 153.5t-23 158.5q0 101 37.5 199.5t107 182t182.5 137.5t250 58z" />
    <glyph glyph-name="edgeright" horiz-adv-x="577" 
d="M0 -245v1154q137 -4 250 -58t182.5 -137.5t107 -182t37.5 -199.5q0 -79 -23 -158.5t-70.5 -153.5t-114.5 -131.5t-162.5 -94t-206.5 -39.5z" />
    <glyph glyph-name="blackspace" horiz-adv-x="353" 
d="M0 -244v1153h353v-1153h-353z" />
  </font>
</defs>
</svg>
