<?xml version="1.0" standalone="no"?>
<!DOCTYPE svg PUBLIC "-//W3C//DTD SVG 1.1//EN" "http://www.w3.org/Graphics/SVG/1.1/DTD/svg11.dtd" >
<svg xmlns="http://www.w3.org/2000/svg" xmlns:xlink="http://www.w3.org/1999/xlink" version="1.1">
<metadata>
Created by FontForge 20161013 at Mon Feb 21 17:52:04 2005
 By ,,,
Copyright (c) 1990 Neufville SL, Copyright (c) 1990-2000 ParaType, Inc. All Rights Reserved. Futura is a registered trade mark of Neufville SL.
</metadata>
<defs>
<font id="FuturaFuturisShadowC-Bold" horiz-adv-x="753" >
  <font-face 
    font-family="FuturaFuturisShadowC"
    font-weight="700"
    font-stretch="normal"
    units-per-em="1000"
    panose-1="0 0 8 0 0 0 0 0 0 0"
    ascent="703"
    descent="-297"
    x-height="489"
    cap-height="706"
    bbox="-21 -297 1449 1010"
    underline-thickness="50"
    underline-position="-200"
    unicode-range="U+0020-2122"
  />
<missing-glyph horiz-adv-x="233" 
 />
    <glyph glyph-name=".notdef" horiz-adv-x="233" 
 />
    <glyph glyph-name=".null" horiz-adv-x="0" 
 />
    <glyph glyph-name="nonmarkingreturn" horiz-adv-x="333" 
 />
    <glyph glyph-name="space" unicode=" " horiz-adv-x="233" 
 />
    <glyph glyph-name="space" unicode="&#xa0;" horiz-adv-x="233" 
 />
    <glyph glyph-name="exclam" unicode="!" horiz-adv-x="459" 
d="M148 232v474h244v-65h75v-474h-93q14 -13 21 -33q34 -12 58 -39t24 -69q0 -49 -36.5 -81.5t-95.5 -32.5q-90 0 -125 71q-34 12 -58 39t-24 69q0 43 24.5 70t60.5 38v33h-75zM154 238h232v462h-232v-462zM144 91q0 -52 37.5 -80t88.5 -28t88.5 28t37.5 80t-37.5 80.5
t-88.5 28.5t-88.5 -28.5t-37.5 -80.5z" />
    <glyph glyph-name="quotedbl" unicode="&#x22;" horiz-adv-x="489" 
d="M264 706l-11 -65h64l-11 65h140l-11 -65h86l-38 -215h-66l-10 59l1 6h-66l-14 85l-27 -150h-66l-10 59l1 6h-66l-36 215h140zM257 700h-126l34 -203h56zM439 700h-126l34 -203h56z" />
    <glyph glyph-name="numbersign" unicode="#" horiz-adv-x="883" 
d="M226 541h124l22 125h92l-12 -65h87l-10 -60h58l22 125h92l-10 -65h85l-10 -60h36l-11 -65h86l-19 -112h-123l-16 -93h36l-10 -65h85l-18 -112h-123l-22 -125h-92l12 65h-87l10 60h-58l-22 -125h-92l10 65h-85l10 60h-36l10 65h-85l18 112h124l16 93h-37l10 65h-85z
M541 271l16 93h-59l-16 -93h59zM231 535l-16 -100h123l-29 -170h-124l-16 -100h123l-22 -125h80l22 125h157l-22 -125h80l22 125h123l16 100h-122l29 170h123l17 100h-123l22 125h-80l-22 -125h-157l22 125h-80l-22 -125h-124zM546 265h-157l29 170h157z" />
    <glyph glyph-name="dollar" unicode="$" horiz-adv-x="690" 
d="M80 91l113 166q38 -30 57.5 -44t53 -27.5t65.5 -13.5q39 0 51 25q-129 27 -192 106q-108 63 -108 174q0 58 18 104t48.5 74t64.5 44t72 22v111h138v-65h75v-59q46 -14 107 -55l-10 -18q50 -22 85 -47l-87 -164q-74 47 -130 47q-42 0 -57 -20l15 -4q70 -18 109 -39.5
t67 -61.5q108 -53 108 -180q0 -106 -58 -172t-149 -77v-103h-138v65h-75v51q-85 33 -168 96l7 10q-41 23 -82 55zM194 248l-106 -156q131 -98 241 -109v-98h126v102q38 4 73.5 20.5t66 44.5t49 74.5t18.5 104.5q0 82 -46.5 131.5t-157.5 78.5q-8 2 -25 6t-24 6t-18.5 6.5
t-16.5 9t-9 12t-4 17.5q0 44 65 44q54 0 128 -45l81 154q-93 64 -180 66v109h-126v-110q-84 -12 -143.5 -71t-59.5 -168q0 -40 13 -72.5t32 -53t49.5 -37t54.5 -25t58 -18.5q27 -7 37 -10t27.5 -11t24 -18t6.5 -24q0 -15 -12.5 -28.5t-46.5 -13.5q-44 0 -82.5 19.5
t-92.5 62.5z" />
    <glyph glyph-name="percent" unicode="%" horiz-adv-x="961" 
d="M237 -27l177 283q-60 -13 -116 8.5t-91 72.5q-53 24 -82 74.5t-29 102.5q0 81 58.5 139.5t139.5 58.5q100 0 162 -86q38 -17 66.5 -52.5t39.5 -80.5l138 220h105l-463 -740h-105zM364 519q-32 -3 -49 -25t-16 -50q32 3 49 25t16 50zM555 128l-138 -220h-110l463 740h110
l-177 -283q60 13 116 -8.5t91 -72.5q53 -24 82 -74.5t29 -102.5q0 -81 -58.5 -139.5t-139.5 -58.5q-100 0 -162 86q-38 17 -66.5 52.5t-39.5 80.5zM818 177q-32 -3 -49 -25t-16 -50q32 3 49 25t16 50zM248 -21h91l455 728h-91zM102 514q0 -79 56.5 -135.5t135.5 -56.5
t135.5 56.5t56.5 135.5t-56.5 135.5t-135.5 56.5t-135.5 -56.5t-56.5 -135.5zM218 514q0 32 22 54t54 22t54 -22t22 -54t-22 -54t-54 -22t-54 22t-22 54zM556 172q0 -79 56.5 -135.5t135.5 -56.5t135.5 56.5t56.5 135.5t-56.5 135.5t-135.5 56.5t-135.5 -56.5t-56.5 -135.5z
M672 172q0 32 22 54t54 22t54 -22t22 -54t-22 -54t-54 -22t-54 22t-22 54z" />
    <glyph glyph-name="ampersand" unicode="&#x26;" horiz-adv-x="857" 
d="M771 314l6 6l129 -133l-108 -96l148 -162h-262l-47 50q-81 -69 -203 -69q-152 0 -215 93q-49 23 -79 70.5t-30 103.5q0 131 160 204q-51 56 -51 135q0 91 67 144t167 53q136 0 192 -89q49 -21 78.5 -69t29.5 -103q0 -53 -23 -95zM612 0h245l-143 156l108 96l-120 125
l-113 -99l-44 48q61 38 94 82.5t33 108.5q0 33 -11.5 64.5t-35 61t-68 47t-104.5 17.5q-108 0 -168 -56t-60 -135q0 -74 55 -138q-28 -10 -53.5 -25.5t-52 -39.5t-42.5 -59.5t-16 -76.5q0 -34 12 -66t38 -62.5t75.5 -49t117.5 -18.5q67 0 110 15.5t94 55.5zM380 255l64 -77
q-36 -35 -68 -35q-49 0 -49 40q0 6 1 11t1.5 9t3 8.5t4 7t5.5 6.5l6 6t7 6t7 5.5t9 6t9 6.5zM451 441q-33 35 -33 66q0 25 13 36t28 11q17 0 31 -10t14 -33q0 -35 -53 -70z" />
    <glyph glyph-name="quotesingle" unicode="'" horiz-adv-x="307" 
d="M264 706l-11 -65h86l-38 -215h-66l-10 59l1 6h-66l-36 215h140zM257 700h-126l34 -203h56z" />
    <glyph glyph-name="parenleft" unicode="(" horiz-adv-x="397" 
d="M380 680l86 -46q-121 -211 -121 -433q0 -224 121 -432l-122 -66q-28 32 -50 79l-25 -14q-162 233 -162 498t162 498l122 -65zM271 -224l112 60q-119 207 -119 430q0 218 119 431l-112 59q-158 -228 -158 -490t158 -490z" />
    <glyph glyph-name="parenright" unicode=")" horiz-adv-x="398" 
d="M87 699l122 65q29 -37 50 -79l25 14q163 -235 163 -498t-163 -498l-122 66l11 19l-86 46q55 91 88 205t33 227t-33 226.5t-88 206.5zM207 756l-112 -59q119 -202 119 -431q0 -232 -119 -430l112 -60q159 226 159 490t-159 490z" />
    <glyph glyph-name="asterisk" unicode="*" horiz-adv-x="576" 
d="M272 616l-14 125h140l-7 -65h82v4l14 10l48 -84l27 19l70 -121l-80 -35l5 -2l-15 -26l90 -39l-70 -121l-103 74l14 -125h-140l7 65h-82v-5l-13 -9l-49 84l-26 -19l-70 121l80 35l-5 2l15 25l-90 40l70 121zM279 603l-107 78l-63 -109l121 -54l-121 -54l63 -109l107 78
l-14 -132h126l-14 132l108 -78l63 109l-122 54l122 54l-63 109l-108 -78l14 132h-126z" />
    <glyph glyph-name="plus" unicode="+" horiz-adv-x="725" 
d="M344 68v155h-145v65h-75v117h220v221h118v-65h75v-156h145v-65h75v-117h-220v-220h-118v65h-75zM350 74h106v220h220v105h-220v221h-106v-221h-220v-105h220v-220z" />
    <glyph glyph-name="comma" unicode="," horiz-adv-x="473" 
d="M101 -146l102 327h252l-37 -65h112l-189 -327h-165l20 65h-95zM109 -140h154l182 315h-238z" />
    <glyph glyph-name="hyphen" unicode="-" horiz-adv-x="466" 
d="M103 370h341v-65h75v-166h-341v65h-75v166zM109 364v-154h329v154h-329z" />
    <glyph glyph-name="hyphen" unicode="&#xad;" horiz-adv-x="466" 
d="M103 370h341v-65h75v-166h-341v65h-75v166zM109 364v-154h329v154h-329z" />
    <glyph glyph-name="period" unicode="." horiz-adv-x="459" 
d="M138 91q0 50 36.5 82.5t95.5 32.5q90 0 125 -72q34 -12 58 -39t24 -69q0 -49 -36.5 -81.5t-95.5 -32.5q-90 0 -125 71q-34 12 -58 39t-24 69zM144 91q0 -52 37.5 -80t88.5 -28t88.5 28t37.5 80t-37.5 80.5t-88.5 28.5t-88.5 -28.5t-37.5 -80.5z" />
    <glyph glyph-name="slash" unicode="/" horiz-adv-x="614" 
d="M93 -202l370 943h139l-26 -65h101l-370 -943h-139l26 65h-101zM102 -196h126l365 931h-126z" />
    <glyph glyph-name="zero" unicode="0" 
d="M654 615q148 -85 148 -333q0 -72 -13.5 -130t-34 -95.5t-50.5 -65.5t-57.5 -42t-60 -22t-52.5 -10t-42 -2q-154 0 -238 104q-147 83 -147 328q0 73 13.5 132t34 97t50 66t57 42.5t60 23t53 10.5t42.5 2q152 0 237 -105zM482 446q-34 -4 -49 -42.5t-15 -121.5q0 -54 7 -93
q67 7 67 158q0 54 -10 99zM417 -14q21 0 41 1.5t52 9.5t58.5 22t56 41.5t50 64t33.5 94t13 128.5q0 72 -13 130.5t-33 95.5t-49.5 65t-56 42t-59 22t-52 10t-41.5 2t-42 -2t-52 -10t-58.5 -22t-56 -42t-49.5 -65t-33 -95.5t-13 -130.5q0 -71 13 -128.5t33 -94t49.5 -64
t56 -41.5t59 -22t52 -9.5t41.5 -1.5zM417 182q-47 0 -64 43t-17 122q0 34 2 57.5t9.5 53t25 45t44.5 15.5q81 0 81 -171q0 -165 -81 -165z" />
    <glyph glyph-name="one" unicode="1" horiz-adv-x="754" 
d="M331 -6v442h-30v65h-75v205h355v-65h75v-712h-250v65h-75zM337 0h238v700h-343v-193h105v-507z" />
    <glyph glyph-name="two" unicode="2" 
d="M703 130h75v-201h-621l57 65h-132l357 402q20 24 24 49q-26 -3 -38.5 -25t-11.5 -50h-224q-1 32 7 65h-82q0 28 4 57t22 72.5t48 76t88.5 56t137.5 23.5q49 0 85 -4.5t86 -28.5t83 -68q15 -8 30.5 -20t37.5 -35.5t35.5 -62t13.5 -84.5q0 -122 -104 -222h22v-65zM697 0
v189h-172q49 45 71 68t52.5 62.5t43 78t12.5 84.5q0 110 -78 171t-212 61q-73 0 -128.5 -20.5t-85.5 -50t-49 -69.5t-24.5 -70.5t-6.5 -62.5h217q1 28 16.5 52.5t51.5 24.5q30 0 47.5 -17t17.5 -46q0 -34 -27 -63l-348 -392h602z" />
    <glyph glyph-name="three" unicode="3" 
d="M392 285h-45v120h-153q3 29 13 65h-88q4 45 19 84.5t45.5 79t88 63t135.5 23.5t141.5 -19.5t112.5 -82.5q106 -57 106 -162q0 -19 -2 -33.5t-9.5 -36t-27 -40.5t-49.5 -34l13 -18q99 -44 99 -163q0 -93 -77 -154.5t-240 -61.5q-30 0 -52.5 2.5t-58 11t-68.5 31.5t-60 58
q-124 68 -131 233h241q-2 -46 25 -65h50v-10q37 0 46 44h1h-45v63h-1q-5 0 -14.5 1t-14.5 1zM353 291h39q80 0 80 -58q0 -21 -7 -35t-19 -19.5t-19 -7t-15 -1.5q-73 0 -73 75h-229q3 -34 11 -65.5t28.5 -68t50.5 -63t81.5 -44.5t117.5 -18q161 0 236 60t75 150
q0 46 -16.5 81t-42.5 53.5t-45 26.5t-37 12v3q51 10 84 49t33 100q0 96 -82 144.5t-197 48.5q-15 0 -30.5 -1t-43 -6.5t-51 -14.5t-51 -27t-48 -42.5t-36.5 -62t-21 -84.5h221q0 21 13 37.5t44 16.5q23 0 37.5 -13.5t14.5 -33.5q0 -26 -14 -39.5t-25.5 -15t-29.5 -1.5h-34
v-136z" />
    <glyph glyph-name="four" unicode="4" 
d="M417 -6v68h-253v65h-75v187l291 392h273v-65h75v-320h10v-65h75v-194h-85v-133h-236v65h-75zM423 0h224v133h85v182h-85v385h-264l-288 -388v-179h328v-133zM437 315h-138l138 193v-193z" />
    <glyph glyph-name="five" unicode="5" 
d="M684 641h75v-194h-179q60 -22 97 -75q57 -28 85.5 -81t28.5 -112q0 -40 -15 -81.5t-49.5 -84.5t-104 -70.5t-165.5 -27.5q-164 0 -272 59l5 33q-41 11 -80 32l27 191h13q85 -63 176 -63q71 0 102 24t23 62q-25 5 -61 5q-72 0 -149 -21h-20l16 79q-35 -4 -71 -14h-20
l84 404h454v-65zM678 518v182h-443l-82 -392h12q82 21 150 21q44 0 75 -8.5t44.5 -23t18.5 -26t5 -23.5q0 -87 -132 -87q-88 0 -178 63h-6l-25 -182q108 -56 265 -56q83 0 148 22.5t103 60t57.5 82t19.5 93.5t-20 91.5t-59.5 76t-108 47.5t-157.5 1l11 58h302z" />
    <glyph glyph-name="six" unicode="6" 
d="M359 706h286l-48 -65h123l-136 -183q63 -24 104 -78q117 -65 117 -211q0 -113 -82.5 -183.5t-233.5 -70.5q-81 0 -143 21.5t-113 84.5q-129 78 -129 234q0 93 67 187zM480 237q-54 -14 -53 -70q54 15 53 70zM362 700l-186 -261q-66 -91 -66 -184q0 -129 86 -199t218 -70
q143 0 226.5 67.5t83.5 180.5q0 115 -76.5 180t-188.5 51l174 235h-271zM416 161q-32 0 -51 21t-19 53q0 31 19 52t51 21q36 0 53 -23t17 -50q0 -28 -17 -51t-53 -23z" />
    <glyph glyph-name="seven" unicode="7" 
d="M137 -6l230 446h-175v65h-75v201h645l-30 -65h105l-338 -712h-287l34 65h-109zM147 0h273l333 700h-630v-189h287z" />
    <glyph glyph-name="eight" unicode="8" 
d="M239 370l-4 6q-96 46 -96 151q0 95 81.5 144t196.5 49q172 0 249 -102q104 -56 104 -156q0 -79 -42 -113q-12 -10 -40 -28q-9 -7 -9.5 -7.5t5.5 2.5l19 -25q51 -23 77 -67t26 -97q0 -27 -7 -53t-28 -56t-54 -52t-91 -36.5t-134 -14.5q-109 0 -173 25.5t-107 79.5
q-109 64 -109 172q0 55 30.5 104.5t105.5 73.5zM481 214q-50 -13 -53 -56q50 13 53 56zM573 370v2q45 14 80.5 52t35.5 103q0 88 -77 137.5t-195 49.5t-195 -49.5t-77 -137.5q0 -65 35.5 -103t80.5 -52v-2q-19 -5 -36.5 -11.5t-39.5 -21t-38 -33t-27 -48t-11 -64.5
q0 -24 5.5 -47.5t25 -53.5t51 -52t90.5 -37.5t136 -15.5t136 15.5t90.5 37.5t51 52t25 53.5t5.5 47.5q0 35 -11 64.5t-27 48t-38 33t-39.5 21t-36.5 11.5zM417 439q-25 0 -40 15.5t-15 38.5q0 30 18 42.5t37 12.5q8 0 18.5 -2.5t23.5 -16t13 -36.5t-15 -38.5t-40 -15.5z
M417 152q-29 0 -49.5 17.5t-20.5 49.5t20.5 49t49.5 17t49.5 -17t20.5 -49t-20.5 -49.5t-49.5 -17.5z" />
    <glyph glyph-name="nine" unicode="9" 
d="M175 -6l147 184q-62 26 -101 77q-117 65 -117 211q0 113 82.5 183.5t233.5 70.5q80 0 142 -21.5t113 -84.5q43 -25 71.5 -59.5t40 -69t15 -56.5t3.5 -43q0 -108 -72 -209l-176 -248h-307l52 65h-127zM482 468q-25 -4 -39.5 -24t-13.5 -46q53 13 53 70zM479 0l174 245
q71 98 71 206q0 113 -79 188t-225 75q-143 0 -226.5 -67.5t-83.5 -180.5q0 -115 76.5 -180t188.5 -51l-188 -235h292zM418 539q32 0 51 -21t19 -52q0 -32 -19 -53t-51 -21q-36 0 -53 23t-17 51q0 27 17 50t53 23z" />
    <glyph glyph-name="colon" unicode=":" horiz-adv-x="459" 
d="M138 392q0 50 36.5 82.5t95.5 32.5q90 0 125 -72q34 -12 58 -39t24 -69q0 -56 -39 -85t-93 -29q-94 0 -125 73q-38 11 -60 39t-22 67zM138 91q0 50 36.5 82.5t95.5 32.5q90 0 125 -72q34 -12 58 -39t24 -69q0 -49 -36.5 -81.5t-95.5 -32.5q-90 0 -125 71q-34 12 -58 39
t-24 69zM144 392q0 -52 37.5 -80t88.5 -28t88.5 28t37.5 80t-37.5 80.5t-88.5 28.5t-88.5 -28.5t-37.5 -80.5zM144 91q0 -52 37.5 -80t88.5 -28t88.5 28t37.5 80t-37.5 80.5t-88.5 28.5t-88.5 -28.5t-37.5 -80.5z" />
    <glyph glyph-name="semicolon" unicode=";" horiz-adv-x="480" 
d="M194 392q0 50 36.5 82.5t95.5 32.5q90 0 125 -72q34 -12 58 -39t24 -69q0 -56 -39 -85t-93 -29q-94 0 -125 73q-38 11 -60 39t-22 67zM101 -146l102 327h252l-37 -65h112l-189 -327h-165l20 65h-95zM200 392q0 -52 37.5 -80t88.5 -28t88.5 28t37.5 80t-37.5 80.5
t-88.5 28.5t-88.5 -28.5t-37.5 -80.5zM109 -140h154l182 315h-238z" />
    <glyph glyph-name="less" unicode="&#x3c;" horiz-adv-x="581" 
d="M537 498l75 37v-114l-254 -121l179 -86v-29l75 -36v-114l-412 206v28l-75 37v88l412 206v-102zM239 350l292 140v100l-400 -200v-80l400 -200v100z" />
    <glyph glyph-name="equal" unicode="=" horiz-adv-x="725" 
d="M124 204v117h75v51h-75v117h558v-65h75v-117h-75v-51h75v-117h-558v65h-75zM130 210h546v105h-546v-105zM130 378h546v105h-546v-105z" />
    <glyph glyph-name="greater" unicode="&#x3e;" horiz-adv-x="581" 
d="M379 335l-179 86v29l-75 36v114l412 -206v-28l75 -37v-88l-412 -206v102l-75 -37v114zM423 350l-292 -140v-100l400 200v80l-400 200v-100z" />
    <glyph glyph-name="question" unicode="?" horiz-adv-x="638" 
d="M240 232v191h-86q2 29 7 54h-82q0 41 11.5 80t38 78.5t81.5 64t131 24.5q167 0 235 -100q38 -18 63.5 -47t35 -59.5t13 -49.5t3.5 -35q0 -100 -50 -153.5t-118 -57.5v-55h-76q12 -14 22 -33q34 -12 58 -39t24 -69q0 -49 -36.5 -81.5t-95.5 -32.5q-90 0 -125 71
q-34 12 -58 39t-24 69q0 50 31 78t72 35v28h-75zM246 238h196v55q77 1 122.5 59t45.5 146q0 102 -72.5 161t-196.5 59q-67 0 -117.5 -21t-76 -48t-40.5 -64.5t-18.5 -59t-3.5 -42.5h218v8q0 16 10.5 33.5t35.5 17.5q27 0 39 -17.5t12 -40.5q0 -67 -81 -67h-73v-179zM218 91
q0 -52 37.5 -80t88.5 -28t88.5 28t37.5 80t-37.5 80.5t-88.5 28.5t-88.5 -28.5t-37.5 -80.5z" />
    <glyph glyph-name="at" unicode="@" horiz-adv-x="998" 
d="M750 536l-14 -65h89l-50 -231q73 38 73 130q0 102 -60 180q-81 43 -179 43q-122 0 -212.5 -80.5t-90.5 -217.5q0 -118 69 -206q77 -45 169 -45q84 0 159 49l38 -81l37 16l38 -81q-88 -58 -197 -58q-207 0 -310 123q-16 10 -30 20.5t-42 41t-47.5 64.5t-35 91t-15.5 121
q0 173 114 284.5t281 111.5q209 0 320 -131q83 -51 122 -136t39 -174q0 -72 -37.5 -124.5t-91 -76t-112.5 -23.5q-60 0 -101 58q-55 -58 -116 -58q-104 0 -147 75q-94 38 -94 150q0 95 69.5 167t160.5 72q52 0 81 -38l6 29h117zM599 371q-64 -24 -69 -110q58 26 69 110z
M743 530h-105l-9 -42q-24 51 -83 51q-89 0 -156.5 -70.5t-67.5 -162.5q0 -78 48.5 -116t110.5 -38q64 0 118 62q38 -62 101 -62q58 0 109.5 22.5t88 74t36.5 121.5q0 44 -11 91t-40 98t-72.5 90.5t-115 65t-161.5 25.5q-165 0 -277 -109.5t-112 -280.5q0 -78 25 -147
t73 -124t125.5 -87t175.5 -32q104 0 189 54l-33 70q-71 -46 -156 -46q-58 0 -113 19.5t-102 57.5t-75.5 101.5t-28.5 143.5q0 127 84.5 215.5t224.5 88.5q136 0 228 -78.5t92 -215.5q0 -61 -35 -102.5t-94 -41.5q-48 0 -38 48zM502 250q-53 0 -53 68q0 47 24.5 87t70.5 40
q61 0 61 -74q0 -36 -26.5 -78.5t-76.5 -42.5z" />
    <glyph glyph-name="A" unicode="A" horiz-adv-x="872" 
d="M65 -6l254 712h316l23 -65h52l252 -712h-300l-17 65h-58l-10 37h-108l-28 -102h-301l24 65h-99zM74 0h287l28 102h175l28 -102h287l-248 700h-308zM428 277l49 178l48 -178h-97z" />
    <glyph glyph-name="B" unicode="B" horiz-adv-x="822" 
d="M138 -6v712h401q147 0 202 -87q46 -20 73.5 -64t27.5 -98q0 -86 -89 -136q9 -11 18 -24q35 -17 58.5 -43t32 -53t11 -42t2.5 -29q0 -84 -61 -142.5t-181 -58.5h-420v65h-75zM144 0h414q69 0 118.5 20t73 51.5t34 62t10.5 61.5q0 70 -43 119t-112 60v2q49 14 85.5 52.5
t36.5 93.5q0 20 -3.5 39.5t-17 46t-36 46t-65.5 33t-100 13.5h-395v-700zM424 434v98h26q62 0 62 -49t-62 -49h-26zM424 168v105h34q70 0 70 -52q0 -53 -70 -53h-34z" />
    <glyph glyph-name="C" unicode="C" horiz-adv-x="726" 
d="M697 280v-116q44 19 75 52v-263q-85 -45 -194 -45q-195 0 -310 129q-76 48 -118.5 129t-42.5 184q0 93 35.5 167t93 118.5t125 68t138.5 23.5q120 0 198 -56v-28q41 -13 75 -37v-265q-31 43 -75 64t-86 21q-92 0 -129.5 -66t-4.5 -143q56 -16 115 1t105 62zM691 22v245
q-71 -64 -156 -64q-68 0 -110.5 37.5t-42.5 102.5q0 67 39.5 110.5t114.5 43.5q40 0 82.5 -18.5t72.5 -55.5v245q-76 53 -192 53q-69 0 -136 -23t-123.5 -66.5t-91.5 -117t-35 -164.5q0 -167 109 -269t281 -102q106 0 188 43z" />
    <glyph glyph-name="D" unicode="D" horiz-adv-x="876" 
d="M138 -6v712h332q222 0 302 -117q153 -93 153 -304q0 -154 -96 -255t-284 -101h-332v65h-75zM505 426v-207q67 32 67 131q0 42 -12 71q-20 5 -39 5h-16zM144 0h326q185 0 279.5 99t94.5 251q0 51 -10 97t-36 93.5t-67 82t-108 56t-153 21.5h-326v-700zM424 203v294h22
q61 0 96.5 -37t35.5 -110q0 -39 -11 -68t-25.5 -44t-35 -23.5t-33.5 -10t-27 -1.5h-22z" />
    <glyph glyph-name="E" unicode="E" horiz-adv-x="676" 
d="M138 -6v712h502v-65h75v-215h-96v-47h75v-180h-54v-55h75v-215h-502v65h-75zM144 0h490v203h-210v67h189v168h-189v59h210v203h-490v-700z" />
    <glyph glyph-name="F" unicode="F" horiz-adv-x="662" 
d="M138 -6v712h502v-65h75v-215h-210v-7h114v-65h75v-201h-189v-224h-292v65h-75zM144 0h280v224h189v189h-189v84h210v203h-490v-700z" />
    <glyph glyph-name="G" unicode="G" horiz-adv-x="943" 
d="M492 253v142q-32 -50 -32 -114q0 -54 22 -92q42 -14 85 -3v67h-75zM992 361v-90q0 -73 -20 -132t-49.5 -95.5t-71.5 -64t-78 -40.5t-76.5 -21t-60 -9t-35.5 -1q-223 0 -335 132q-79 49 -119 128.5t-40 176.5q0 176 113.5 279t302.5 103q200 0 307 -123q71 -43 115 -121
l-113 -57h85v-65h75zM526 426h161q-34 21 -79 21t-82 -21zM498 420v-161h147q-2 -37 -33 -60.5t-80 -23.5q-73 0 -113 50t-40 121q0 79 42 125.5t112 46.5q87 0 125 -70l204 102q-102 171 -339 171q-106 0 -187.5 -32t-128.5 -86.5t-70.5 -119.5t-23.5 -138
q0 -163 111 -264.5t302 -101.5q183 0 284 98t101 259v84h-413z" />
    <glyph glyph-name="H" unicode="H" horiz-adv-x="907" 
d="M138 -6v712h292v-65h75v-176h53v241h292v-65h75v-712h-292v65h-75v191h-53v-256h-292v65h-75zM144 0h280v256h140v-256h280v700h-280v-241h-140v241h-280v-700z" />
    <glyph glyph-name="I" unicode="I" horiz-adv-x="487" 
d="M138 -6v712h292v-65h75v-712h-292v65h-75zM144 0h280v700h-280v-700z" />
    <glyph glyph-name="J" unicode="J" horiz-adv-x="648" 
d="M306 706h292v-65h75v-464q0 -16 -0.5 -29t-6 -43t-15 -52.5t-30 -51.5t-48.5 -48t-73.5 -32t-102.5 -13q-144 0 -231 106q-56 35 -93 88l129 148q16 -62 62 -62q21 0 31.5 14.5t10.5 36.5v467zM312 700v-461q0 -27 -13 -42t-35 -15q-46 0 -64 56l-119 -136
q84 -123 241 -123q56 0 100.5 12.5t72 31t47.5 46.5t29.5 50t14.5 51.5t5.5 42t0.5 29.5v458h-280z" />
    <glyph glyph-name="K" unicode="K" horiz-adv-x="886" 
d="M138 -6v712h292v-65h75v-50l71 115h322l-47 -65h122l-243 -338l249 -374h-337l-35 65h-40l-62 113v-178h-292v65h-75zM144 0h280v266l147 -266h322l-245 368l238 332h-307l-155 -252v252h-280v-700z" />
    <glyph glyph-name="L" unicode="L" horiz-adv-x="634" 
d="M138 -6v712h292v-65h75v-432h121v-65h75v-215h-488v65h-75zM144 0h476v203h-196v497h-280v-700z" />
    <glyph glyph-name="M" unicode="M" horiz-adv-x="1139" 
d="M840 84l-45 -155h-220l-18 65h-57l-36 125l-17 -190h-284l9 65h-84l100 712h318l17 -65h58l58 -212l75 277h318l9 -65h66l100 -712h-284l-6 65h-69zM715 0l106 364l32 -364h272l-98 700h-308l-109 -399l-109 399h-308l-98 -700h272l32 364l106 -364h210z" />
    <glyph glyph-name="N" unicode="N" horiz-adv-x="921" 
d="M138 -6v712h273l36 -65h39l100 -179v244h278v-65h75v-712h-269l-36 65h-39l-104 186v-251h-278v65h-75zM144 0h266v336l189 -336h259v700h-266v-329l-185 329h-263v-700z" />
    <glyph glyph-name="O" unicode="O" horiz-adv-x="956" 
d="M841 596q76 -46 120 -127.5t44 -183.5q0 -74 -25.5 -140.5t-75 -120t-129.5 -85t-181 -31.5q-213 0 -323 131q-76 46 -120 127.5t-44 183.5q0 74 25.5 140.5t75 120t130 85t181.5 31.5q210 0 322 -131zM519 209q48 0 89.5 33.5t41.5 107.5q0 37 -15 70q-71 21 -122 -20
t-51 -115q0 -37 15 -70q21 -6 42 -6zM519 -21q99 0 178 31t127.5 84t74 118.5t25.5 137.5t-25.5 137.5t-74 118.5t-127.5 84t-178 31q-100 0 -179 -31t-127.5 -84t-74 -118t-25.5 -138t25.5 -138t74 -118t127.5 -84t179 -31zM519 203q-57 0 -97.5 38.5t-40.5 108.5
t40.5 108.5t97.5 38.5t97 -38.5t40 -108.5t-40 -108.5t-97 -38.5z" />
    <glyph glyph-name="P" unicode="P" horiz-adv-x="816" 
d="M138 -6v712h371q72 0 132 -19t105 -79q60 -34 91.5 -89.5t31.5 -124.5q0 -108 -72.5 -178t-212.5 -70h-79v-217h-292v65h-75zM144 0h280v217h85q79 0 136.5 23t87 61t42.5 77t13 81t-13 80.5t-42 76.5t-87 61t-137 23h-365v-700zM424 518h31q67 0 67 -59q0 -60 -67 -60
h-31v119z" />
    <glyph glyph-name="Q" unicode="Q" horiz-adv-x="956" 
d="M767 -86l-14 17q-65 -23 -160 -23q-212 0 -322 131q-76 46 -120 127.5t-44 183.5q0 74 25.5 140.5t75 120t129.5 85t181 31.5q213 0 325 -131q76 -48 119 -128t43 -183q0 -140 -82 -240l97 -112l-178 -84l-59 72zM492 257l154 57q12 52 -11 106q-76 23 -124.5 -21
t-48.5 -114q0 -37 15 -70q29 -8 56 -6zM935 0l-95 110q84 99 84 240q0 171 -114 271t-292 100q-99 0 -178 -31t-127.5 -84t-74 -118.5t-25.5 -137.5q0 -73 25.5 -138.5t74 -118t127.5 -83.5t178 -31q101 0 178 31l73 -89zM502 254l43 -49q-65 -10 -114.5 28.5t-49.5 116.5
q0 70 40 108.5t97 38.5q69 0 110.5 -54t22.5 -134z" />
    <glyph glyph-name="R" unicode="R" horiz-adv-x="837" 
d="M138 -6v712h394q156 0 228 -98q113 -58 113 -202q0 -72 -30.5 -118.5t-98.5 -82.5l179 -276h-336l-28 65h-47l-7 17v-82h-292v65h-75zM144 0h280v217l92 -217h321l-177 273q66 30 99 77t33 121q0 54 -18 96t-45 66.5t-63 40t-68.5 21t-65.5 5.5h-388v-700zM424 518h28
q74 0 74 -66q0 -67 -74 -67h-28v133z" />
    <glyph glyph-name="S" unicode="S" horiz-adv-x="722" 
d="M675 653l-11 -21q40 -15 86 -44l-86 -164q-82 44 -132 44q-36 0 -55 -17q80 -21 121 -43t68 -62q109 -54 109 -180q0 -120 -88 -189t-231 -69q-151 0 -301 118l7 10q-40 22 -82 55l113 166q97 -83 176 -83q41 0 51 23q-129 27 -191 106q-109 60 -109 174q0 105 75 177.5
t218 72.5q151 0 262 -74zM586 497l81 154q-105 70 -254 70q-140 0 -213.5 -71t-73.5 -173q0 -32 9 -59.5t20.5 -46t34 -35.5t36.5 -25.5t41 -18.5t35 -12.5t31 -8.5q27 -7 37 -10t27.5 -11t24 -18t6.5 -24q0 -40 -59 -40q-75 0 -175 80l-106 -156q147 -113 293 -113
q141 0 227 67.5t86 184.5q0 83 -45 129t-124 71q-16 5 -39.5 11t-37.5 9.5t-28.5 9.5t-21 15t-6.5 22q0 41 65 41q50 0 129 -42z" />
    <glyph glyph-name="T" unicode="T" horiz-adv-x="669" 
d="M229 -6v432h-72v65h-75v215h586v-65h75v-215h-147v-497h-292v65h-75zM235 0h280v497h147v203h-574v-203h147v-497z" />
    <glyph glyph-name="U" unicode="U" horiz-adv-x="907" 
d="M131 706h292v-65h75v-419l1 -34q66 3 66 99v419h292v-65h75v-410q0 -20 -1 -36t-8 -51.5t-20 -63.5t-40 -62t-64 -56.5t-96.5 -38t-133.5 -15.5q-96 0 -178 29t-122 88q-45 27 -75 62.5t-42.5 75t-16.5 69t-4 64.5v410zM137 700v-404q0 -33 4 -64.5t25 -80.5t56 -84
t105.5 -61.5t166.5 -26.5t166.5 26.5t105.5 61.5t56 84t25 80.5t4 64.5v404h-280v-413q0 -105 -77 -105t-77 105v413h-280z" />
    <glyph glyph-name="V" unicode="V" horiz-adv-x="863" 
d="M855 641h99l-257 -712h-300l-24 65h-51l-257 712h296l20 -65h55l64 -216l83 281h296zM618 0l252 700h-283l-115 -392l-115 392h-283l252 -700h292z" />
    <glyph glyph-name="W" unicode="W" horiz-adv-x="1229" 
d="M702 205l-78 -276h-272l-20 65h-55l-211 712h314l14 -65h61l29 -132l51 197h240l17 -65h58l36 -138l44 203h314l-19 -65h94l-211 -712h-272l-18 65h-57zM655 392l111 -392h263l207 700h-301l-75 -343l-90 343h-230l-90 -343l-75 343h-301l207 -700h263z" />
    <glyph glyph-name="X" unicode="X" horiz-adv-x="878" 
d="M533 59l-72 -130h-323l44 65h-119l253 374l-228 338h334l30 -65h45l5 -12l36 77h321l-43 -65h118l-217 -328l254 -384h-330l-33 65h-42zM480 175l90 -175h315l-250 378l213 322h-306l-62 -133l-62 133h-319l224 -332l-249 -368h308z" />
    <glyph glyph-name="Y" unicode="Y" horiz-adv-x="781" 
d="M285 -6v296l-221 416h294l27 -65h48l31 -73l54 138h280l-35 -65h110l-221 -416v-296h-292v65h-75zM291 0h280v291l217 409h-266l-81 -206l-87 206h-280l217 -409v-291z" />
    <glyph glyph-name="Z" unicode="Z" horiz-adv-x="781" 
d="M63 -6l268 432h-139v65h-75v215h682l-40 -65h115l-262 -432h154v-65h75v-215h-703l41 65h-116zM74 0h686v203h-273l301 497h-665v-203h259z" />
    <glyph glyph-name="bracketleft" unicode="[" horiz-adv-x="424" 
d="M416 -150h75v-117h-285v65h-75v943h285v-65h75v-117h-105v-644h30v-65zM410 -196v105h-105v721h105v105h-273v-931h273z" />
    <glyph glyph-name="backslash" unicode="\" horiz-adv-x="593" 
d="M236 676h50l370 -957h-118l-25 65h-50l-370 957h118zM572 -210l-365 945h-105l365 -945h105z" />
    <glyph glyph-name="bracketright" unicode="]" horiz-adv-x="424" 
d="M89 741h285v-65h75v-943h-285v65h-75v117h105v644h-30v65h-75v117zM95 735v-105h105v-721h-105v-105h273v931h-273z" />
    <glyph glyph-name="asciicircum" unicode="^" horiz-adv-x="661" 
d="M435 558l-106 -129h-145l50 65h-125l165 212h194l51 -65h24l165 -212h-145l-53 65h-22zM371 646l120 -146h130l-156 200h-188l-156 -200h130z" />
    <glyph glyph-name="underscore" unicode="_" horiz-adv-x="581" 
d="M75 -104h512v-65h75v-112h-512v65h-75v112zM81 -110v-100h500v100h-500z" />
    <glyph glyph-name="grave" unicode="`" horiz-adv-x="414" 
d="M35 706h231l50 -65h25l132 -173h-134l-229 173h11zM53 700l213 -161h120l-123 161h-210z" />
    <glyph glyph-name="a" unicode="a" horiz-adv-x="762" 
d="M712 489v-65h75v-495h-229v39q-60 -60 -151 -60q-108 0 -173 90q-129 71 -129 244q0 114 63.5 191t163.5 77q92 0 151 -61v40h229zM412 153q45 0 64.5 35.5t11.5 76.5q-41 0 -63 -32.5t-14 -79.5h1zM706 483h-217v-52q-58 73 -157 73q-98 0 -159.5 -74.5t-61.5 -187.5
q0 -122 66 -192.5t155 -70.5q97 0 157 71v-50h217v483zM412 147q-37 0 -60.5 26t-23.5 69q0 42 23.5 68t60.5 26t60.5 -26t23.5 -68q0 -43 -23.5 -69t-60.5 -26z" />
    <glyph glyph-name="b" unicode="b" horiz-adv-x="762" 
d="M367 741v-65h75v-176q76 23 140 -3t104 -78q127 -72 127 -242q0 -123 -67.5 -196t-159.5 -73q-88 0 -151 60v-39h-229v65h-75v747h236zM430 153q45 -1 64.5 35t12.5 77q-41 0 -63 -32.5t-14 -79.5zM361 735h-224v-735h217v50q60 -71 157 -71q89 0 155 71.5t66 191.5
q0 125 -67 193.5t-154 68.5q-92 0 -150 -64v295zM431 147q-37 0 -60.5 26t-23.5 69q0 42 23.5 68t60.5 26t60.5 -26t23.5 -68q0 -43 -23.5 -69t-60.5 -26z" />
    <glyph glyph-name="c" unicode="c" horiz-adv-x="553" 
d="M531 211v-106q36 9 75 41v-201q-70 -37 -157 -37q-134 0 -214 98q-130 77 -130 236q0 112 74 190t195 78q76 0 157 -37v-38q35 -9 75 -27v-207q-52 50 -111 50q-47 0 -67 -25.5t-19 -57.5q62 -7 122 43zM525 14v185q-51 -38 -97 -38q-41 0 -70.5 19.5t-29.5 56.5
q0 41 27 63t65 22q53 0 105 -43v190q-80 35 -151 35q-119 0 -191 -75.5t-72 -186.5q0 -118 75 -190.5t188 -72.5q81 0 151 35z" />
    <glyph glyph-name="d" unicode="d" horiz-adv-x="762" 
d="M712 741v-65h75v-747h-229v40q-65 -61 -151 -61q-109 0 -174 90q-19 10 -36.5 25t-40.5 43t-37 73.5t-14 102.5q0 127 69 197.5t158 70.5q87 0 144 -54v285h236zM413 153q45 1 64 35.5t11 76.5q-45 1 -64.5 -35t-12.5 -77h2zM706 735h-224v-295q-58 64 -150 64
q-87 0 -154 -68t-67 -194q0 -118 63 -190.5t158 -72.5t157 71v-50h217v735zM413 147q-38 0 -61.5 26t-23.5 69q0 42 23.5 68t61.5 26t60.5 -26t22.5 -68q0 -43 -22.5 -69t-60.5 -26z" />
    <glyph glyph-name="e" unicode="e" horiz-adv-x="701" 
d="M638 88h106q-24 -78 -94 -129t-191 -51q-150 0 -227 100q-42 24 -70.5 59t-39 72t-14 59.5t-3.5 43.5q0 120 78 194t208 74q78 0 130.5 -22.5t96.5 -76.5q143 -84 134 -286h-93q-8 -18 -21 -37zM318 196h353q1 36 -3.5 72t-22 80.5t-46.5 77.5t-83 55.5t-125 22.5
q-128 0 -204 -72.5t-76 -189.5q0 -112 68.5 -187.5t204.5 -75.5q110 0 180.5 46t96.5 122h-200q-12 -42 -66 -42q-38 0 -58 27.5t-19 63.5zM468 294h-147q2 33 21.5 58.5t52.5 25.5q35 0 54 -25t19 -59z" />
    <glyph glyph-name="f" unicode="f" horiz-adv-x="473" 
d="M145 -6v315h-63v180h63v89q0 92 58.5 132.5t153.5 40.5q55 0 115 -11v-55q71 -9 75 -10v-182q-28 13 -51 13q-25 0 -33 -17h9v-65h75v-180h-91v-315h-236v65h-75zM151 0h224v315h91v168h-91v30q0 64 46 64q20 0 45 -10v168q-60 10 -109 10q-206 0 -206 -167v-95h-63v-168
h63v-315z" />
    <glyph glyph-name="g" unicode="g" horiz-adv-x="755" 
d="M705 489v-65h75v-475q0 -54 -18.5 -96.5t-50.5 -67t-65 -40.5t-73 -22.5t-62 -8.5t-43 -2q-80 0 -136 11t-112 40l15 30q-51 16 -90 36l77 145q78 -57 168 -42q-94 5 -158 89q-65 36 -96 99.5t-31 140.5q0 82 36.5 140.5t87 83.5t106.5 25q86 0 141 -58v37h229zM411 160
q45 3 61 35t9 70q-36 -2 -57.5 -30t-12.5 -75zM699 483h-217v-49q-52 70 -147 70q-87 0 -155.5 -62.5t-68.5 -180.5q0 -111 63.5 -186t171.5 -75q81 0 136 52v-17q0 -53 -32.5 -82.5t-95.5 -29.5q-70 0 -130 42l-71 -134q97 -48 240 -48q82 0 143 19.5t91 45t47.5 61.5
t21 58.5t3.5 46.5v469zM409 154q-33 0 -57 23t-24 68t24 68t57 23q30 0 55 -20.5t25 -70.5t-25 -70.5t-55 -20.5z" />
    <glyph glyph-name="h" unicode="h" horiz-adv-x="732" 
d="M131 -6v747h236v-65h75v-178q27 12 68 12q102 0 148 -78q106 -44 106 -215v-288h-236v65h-75v246q-11 -22 -11 -60v-251h-236v65h-75zM137 0h224v245q0 43 16 67t41 24q41 0 41 -63v-273h224v282q0 222 -173 222q-95 0 -149 -77v308h-224v-735z" />
    <glyph glyph-name="i" unicode="i" horiz-adv-x="417" 
d="M131 489h97q-19 22 -26 38q-39 13 -62 44.5t-23 65.5q0 49 39 83.5t93 34.5q39 0 72 -19.5t50 -53.5q39 -13 62 -44.5t23 -65.5q0 -35 -23 -66.5t-66 -45.5v-36h75v-495h-236v65h-75v495zM137 483v-483h224v483h-224zM123 637q0 -47 37.5 -79.5t88.5 -32.5t88.5 32.5
t37.5 79.5t-37.5 79.5t-88.5 32.5t-88.5 -32.5t-37.5 -79.5z" />
    <glyph glyph-name="j" unicode="j" horiz-adv-x="417" 
d="M131 489h97q-19 22 -26 38q-39 13 -62 44.5t-23 65.5q0 49 39 83.5t93 34.5q39 0 72 -19.5t50 -53.5q39 -13 62 -44.5t23 -65.5q0 -35 -23 -66.5t-66 -45.5v-36h75v-691h-236v65h-75v691zM137 483v-679h224v679h-224zM123 637q0 -47 37.5 -79.5t88.5 -32.5t88.5 32.5
t37.5 79.5t-37.5 79.5t-88.5 32.5t-88.5 -32.5t-37.5 -79.5z" />
    <glyph glyph-name="k" unicode="k" horiz-adv-x="743" 
d="M131 -6v747h236v-65h75v-236l31 49h267l-51 -65h126l-182 -233l207 -262h-278l-42 65h-33l-45 69v-134h-236v65h-75zM137 0h224v200l129 -200h263l-203 256l178 227h-252l-115 -185v437h-224v-735z" />
    <glyph glyph-name="l" unicode="l" horiz-adv-x="417" 
d="M131 -6v747h236v-65h75v-747h-236v65h-75zM137 0h224v735h-224v-735z" />
    <glyph glyph-name="m" unicode="m" horiz-adv-x="1012" 
d="M131 -6v495h222v-44q66 65 150 65q91 0 133 -75l-3 1q33 39 69.5 56.5t88.5 17.5q98 0 148 -79q63 -28 84 -81t21 -133v-288h-222v65h-75v246q-11 -22 -11 -60v-251h-222v65h-75v246q-11 -22 -11 -60v-251h-222v65h-75zM137 0h210v245q0 43 16 67t41 24q41 0 41 -63v-273
h210v245q0 43 16 67t41 24q41 0 41 -63v-273h210v282q0 222 -172 222q-98 0 -157 -77q-44 77 -131 77q-100 0 -156 -77v56h-210v-483z" />
    <glyph glyph-name="n" unicode="n" horiz-adv-x="732" 
d="M131 -6v495h236v-43q37 35 69 49.5t74 14.5q102 0 148 -78q106 -44 106 -215v-288h-236v65h-75v246q-11 -22 -11 -60v-251h-236v65h-75zM137 0h224v245q0 43 16 67t41 24q41 0 41 -63v-273h224v282q0 222 -173 222q-95 0 -149 -77v56h-224v-483z" />
    <glyph glyph-name="o" unicode="o" horiz-adv-x="725" 
d="M403 510q168 0 246 -104q63 -34 95 -96t32 -133q0 -115 -75 -192t-223 -77q-168 0 -246 104q-64 34 -95.5 95.5t-31.5 134.5q0 115 75 191.5t223 76.5zM472 251q-66 -7 -63 -84q66 7 63 84zM403 504q-145 0 -218.5 -75t-73.5 -187t74 -187.5t218 -75.5t218 75.5t74 187.5
t-73.5 187t-218.5 75zM403 161q-39 0 -57 25.5t-18 55.5q0 29 18 54.5t57 25.5t57 -25.5t18 -54.5q0 -30 -18 -55.5t-57 -25.5z" />
    <glyph glyph-name="p" unicode="p" horiz-adv-x="762" 
d="M131 -202v691h229v-40q60 61 151 61q107 0 175 -91q127 -72 127 -242q0 -123 -67.5 -196t-159.5 -73q-87 0 -144 54v-229h-236v65h-75zM431 153q45 0 64.5 35.5t11.5 76.5q-41 0 -63 -32.5t-14 -79.5h1zM137 -196h224v238q58 -63 150 -63q89 0 155 71.5t66 191.5
q0 126 -67 194t-154 68q-101 0 -157 -73v52h-217v-679zM431 147q-37 0 -60.5 26t-23.5 69q0 42 23.5 68t60.5 26t60.5 -26t23.5 -68q0 -43 -23.5 -69t-60.5 -26z" />
    <glyph glyph-name="q" unicode="q" horiz-adv-x="762" 
d="M476 -202v120q-71 -21 -135.5 1t-105.5 79q-130 70 -130 244q0 127 69 197.5t158 70.5q93 0 151 -62v41h229v-65h75v-691h-236v65h-75zM412 153q45 0 64.5 35.5t11.5 76.5q-41 0 -63 -32.5t-14 -79.5h1zM482 -196h224v679h-217v-52q-57 73 -157 73q-87 0 -154 -68.5
t-67 -193.5q0 -120 66 -191.5t155 -71.5q92 0 150 63v-238zM412 147q-37 0 -60.5 26t-23.5 69q0 42 23.5 68t60.5 26t60.5 -26t23.5 -68q0 -43 -23.5 -69t-60.5 -26z" />
    <glyph glyph-name="r" unicode="r" horiz-adv-x="515" 
d="M131 -6v495h229v-49q38 37 73 52t81 11v-74q38 12 75 9v-213q-26 19 -56 19q-45 0 -68 -35.5t-23 -81.5v-198h-236v65h-75zM137 0h224v192q0 51 25.5 87t71.5 36q28 0 50 -14v196q-98 7 -154 -77v63h-217v-483z" />
    <glyph glyph-name="s" unicode="s" horiz-adv-x="567" 
d="M94 28l61 139q81 -51 139 -40q-28 2 -53.5 22t-39.5 48q-31 10 -51 30t-27.5 43t-9.5 36t-2 25q0 86 62 132.5t164 46.5q100 0 196 -48l-15 -30q47 -12 90 -35l-59 -124q-54 34 -100 34q-19 0 -29 -3q72 -16 103 -74q37 -12 63.5 -46.5t26.5 -94.5q0 -17 -2.5 -33.5
t-16 -45.5t-37 -49.5t-71.5 -36.5t-113 -16q-67 0 -110.5 11.5t-93.5 43.5l11 24q-43 12 -86 41zM158 158l-56 -128q81 -51 196 -51q64 0 111 15.5t70 35.5t36 48t15 43.5t2 32.5q0 126 -132 147q-5 1 -16 2.5t-16.5 2.5t-14.5 3t-13.5 4.5t-10 6.5t-7.5 9.5t-2 12.5
t2.5 13.5t15.5 14.5t36 8q45 0 97 -31l54 112q-81 45 -188 45q-109 0 -164.5 -49.5t-55.5 -123.5q0 -60 30.5 -92.5t93.5 -47.5q11 -3 28.5 -6.5t24 -5.5t15 -6t11 -10t2.5 -16q0 -2 -0.5 -4t-3 -7t-7.5 -8.5t-15.5 -6t-24.5 -2.5q-43 0 -113 39z" />
    <glyph glyph-name="t" unicode="t" horiz-adv-x="466" 
d="M145 -6v315h-63v180h63v147h236v-65h75v-82h9v-65h75v-180h-84v-315h-236v65h-75zM151 0h224v315h84v168h-84v147h-224v-147h-63v-168h63v-315z" />
    <glyph glyph-name="u" unicode="u" horiz-adv-x="725" 
d="M124 489h236v-65h75v-244q11 14 11 50v259h236v-65h75v-266q0 -18 -1 -33t-7 -42.5t-16 -48.5t-31 -46t-49.5 -41.5t-73.5 -27.5t-101 -11q-72 0 -141.5 24t-98.5 76q-114 58 -114 215v266zM130 483v-260q0 -27 2 -49t17 -61t41.5 -65.5t81.5 -47.5t131 -21t131 21
t81.5 47.5t41.5 65.5t17 61t2 49v260h-224v-253q0 -69 -49 -69t-49 69v253h-224z" />
    <glyph glyph-name="v" unicode="v" horiz-adv-x="607" 
d="M601 424h100l-187 -495h-190l-25 65h-50l-187 495h224l17 -65h58l12 -44l29 109h224zM435 0l182 483h-210l-63 -231l-63 231h-210l182 -483h182z" />
    <glyph glyph-name="w" unicode="w" horiz-adv-x="901" 
d="M537 26l-26 -97h-175l-26 65h-49l-199 495h230l20 -65h55l15 -46l33 111h152l20 -65h55l14 -45l34 110h230l-26 -65h101l-199 -495h-175l-18 65h-57zM491 217l60 -217h166l194 483h-217l-67 -217l-64 217h-144l-64 -217l-67 217h-217l194 -483h166z" />
    <glyph glyph-name="x" unicode="x" horiz-adv-x="697" 
d="M446 32l-63 -103h-246l50 65h-125l200 262l-179 233h254l31 -65h44l-1 2l30 63h254l-50 -65h125l-179 -233l200 -262h-246l-40 65h-35zM389 137l84 -137h231l-196 256l175 227h-238l-56 -115l-56 115h-238l175 -227l-196 -256h231z" />
    <glyph glyph-name="y" unicode="y" horiz-adv-x="705" 
d="M61 489h266l32 -65h43l41 -84l52 149h229l-28 -65h103l-299 -691h-238l33 65h-108l128 258zM71 483l251 -427l-125 -252h224l294 679h-216l-73 -210l-103 210h-252z" />
    <glyph glyph-name="z" unicode="z" horiz-adv-x="613" 
d="M103 489h514l-42 -65h117l-162 -250h61v-65h75v-180h-521l42 65h-117l160 250h-52v65h-75v180zM109 483v-168h173l-201 -315h504v168h-183l204 315h-497z" />
    <glyph glyph-name="braceleft" unicode="{" horiz-adv-x="564" 
d="M175 190v112q94 3 94 129q0 19 -2 59q-2 38 -2 57q0 49 16.5 84.5t39 53t53.5 27t53 11t43 -0.5v-70q31 5 75 5v-91q-19 -3 -35.5 -9.5t-33.5 -27.5t-17 -53q0 -26 4 -78q3 -44 3 -87t-16 -67.5t-77 -57.5l9 -15q18 -19 35 -29.5t25 -12.5t14.5 -9t8 -21t1.5 -46
q0 -68 -6 -120.5t1 -69.5l9 -2v-23q26 -35 75 -42v-91q-59 -5 -110.5 15.5t-73.5 64.5q-51 23 -73.5 60.5t-22.5 99.5q0 19 2 57q2 40 2 59q0 36 -9 63l-10 2v21q-9 19 -30.5 30.5t-44.5 12.5zM181 296v-100q94 -8 94 -135q0 -19 -2 -59q-2 -38 -2 -57q0 -53 18 -89.5
t48.5 -53t61.5 -22.5t65 -4v80q-86 13 -86 93q0 59 3.5 96t3.5 73q0 21 -3 35t-13 31t-34 31.5t-61 26.5v8q111 29 111 126q0 34 -3.5 77.5t-3.5 87.5q0 46 26.5 68t59.5 27v80q-20 1 -39.5 0t-49 -10t-51 -26t-37.5 -51.5t-16 -81.5q0 -19 2 -47.5t2 -68.5q0 -70 -27 -101
t-67 -34z" />
    <glyph glyph-name="bar" unicode="|" horiz-adv-x="281" 
d="M125 -230v1065h112v-65h75v-1065h-112v65h-75zM131 -224h100v1053h-100v-1053z" />
    <glyph glyph-name="braceright" unicode="}" horiz-adv-x="564" 
d="M470 301v-21q9 -19 30.5 -30.5t44.5 -12.5v-112q-94 -3 -94 -129q0 -19 2 -59q2 -38 2 -57q0 -49 -16.5 -84.5t-39 -53t-53.5 -27t-53 -11t-43 0.5v70q-31 -5 -75 -5v91q19 3 35.5 9.5t33.5 27.5t17 53q0 26 -4 78q-3 43 -3 87q0 43 16 67.5t77 57.5l-9 15
q-84 29 -84 118q0 62 5.5 118.5t-0.5 71.5l-9 2v23q-26 35 -75 42v91q59 5 110.5 -15.5t73.5 -64.5q51 -23 73.5 -60.5t22.5 -99.5q0 -19 -2 -57q-2 -40 -2 -59q0 -36 9 -63zM464 196v100q-94 8 -94 135q0 19 2 59q2 38 2 57q0 53 -18 89.5t-48.5 53t-61.5 22.5t-65 4v-80
q86 -13 86 -93q0 -59 -3.5 -96t-3.5 -73q0 -21 3 -35t13 -31t34 -31.5t61 -26.5v-8q-111 -29 -111 -126q0 -34 3.5 -77.5t3.5 -87.5q0 -46 -26.5 -68t-59.5 -27v-80q20 -1 39.5 0t49 10t51 26t37.5 51.5t16 81.5q0 19 -2 48t-2 68q0 70 27 101t67 34z" />
    <glyph glyph-name="asciitilde" unicode="~" horiz-adv-x="681" 
d="M125 276v116q21 24 53 39t63 15q40 0 147 -40q109 -40 133 -40q61 0 116 58v-119q42 21 75 54v-116q-21 -24 -53 -39t-63 -15q-40 0 -147 40q-109 40 -133 40q-61 0 -116 -58v116q-42 -17 -75 -51zM131 390v-100q52 50 110 50q29 0 135 -40q105 -40 145 -40q62 0 110 50
v100q-52 -50 -110 -50q-29 0 -135 40q-105 40 -145 40q-62 0 -110 -50z" />
    <glyph glyph-name="currency" unicode="&#xa4;" horiz-adv-x="773" 
d="M123 124l73 75q-45 67 -45 151t45 151l-73 75l78 78l70 -69l5 4l5 -5q66 42 146 42q83 0 151 -45l75 73l70 -70l5 5l78 -78l-73 -75q45 -68 45 -151q0 -84 -45 -151l73 -75l-78 -78l-70 69l-5 -4l-5 5q-66 -42 -146 -42q-84 0 -151 45l-75 -73l-70 70l-5 -5zM574 443
q-62 23 -116.5 10.5t-92 -59.5t-37.5 -109q0 -54 27 -93q62 -23 116.5 -10.5t92 59.5t37.5 109q0 54 -27 93zM131 124l70 -70l74 73q68 -47 152 -47t152 47l74 -73l70 70l-73 74q47 68 47 152t-47 152l73 74l-70 70l-74 -73q-68 47 -152 47t-152 -47l-74 73l-70 -70l73 -74
q-47 -68 -47 -152t47 -152zM247 350q0 75 52.5 127.5t127.5 52.5t127.5 -52.5t52.5 -127.5t-52.5 -127.5t-127.5 -52.5t-127.5 52.5t-52.5 127.5z" />
    <glyph glyph-name="section" unicode="&#xa7;" horiz-adv-x="726" 
d="M122 27h179q-56 22 -88 73q-103 49 -103 161q0 110 97 154q-68 43 -68 125q0 80 69.5 137t199.5 57q176 0 239 -95q49 -22 82 -74.5t31 -105.5h-219v13q0 6 -2.5 12.5t-12.5 13t-27 6.5t-26 -5t-16 -20q46 -13 58.5 -16.5t45 -14.5t45.5 -20t31 -24t30 -34
q53 -31 79 -69.5t26 -97.5q0 -104 -85 -149q60 -38 60 -123q0 -74 -73.5 -129t-205.5 -55q-164 0 -231 97q-55 25 -83 76.5t-32 106.5zM356 10q-3 -41 42 -41q27 0 34 23q-42 8 -76 18zM468 269q-50 -13 -53 -56q50 9 53 56zM350 21h-221q3 -38 16.5 -71t41.5 -64t81 -49.5
t125 -18.5q130 0 201.5 53.5t71.5 124.5q0 92 -69 123q38 16 66 53t28 96q0 134 -159 185q-15 5 -41.5 11t-43.5 11t-35.5 12t-27.5 18t-9 26q0 20 13 32t34 12q20 0 31.5 -10.5t11.5 -27.5v-9h214q0 37 -13.5 70t-43 63.5t-84.5 48.5t-130 18q-128 0 -195.5 -55.5
t-67.5 -132.5q0 -84 77 -127q-49 -15 -77.5 -54.5t-28.5 -97.5q0 -83 52.5 -125t146.5 -64q11 -3 31 -7l30 -6t24 -7.5t21 -11.5t12.5 -16t5.5 -24q0 -15 -11.5 -26t-29.5 -11q-48 0 -48 47v11zM404 207q-30 0 -50 18t-20 48q0 29 20 48t50 19t50 -19t20 -48q0 -30 -20 -48
t-50 -18z" />
    <glyph glyph-name="copyright" unicode="&#xa9;" horiz-adv-x="981" 
d="M125 350q0 166 119.5 286t286.5 120q71 0 151 -29.5t149 -104.5q56 -39 95 -88t56 -97t23.5 -83.5t6.5 -68.5q0 -167 -120 -286.5t-286 -119.5q-71 0 -151 29.5t-149 104.5q-56 39 -95 88t-56 97t-23.5 83.5t-6.5 68.5zM757 224v-74q76 88 76 200q0 109 -71 193
q-139 119 -292 27q117 30 212 -31v-33q26 0 75 -32v-132q-54 45 -106 45q-51 0 -86.5 -36t-16.5 -103q74 -9 134 41v-103q47 14 75 38zM596 52q-47 8 -94 32t-66 60q-73 35 -99.5 105t-16.5 145q-6 -20 -9 -41t-6 -68t14.5 -98t53.5 -94q45 -33 115 -42t108 1zM131 350
q0 -165 117.5 -282.5t282.5 -117.5t282.5 117.5t117.5 282.5t-117.5 282.5t-282.5 117.5t-282.5 -117.5t-117.5 -282.5zM223 350q0 128 90 218t218 90q127 0 217.5 -90.5t90.5 -217.5t-90.5 -217.5t-217.5 -90.5q-128 0 -218 90t-90 218zM676 161v116q-49 -36 -100 -36
q-53 0 -83.5 28t-30.5 81q0 55 34 81.5t80 26.5q48 0 100 -39v117q-61 37 -134 37q-97 0 -158 -66.5t-61 -156.5q0 -96 62 -160t157 -64q67 0 134 35z" />
    <glyph glyph-name="guillemotleft" unicode="&#xab;" horiz-adv-x="620" 
d="M278 13l-176 239l176 239l106 -65l-10 -13l44 -27l77 105l106 -65l-10 -13l85 -52l-128 -174l128 -173l-106 -66l-56 77l-19 -12l-146 198l-18 -24l128 -173l-106 -66l-56 77zM280 21l95 60l-126 171l126 172l-95 59l-171 -231zM497 21l95 60l-126 171l126 172l-95 59
l-171 -231z" />
    <glyph glyph-name="logicalnot" unicode="&#xac;" horiz-adv-x="721" 
d="M125 344v112h552v-65h75v-262h-132v65h-75v85h-345v65h-75zM131 350h420v-150h120v250h-540v-100z" />
    <glyph glyph-name="registered" unicode="&#xae;" horiz-adv-x="987" 
d="M128 350q0 166 120 286t286 120q71 0 151 -29.5t149 -104.5q56 -39 95 -88t56 -97t23.5 -83.5t6.5 -68.5q0 -109 -55 -202.5t-148.5 -148.5t-202.5 -55q-71 0 -151 29.5t-149 104.5q-56 39 -95 88t-56 97t-23.5 83.5t-6.5 68.5zM696 244l59 -100q81 87 81 206
q0 110 -69 192q-56 42 -139 44.5t-140 -24.5h67q97 0 137 -73q88 -40 88 -128q0 -47 -23.5 -77.5t-60.5 -39.5zM650 71l-35 66h-41l-6 12v-77h-138v65h-75v313q-48 -80 -48 -165q0 -109 69 -192q51 -38 126.5 -44t147.5 22zM134 350q0 -165 117.5 -282.5t282.5 -117.5
t282.5 117.5t117.5 282.5t-117.5 282.5t-282.5 117.5t-282.5 -117.5t-117.5 -282.5zM226 350q0 128 90 218t218 90t218 -90t90 -218t-90 -218t-218 -90t-218 90t-90 218zM361 143h126v163h5l86 -163h135l-101 170q87 19 87 113q0 57 -37.5 93.5t-106.5 36.5h-194v-413z
M487 388v70h41q25 0 33 -9.5t8 -24.5q0 -18 -9.5 -27t-21.5 -9h-51z" />
    <glyph glyph-name="degree" unicode="&#xb0;" horiz-adv-x="417" 
d="M131 609q0 49 34.5 83.5t83.5 34.5q35 0 64 -19t44 -51q39 -11 62 -43t23 -70q0 -49 -34.5 -83.5t-83.5 -34.5q-35 0 -64 19t-44 51q-39 11 -62 43t-23 70zM289 498q16 -11 35 -11q24 0 40.5 16.5t16.5 40.5q0 25 -16 42q-15 -65 -76 -88zM137 609q0 -47 32.5 -79.5
t79.5 -32.5t79.5 32.5t32.5 79.5t-32.5 79.5t-79.5 32.5t-79.5 -32.5t-32.5 -79.5zM186 609q0 24 17.5 43.5t45.5 19.5q27 0 45 -18t18 -45t-18 -45t-45 -18q-29 0 -46 20t-17 43z" />
    <glyph glyph-name="plusminus" unicode="&#xb1;" horiz-adv-x="721" 
d="M677 431h75v-112h-220v-163h145v-65h75v-112h-552v65h-75v112h295v48h-75v115h-145v65h-75v112h220v190h112v-65h75v-125h145v-65zM451 210v180h220v100h-220v190h-100v-190h-220v-100h220v-180h100zM131 50h540v100h-540v-100z" />
    <glyph glyph-name="mu" unicode="&#xb5;" horiz-adv-x="774" 
d="M131 489h236v-65h75v-251l2 -19q51 16 51 84v251h236v-65h75v-495h-215v29q-36 -36 -78 -36q-39 0 -71 27v-216h-236v65h-75v691zM137 483v-679h224v231q26 -42 77 -42q56 0 84 56v-49h203v483h-224v-245q0 -37 -17.5 -64t-52.5 -27t-52.5 27t-17.5 64v245h-224z" />
    <glyph glyph-name="mu" unicode="&#x3bc;" horiz-adv-x="774" 
d="M131 489h236v-65h75v-251l2 -19q51 16 51 84v251h236v-65h75v-495h-215v29q-36 -36 -78 -36q-39 0 -71 27v-216h-236v65h-75v691zM137 483v-679h224v231q26 -42 77 -42q56 0 84 56v-49h203v483h-224v-245q0 -37 -17.5 -64t-52.5 -27t-52.5 27t-17.5 64v245h-224z" />
    <glyph glyph-name="paragraph" unicode="&#xb6;" horiz-adv-x="683" 
d="M278 -216v549q-43 22 -70 63q-47 21 -76 66t-29 98q0 68 48.5 123t132.5 58h132v-65h75v-957h-138v65h-75zM508 -216v957h138v-65h75v-957h-138v65h-75zM284 -210h126v945h-126q-82 -3 -128.5 -56t-46.5 -119t46.5 -119.5t128.5 -55.5v-595zM513 -210h126v945h-126v-945z
" />
    <glyph glyph-name="periodcentered" unicode="&#xb7;" horiz-adv-x="250" 
d="M-21 273q0 44 32 76t76 32q32 0 59.5 -18t40.5 -50q39 -10 61 -40.5t22 -64.5q0 -44 -32 -76t-76 -32q-32 0 -59.5 18t-40.5 50q-39 10 -61 40.5t-22 64.5zM-15 273q0 -42 30 -72t72 -30t72 30t30 72t-30 72t-72 30t-72 -30t-30 -72z" />
    <glyph glyph-name="periodcentered" unicode="&#x2219;" horiz-adv-x="250" 
d="M-21 273q0 44 32 76t76 32q32 0 59.5 -18t40.5 -50q39 -10 61 -40.5t22 -64.5q0 -44 -32 -76t-76 -32q-32 0 -59.5 18t-40.5 50q-39 10 -61 40.5t-22 64.5zM-15 273q0 -42 30 -72t72 -30t72 30t30 72t-30 72t-72 30t-72 -30t-30 -72z" />
    <glyph glyph-name="guillemotright" unicode="&#xbb;" horiz-adv-x="620" 
d="M206 491l56 -76l19 11l146 -198l18 24l-128 174l106 65l56 -76l19 11l176 -239l-176 -239l-106 66l9 12l-42 27l-78 -105l-106 66l9 12l-84 53l128 173l-128 174zM204 483l-95 -59l126 -172l-126 -171l95 -60l171 231zM421 483l-95 -59l126 -172l-126 -171l95 -60
l171 231z" />
    <glyph glyph-name="afii10023" unicode="&#x401;" horiz-adv-x="676" 
d="M138 -6v712h124q-6 10 -9 24q-76 15 -76 82q0 37 26 60t71 23q34 0 61.5 -17.5t33.5 -49.5q26 -2 46 -20q-2 36 23.5 61.5t73.5 25.5q34 0 61.5 -17.5t33.5 -49.5q33 -3 55 -26.5t22 -54.5q0 -47 -44 -71v-35h75v-208h-96v-54h75v-180h-54v-62h75v-208h-502v65h-75z
M435 706h65q-6 10 -9 24q-24 5 -46 19q1 -22 -10 -43zM144 0h490v196h-210v74h189v168h-189v66h210v196h-490v-700zM183 812q0 -37 26.5 -57t64.5 -20q45 0 68 23.5t23 53.5t-23 53.5t-68 23.5q-38 0 -64.5 -20t-26.5 -57zM421 812q0 -37 26.5 -57t64.5 -20q45 0 68 23.5
t23 53.5t-23 53.5t-68 23.5q-38 0 -64.5 -20t-26.5 -57z" />
    <glyph glyph-name="afii10051" unicode="&#x402;" horiz-adv-x="920" 
d="M222 -6v439h-65v65h-75v208h712v-65h75v-203h-280v-21q44 16 89 18.5t95.5 -18.5t84.5 -69q115 -60 115 -196q0 -114 -84 -178.5t-262 -43.5v61q-24 0 -38 1v-63h-292v65h-75zM228 0h280v194q30 45 66 45q26 0 39 -14.5t13 -35.5q0 -25 -21 -39.5t-47 -9.5v-140
q99 -10 169 6.5t104 53t47.5 74.5t13.5 83q0 93 -60 152t-154 59q-89 0 -170 -66v142h280v196h-700v-196h140v-504z" />
    <glyph glyph-name="afii10052" unicode="&#x403;" horiz-adv-x="618" 
d="M138 -6v712h502v-65h75v-215h-210v-497h-292v65h-75zM144 0h280v497h210v203h-490v-700zM253 844l162 166h247l-97 -65h172l-246 -166h-163l63 65h-138zM267 850h147l228 154h-224z" />
    <glyph glyph-name="afii10053" unicode="&#x404;" horiz-adv-x="750" 
d="M721 242v-105q37 14 75 40v-218q-98 -51 -230 -51q-182 0 -296 128q-163 104 -163 324q0 161 108.5 264t273.5 103q127 0 232 -54v-35q37 -10 75 -30v-216q-78 62 -170 62q-52 0 -89 -18h100v-65h75v-135zM658 206h-187l6 -19q24 -6 56 -6q56 0 125 25zM715 28v203
q-85 -56 -182 -56q-72 0 -105 31t-40 71h243v153h-232q10 44 52.5 69.5t99.5 25.5q84 0 164 -56v200q-104 52 -226 52q-162 0 -269 -101.5t-107 -259.5q0 -165 102.5 -273t275.5 -108q127 0 224 49z" />
    <glyph glyph-name="afii10054" unicode="&#x405;" horiz-adv-x="722" 
d="M675 653l-11 -21q40 -15 86 -44l-86 -164q-82 44 -132 44q-36 0 -55 -17q80 -21 121 -43t68 -62q109 -54 109 -180q0 -120 -88 -189t-231 -69q-151 0 -301 118l7 10q-40 22 -82 55l113 166q97 -83 176 -83q41 0 51 23q-129 27 -191 106q-109 60 -109 174q0 105 75 177.5
t218 72.5q151 0 262 -74zM586 497l81 154q-105 70 -254 70q-140 0 -213.5 -71t-73.5 -173q0 -32 9 -59.5t20.5 -46t34 -35.5t36.5 -25.5t41 -18.5t35 -12.5t31 -8.5q27 -7 37 -10t27.5 -11t24 -18t6.5 -24q0 -40 -59 -40q-75 0 -175 80l-106 -156q147 -113 293 -113
q141 0 227 67.5t86 184.5q0 83 -45 129t-124 71q-16 5 -39.5 11t-37.5 9.5t-28.5 9.5t-21 15t-6.5 22q0 41 65 41q50 0 129 -42z" />
    <glyph glyph-name="afii10055" unicode="&#x406;" horiz-adv-x="487" 
d="M138 -6v712h292v-65h75v-712h-292v65h-75zM144 0h280v700h-280v-700z" />
    <glyph glyph-name="afii10056" unicode="&#x407;" horiz-adv-x="501" 
d="M145 -6v712h35q-5 11 -7 24q-31 2 -54 25t-23 57q0 35 25.5 59t64.5 24q34 0 59 -19t29 -47q14 -1 31 -8q5 31 29 52.5t62 21.5q34 0 59 -19t29 -47q32 -2 54.5 -24.5t22.5 -57.5q0 -50 -40.5 -70.5t-83.5 -7.5v-28h75v-712h-292v65h-75zM341 706h49q-5 11 -7 24
q-19 2 -31 8q-3 -17 -11 -32zM151 0h280v700h-280v-700zM102 812q0 -33 23 -55t61 -22q33 0 58.5 20t25.5 57t-25.5 57t-58.5 20q-38 0 -61 -22t-23 -55zM312 812q0 -33 23 -55t61 -22q33 0 58.5 20t25.5 57t-25.5 57t-58.5 20q-38 0 -61 -22t-23 -55z" />
    <glyph glyph-name="afii10057" unicode="&#x408;" horiz-adv-x="648" 
d="M306 706h292v-65h75v-464q0 -16 -0.5 -29t-6 -43t-15 -52.5t-30 -51.5t-48.5 -48t-73.5 -32t-102.5 -13q-144 0 -231 106q-56 35 -93 88l129 148q16 -62 62 -62q21 0 31.5 14.5t10.5 36.5v467zM312 700v-461q0 -27 -13 -42t-35 -15q-46 0 -64 56l-119 -136
q84 -123 241 -123q56 0 100.5 12.5t72 31t47.5 46.5t29.5 50t14.5 51.5t5.5 42t0.5 29.5v458h-280z" />
    <glyph glyph-name="afii10058" unicode="&#x409;" horiz-adv-x="1250" 
d="M215 706h656v-65h75v-194q68 4 134.5 -18t109.5 -80q52 -27 82.5 -76.5t30.5 -116.5q0 -34 -6.5 -63.5t-25.5 -60.5t-49 -53t-81.5 -36t-118.5 -14h-368v65h-75v432h-25v-256q0 -27 -1 -45t-7 -46.5t-17 -48.5t-32.5 -42.5t-52 -36.5t-77.5 -23.5t-106 -9.5
q-53 0 -111 12v55q-41 3 -75 10v209q26 -9 50 -9q26 0 44 9.5t27 20.5t13.5 33.5t5 35t0.5 37.5v11v364zM221 700v-358q0 -30 -1 -47t-6 -40.5t-14.5 -35.5t-28.5 -21t-46 -9q-18 0 -44 7v-196q62 -11 105 -11q58 0 104.5 9t76 22.5t50.5 36t32 41.5t16.5 47.5t6.5 45.5
t1 44v262h112v-497h362q82 0 139 20t85 54.5t39.5 69.5t11.5 77q0 41 -12 76.5t-41 69.5t-87.5 54t-141.5 20h-75v259h-644zM865 168v105h34q64 0 64 -52q0 -53 -64 -53h-34z" />
    <glyph glyph-name="afii10059" unicode="&#x40a;" horiz-adv-x="1229" 
d="M138 -6v712h292v-65h75v-187h53v252h292v-65h75v-187q95 -3 150 -24.5t91 -72.5q53 -25 84.5 -79t31.5 -122q0 -34 -6.5 -63.5t-25.5 -60.5t-49 -53t-81.5 -36t-118.5 -14h-368v65h-75v191h-53v-256h-292v65h-75zM144 0h280v256h140v-256h362q82 0 139 20t85 54.5
t39.5 69.5t11.5 77q0 43 -12 79.5t-41 71.5t-87.5 55.5t-141.5 20.5h-75v252h-280v-252h-140v252h-280v-700zM844 168v112h34q64 0 64 -56t-64 -56h-34z" />
    <glyph glyph-name="afii10060" unicode="&#x40b;" horiz-adv-x="949" 
d="M222 -6v439h-65v65h-75v208h698v-65h75v-208h-266v-28q52 21 106.5 23.5t103 -18.5t72.5 -65q110 -52 110 -206v-210h-292v65h-75v140q-14 -14 -25 -34v-171h-292v65h-75zM228 0h280v167q28 51 68 51q44 0 44 -64v-154h280v204q0 106 -54.5 161.5t-156.5 55.5
q-98 0 -181 -72v155h266v196h-686v-196h140v-504z" />
    <glyph glyph-name="afii10061" unicode="&#x40c;" horiz-adv-x="886" 
d="M138 -6v712h292v-65h75v-50l71 115h322l-47 -65h122l-243 -338l249 -374h-337l-35 65h-40l-62 113v-178h-292v65h-75zM144 0h280v266l147 -266h322l-245 368l238 332h-307l-155 -252v252h-280v-700zM399 841l162 166h247l-97 -65h172l-246 -166h-163l63 65h-138zM413 847
h147l228 154h-224z" />
    <glyph glyph-name="afii10062" unicode="&#x40e;" horiz-adv-x="872" 
d="M274 -6l98 199l-301 513h343l30 -65h45l39 -86l41 109q-54 -2 -101.5 20t-75.5 66q-44 20 -71.5 59t-34.5 86h162q1 -50 31 -65h43l1 -3q37 15 38 68h161q-7 -34 -21 -65h96q-11 -73 -68 -124h159l-28 -65h103l-306 -712h-308l32 65h-107zM284 0h294l301 700h-290
l-80 -214l-99 214h-329l298 -507zM442 889h-149q8 -43 30 -74t45 -46t54.5 -23t47.5 -9.5t34 -1.5t34 1.5t47.5 9.5t54.5 23t45 46t30 74h-148q-6 -70 -62 -70q-57 0 -63 70z" />
    <glyph glyph-name="afii10145" unicode="&#x40f;" horiz-adv-x="914" 
d="M138 -6v712h292v-65h75v-432h60v497h292v-65h75v-712h-228v-196h-263v65h-75v131h-153v65h-75zM144 0h228v-196h251v196h228v700h-280v-497h-147v497h-280v-700z" />
    <glyph glyph-name="afii10017" unicode="&#x410;" horiz-adv-x="872" 
d="M65 -6l254 712h316l23 -65h52l252 -712h-300l-17 65h-58l-10 37h-108l-28 -102h-301l24 65h-99zM74 0h287l28 102h175l28 -102h287l-248 700h-308zM428 277l49 178l48 -178h-97z" />
    <glyph glyph-name="afii10018" unicode="&#x411;" horiz-adv-x="822" 
d="M138 -6v712h593v-65h75v-215h-159q74 -19 116 -81q55 -27 83.5 -79t28.5 -110q0 -34 -6.5 -63.5t-25.5 -60.5t-49 -53t-81 -36t-118 -14h-382v65h-75zM144 0h376q81 0 138 20t85 54t39.5 69.5t11.5 77.5q0 41 -11.5 75t-39.5 67t-85 52t-138 19h-96v63h301v203h-581v-700
zM424 168v105h27q70 0 70 -52q0 -53 -70 -53h-27z" />
    <glyph glyph-name="afii10019" unicode="&#x412;" horiz-adv-x="822" 
d="M138 -6v712h401q147 0 202 -87q46 -20 73.5 -64t27.5 -98q0 -86 -89 -136q9 -11 18 -24q35 -17 58.5 -43t32 -53t11 -42t2.5 -29q0 -84 -61 -142.5t-181 -58.5h-420v65h-75zM144 0h414q69 0 118.5 20t73 51.5t34 62t10.5 61.5q0 70 -43 119t-112 60v2q49 14 85.5 52.5
t36.5 93.5q0 20 -3.5 39.5t-17 46t-36 46t-65.5 33t-100 13.5h-395v-700zM424 434v98h26q62 0 62 -49t-62 -49h-26zM424 168v105h34q70 0 70 -52q0 -53 -70 -53h-34z" />
    <glyph glyph-name="afii10020" unicode="&#x413;" horiz-adv-x="648" 
d="M138 -6v712h502v-65h75v-215h-210v-497h-292v65h-75zM144 0h280v497h210v203h-490v-700z" />
    <glyph glyph-name="afii10021" unicode="&#x414;" horiz-adv-x="928" 
d="M215 706h628v-65h75v-432h9v-65h75v-355h-250v65h-75v75h-277v-140h-250v65h-75v355q38 0 65.5 16t41.5 37.5t22 55t9.5 57t1.5 54.5v277zM221 700v-271q0 -25 -1 -42.5t-4.5 -46.5t-13 -49.5t-24 -41.5t-39.5 -32.5t-58 -13.5v-343h238v140h364v-140h238v343h-84v497
h-616zM473 497h84v-294h-148q64 51 64 195v99z" />
    <glyph glyph-name="afii10022" unicode="&#x415;" horiz-adv-x="676" 
d="M138 -6v712h502v-65h75v-215h-96v-47h75v-180h-54v-55h75v-215h-502v65h-75zM144 0h490v203h-210v67h189v168h-189v59h210v203h-490v-700z" />
    <glyph glyph-name="afii10024" unicode="&#x416;" horiz-adv-x="1257" 
d="M876 107v-178h-264v65h-75v48l-62 -113h-337l45 65h-120l256 370l-238 342h330l34 -65h41l51 -96v161h264v-65h75v-31l51 96h330l-45 -65h120l-238 -342l256 -370h-337l-35 65h-40zM795 0v266l147 -266h322l-252 364l234 336h-315l-136 -255v255h-252v-255l-136 255h-315
l234 -336l-252 -364h322l147 266v-266h252z" />
    <glyph glyph-name="afii10025" unicode="&#x417;" horiz-adv-x="732" 
d="M179 486l-85 172q134 69 295 69q188 0 277 -110q106 -62 106 -160q0 -99 -99 -153l14 -18q41 -19 69.5 -58t28.5 -99q0 -98 -86.5 -159.5t-221.5 -61.5q-97 0 -162.5 19t-159.5 76l11 17q-50 27 -86 48l109 169q32 -29 77 -49.5t78 -20.5q49 0 71 28h-114v65h-75v187h15
l-28 56q-22 -7 -34 -17zM309 447h26q57 0 74 21q-47 -3 -100 -21zM102 655l80 -161q77 45 157 45q81 0 81 -50q0 -29 -21.5 -38.5t-63.5 -9.5h-103v-175h110q45 0 63.5 -12t18.5 -36q0 -30 -23 -43.5t-57 -13.5q-37 0 -80 20t-74 47l-102 -158q89 -53 154.5 -72t159.5 -19
q134 0 218 60t84 155q0 42 -15.5 74.5t-40 51t-43 27.5t-36.5 14v3q53 17 87.5 60t34.5 98q0 86 -81.5 142.5t-220.5 56.5q-155 0 -287 -66z" />
    <glyph glyph-name="afii10026" unicode="&#x418;" horiz-adv-x="921" 
d="M138 706h278v-65h75v-134l111 199h262v-65h75v-712h-278v65h-75v126l-112 -191h-261v65h-75v712zM144 700v-700h252l196 336v-336h266v700h-252l-196 -349v349h-266z" />
    <glyph glyph-name="afii10027" unicode="&#x419;" horiz-adv-x="921" 
d="M138 706h278v-65h75v-134l88 157q-57 -2 -105 19.5t-75 65.5q-89 41 -106 146h160q1 -50 32 -65h42l1 -3q38 14 39 68h160q-7 -34 -21 -65h96q-6 -39 -25.5 -74.5t-44.5 -49.5h132v-65h75v-712h-278v65h-75v126l-112 -191h-261v65h-75v712zM144 700v-700h252l196 336
v-336h266v700h-252l-196 -349v349h-266zM447 889h-147q29 -154 210 -154t210 154h-147q-2 -24 -10 -39.5t-20 -21.5t-19 -7.5t-14 -1.5t-14 1.5t-19 7.5t-20 21.5t-10 39.5z" />
    <glyph glyph-name="afii10028" unicode="&#x41a;" horiz-adv-x="886" 
d="M138 -6v712h292v-65h75v-50l71 115h322l-47 -65h122l-243 -338l249 -374h-337l-35 65h-40l-62 113v-178h-292v65h-75zM144 0h280v266l147 -266h322l-245 368l238 332h-307l-155 -252v252h-280v-700z" />
    <glyph glyph-name="afii10029" unicode="&#x41b;" horiz-adv-x="928" 
d="M215 706h656v-65h75v-712h-292v65h-75v432h-25v-256q0 -27 -1 -45t-7 -46.5t-17 -48.5t-32.5 -42.5t-52 -36.5t-77.5 -23.5t-106 -9.5q-53 0 -111 12v55q-41 3 -75 10v209q26 -9 50 -9q26 0 44 9.5t27 20.5t13.5 33.5t5 35t0.5 37.5v11v364zM221 700v-358q0 -30 -1 -47
t-6 -40.5t-14.5 -35.5t-28.5 -21t-46 -9q-18 0 -44 7v-196q62 -11 105 -11q58 0 104.5 9t76 22.5t50.5 36t32 41.5t16.5 47.5t6.5 45.5t1 44v262h112v-497h280v700h-644z" />
    <glyph glyph-name="afii10030" unicode="&#x41c;" horiz-adv-x="1139" 
d="M840 84l-45 -155h-220l-18 65h-57l-36 125l-17 -190h-284l9 65h-84l100 712h318l17 -65h58l58 -212l75 277h318l9 -65h66l100 -712h-284l-6 65h-69zM715 0l106 364l32 -364h272l-98 700h-308l-109 -399l-109 399h-308l-98 -700h272l32 364l106 -364h210z" />
    <glyph glyph-name="afii10031" unicode="&#x41d;" horiz-adv-x="907" 
d="M138 -6v712h292v-65h75v-176h53v241h292v-65h75v-712h-292v65h-75v191h-53v-256h-292v65h-75zM144 0h280v256h140v-256h280v700h-280v-241h-140v241h-280v-700z" />
    <glyph glyph-name="afii10032" unicode="&#x41e;" horiz-adv-x="956" 
d="M841 596q76 -46 120 -127.5t44 -183.5q0 -74 -25.5 -140.5t-75 -120t-129.5 -85t-181 -31.5q-213 0 -323 131q-76 46 -120 127.5t-44 183.5q0 74 25.5 140.5t75 120t130 85t181.5 31.5q210 0 322 -131zM519 209q48 0 89.5 33.5t41.5 107.5q0 37 -15 70q-71 21 -122 -20
t-51 -115q0 -37 15 -70q21 -6 42 -6zM519 -21q99 0 178 31t127.5 84t74 118.5t25.5 137.5t-25.5 137.5t-74 118.5t-127.5 84t-178 31q-100 0 -179 -31t-127.5 -84t-74 -118t-25.5 -138t25.5 -138t74 -118t127.5 -84t179 -31zM519 203q-57 0 -97.5 38.5t-40.5 108.5
t40.5 108.5t97.5 38.5t97 -38.5t40 -108.5t-40 -108.5t-97 -38.5z" />
    <glyph glyph-name="afii10033" unicode="&#x41f;" horiz-adv-x="927" 
d="M138 706h732v-65h75v-712h-292v65h-75v432h-73v-497h-292v65h-75v712zM144 700v-700h280v497h160v-497h280v700h-720z" />
    <glyph glyph-name="afii10034" unicode="&#x420;" horiz-adv-x="816" 
d="M138 -6v712h371q72 0 132 -19t105 -79q60 -34 91.5 -89.5t31.5 -124.5q0 -108 -72.5 -178t-212.5 -70h-79v-217h-292v65h-75zM144 0h280v217h85q79 0 136.5 23t87 61t42.5 77t13 81t-13 80.5t-42 76.5t-87 61t-137 23h-365v-700zM424 518h31q67 0 67 -59q0 -60 -67 -60
h-31v119z" />
    <glyph glyph-name="afii10035" unicode="&#x421;" horiz-adv-x="726" 
d="M697 280v-116q44 19 75 52v-263q-85 -45 -194 -45q-195 0 -310 129q-76 48 -118.5 129t-42.5 184q0 93 35.5 167t93 118.5t125 68t138.5 23.5q120 0 198 -56v-28q41 -13 75 -37v-265q-31 43 -75 64t-86 21q-92 0 -129.5 -66t-4.5 -143q56 -16 115 1t105 62zM691 22v245
q-71 -64 -156 -64q-68 0 -110.5 37.5t-42.5 102.5q0 67 39.5 110.5t114.5 43.5q40 0 82.5 -18.5t72.5 -55.5v245q-76 53 -192 53q-69 0 -136 -23t-123.5 -66.5t-91.5 -117t-35 -164.5q0 -167 109 -269t281 -102q106 0 188 43z" />
    <glyph glyph-name="afii10036" unicode="&#x422;" horiz-adv-x="669" 
d="M229 -6v432h-72v65h-75v215h586v-65h75v-215h-147v-497h-292v65h-75zM235 0h280v497h147v203h-574v-203h147v-497z" />
    <glyph glyph-name="afii10037" unicode="&#x423;" horiz-adv-x="872" 
d="M274 -6l98 199l-301 513h343l30 -65h45l39 -86l57 151h303l-28 -65h103l-306 -712h-308l32 65h-107zM284 0h294l301 700h-290l-80 -214l-99 214h-329l298 -507z" />
    <glyph glyph-name="afii10038" unicode="&#x424;" horiz-adv-x="1097" 
d="M443 -6v38q-132 10 -205 105q-131 75 -131 248q0 74 24.5 129.5t60 86t84 49t87.5 23.5t80 5v77h292v-65h75v-17q133 -11 204 -105q132 -75 132 -248q0 -74 -24.5 -129.5t-60.5 -86t-84.5 -49t-87.5 -23.5t-79 -5v-98h-292v65h-75zM449 0h280v98q42 0 81.5 5t88 23
t83.5 47.5t59 84t24 127.5t-24 127.5t-59 84t-83.5 47.5t-88 23t-81.5 5v77h-280v-77q-43 0 -83 -5t-88 -23t-83 -48t-58.5 -84.5t-23.5 -126.5t23.5 -126.5t58.5 -84.5t83 -48t88 -23t83 -5v-98zM477 294h-19q-36 0 -61 23.5t-25 67.5q0 50 26 70.5t60 20.5h19v-182z
M701 294v182h18q41 0 64 -25.5t23 -65.5t-23 -65.5t-64 -25.5h-18z" />
    <glyph glyph-name="afii10039" unicode="&#x425;" horiz-adv-x="878" 
d="M533 59l-72 -130h-323l44 65h-119l253 374l-228 338h334l30 -65h45l5 -12l36 77h321l-43 -65h118l-217 -328l254 -384h-330l-33 65h-42zM480 175l90 -175h315l-250 378l213 322h-306l-62 -133l-62 133h-319l224 -332l-249 -368h308z" />
    <glyph glyph-name="afii10040" unicode="&#x426;" horiz-adv-x="956" 
d="M138 -6v712h292v-65h75v-432h74v497h292v-65h75v-432h9v-65h75v-355h-250v65h-75v75h-492v65h-75zM144 0h567v-140h238v343h-84v497h-280v-497h-161v497h-280v-700z" />
    <glyph glyph-name="afii10041" unicode="&#x427;" horiz-adv-x="858" 
d="M509 -6v169q-128 -6 -194.5 15t-91.5 72q-66 29 -86 85t-20 134v237h292v-65h75v-165l5 -32q3 0 10 1t10 1v260h292v-65h75v-712h-292v65h-75zM515 0h280v700h-280v-259q-23 -4 -42 -5h-6h-7h-6q-18 2 -29.5 11.5t-15.5 27.5t-5 30.5t-1 35.5v159h-280v-231q0 -31 1 -51
t6.5 -47.5t15.5 -45t29.5 -37t46.5 -30t68 -18t94 -7.5q60 0 131 12v-245z" />
    <glyph glyph-name="afii10042" unicode="&#x428;" horiz-adv-x="1229" 
d="M138 -6v712h278v-65h75v-432h25v497h278v-65h75v-432h25v497h278v-65h75v-712h-1034v65h-75zM144 0h1022v700h-266v-497h-112v497h-266v-497h-112v497h-266v-700z" />
    <glyph glyph-name="afii10043" unicode="&#x429;" horiz-adv-x="1257" 
d="M138 -6v712h278v-65h75v-432h25v497h278v-65h75v-432h25v497h278v-65h75v-432h9v-65h75v-355h-250v65h-75v75h-793v65h-75zM144 0h868v-140h238v343h-84v497h-266v-497h-112v497h-266v-497h-112v497h-266v-700z" />
    <glyph glyph-name="afii10044" unicode="&#x42a;" horiz-adv-x="886" 
d="M208 -6v432h-51v65h-75v215h418v-65h75v-194h8q101 0 155.5 -24.5t86.5 -71.5q52 -23 83 -76t31 -119q0 -34 -6.5 -63.5t-25.5 -60.5t-49 -53t-81.5 -36t-118.5 -14h-375v65h-75zM214 0h369q81 0 138.5 20t85.5 54.5t39.5 69.5t11.5 77q0 41 -11.5 76.5t-39.5 69.5
t-85 54t-139 20h-89v259h-406v-203h126v-497zM494 168v105h34q64 0 64 -52q0 -53 -64 -53h-34z" />
    <glyph glyph-name="afii10045" unicode="&#x42b;" horiz-adv-x="1159" 
d="M138 -6v712h292v-65h75v-194q68 4 134.5 -18t109.5 -80q37 -19 61 -46v403h292v-65h75v-712h-292v65h-75v13q-32 -38 -83.5 -58t-145.5 -20h-368v65h-75zM144 0h362q82 0 139 20t85 54.5t39.5 69.5t11.5 77q0 41 -12 76.5t-41 69.5t-87.5 54t-141.5 20h-75v259h-280v-700
zM424 168v105h34q64 0 64 -52q0 -53 -64 -53h-34zM816 0h280v700h-280v-700z" />
    <glyph glyph-name="afii10046" unicode="&#x42c;" horiz-adv-x="809" 
d="M138 -6v712h292v-65h75v-194q68 4 134.5 -18t109.5 -80q52 -27 82.5 -76.5t30.5 -116.5q0 -34 -6.5 -63.5t-25.5 -60.5t-49 -53t-81.5 -36t-118.5 -14h-368v65h-75zM144 0h362q82 0 139 20t85 54.5t39.5 69.5t11.5 77q0 41 -12 76.5t-41 69.5t-87.5 54t-141.5 20h-75v259
h-280v-700zM424 168v105h34q64 0 64 -52q0 -53 -64 -53h-34z" />
    <glyph glyph-name="afii10047" unicode="&#x42d;" horiz-adv-x="757" 
d="M117 24v218q86 -61 189 -61q57 0 96 25h-98v65h-75v145q10 10 -3 1q-9 -6 -34 -25v107q-44 -18 -75 -42v216q105 54 232 54q181 0 296 -127q52 -33 87 -78t49.5 -90.5t19.5 -76.5t5 -60q0 -167 -103.5 -277t-279.5 -110q-133 0 -231 51v35q-38 10 -75 30zM432 436l-3 9
q-31 9 -67 9t-92 -18h162zM123 231v-203q95 -49 225 -49q173 0 275 108t102 273q0 158 -106.5 259.5t-269.5 101.5q-123 0 -226 -52v-200q80 56 164 56q58 0 100.5 -25.5t52.5 -69.5h-205v-153h216q-22 -102 -145 -102q-98 0 -183 56z" />
    <glyph glyph-name="afii10048" unicode="&#x42e;" horiz-adv-x="1309" 
d="M430 641h75v-116q102 202 367 202q210 0 324 -131q76 -48 119 -128t43 -183q0 -175 -115 -276t-297 -101q-208 0 -317 126q-83 51 -124 145v-250h-292v65h-75v712h292v-65zM875 209q21 0 41.5 7t41 21.5t33 44t12.5 68.5q0 40 -14 70q-66 20 -119.5 -18t-53.5 -117
q0 -35 15 -69q21 -7 44 -7zM424 449v251h-280v-700h280v260h66q15 -128 119.5 -204.5t261.5 -76.5q179 0 292.5 100t113.5 271q0 170 -113.5 270.5t-291.5 100.5q-162 0 -260.5 -75.5t-121.5 -196.5h-66zM875 203q-59 0 -99.5 38.5t-40.5 108.5t40.5 108.5t99.5 38.5
q56 0 95 -38.5t39 -108.5t-39 -108.5t-95 -38.5z" />
    <glyph glyph-name="afii10049" unicode="&#x42f;" horiz-adv-x="829" 
d="M84 -6l153 243l-19 24q-53 25 -83 77t-30 120q0 27 4.5 53t22.5 63.5t48.5 65t90 47t139.5 19.5h362v-65h75v-712h-292v65h-46l-28 -65h-322l41 65h-116zM95 0h307l84 196v-196h280v700h-356q-70 0 -124 -15.5t-86.5 -39.5t-53 -57t-28 -64.5t-7.5 -65.5q0 -84 41.5 -135
t101.5 -70zM486 385h-28q-81 0 -81 67q0 66 81 66h28v-133z" />
    <glyph glyph-name="afii10065" unicode="&#x430;" horiz-adv-x="762" 
d="M712 489v-65h75v-495h-229v39q-60 -60 -151 -60q-108 0 -173 90q-129 71 -129 244q0 114 63.5 191t163.5 77q92 0 151 -61v40h229zM412 153q45 0 64.5 35.5t11.5 76.5q-41 0 -63 -32.5t-14 -79.5h1zM706 483h-217v-52q-58 73 -157 73q-98 0 -159.5 -74.5t-61.5 -187.5
q0 -122 66 -192.5t155 -70.5q97 0 157 71v-50h217v483zM412 147q-37 0 -60.5 26t-23.5 69q0 42 23.5 68t60.5 26t60.5 -26t23.5 -68q0 -43 -23.5 -69t-60.5 -26z" />
    <glyph glyph-name="afii10066" unicode="&#x431;" horiz-adv-x="727" 
d="M513 741h179q0 -32 -10 -65h85q0 -32 -7 -58t-17 -44.5t-30 -33.5t-36 -24t-47 -18t-50 -13.5t-57 -12.5q86 -22 134 -88q56 -30 88.5 -84.5t32.5 -124.5q0 -110 -72 -188.5t-213 -78.5q-166 0 -243 101q-22 12 -42.5 30t-44.5 52t-38.5 91t-14.5 129q0 311 250 375
q28 7 58.5 13t45 9t28 7t17.5 10t4 16zM473 244q-36 -5 -49 -34t-9 -64q27 4 41.5 23.5t16.5 37.5t0 37zM686 735h-168q-2 -10 -8.5 -16.5t-21 -11t-30 -7.5t-43.5 -8.5t-53 -11.5q-246 -63 -246 -369q0 -24 1.5 -46t8.5 -57.5t18.5 -64.5t34.5 -60.5t53.5 -53.5t78.5 -36
t107 -14q138 0 208.5 77t70.5 184q0 41 -13.5 80.5t-40 73.5t-71.5 54.5t-103 20.5q-115 0 -168 -69h-3q4 32 18 56t31 39.5t47 28t54.5 19.5t66.5 16q27 6 45 11.5t43.5 19t41 30.5t28 47t13.5 68zM406 140q-34 0 -53.5 23t-19.5 64q0 40 19.5 64t53.5 24q35 0 54.5 -24
t19.5 -64q0 -41 -19.5 -64t-54.5 -23z" />
    <glyph glyph-name="afii10067" unicode="&#x432;" horiz-adv-x="662" 
d="M131 -6v495h329q49 0 86 -14.5t59 -59.5q40 -12 63 -43t23 -72q0 -74 -67 -107l6 -12q41 -12 63 -43.5t22 -72.5q0 -61 -44 -98.5t-129 -37.5h-336v65h-75zM137 0h330q90 0 128.5 39t38.5 91q0 100 -118 120v2q94 27 94 113q0 41 -19.5 67.5t-50.5 36t-47.5 12t-32.5 2.5
h-323v-483zM347 287v84h16q51 0 51 -41q0 -43 -51 -43h-16zM347 112v84h22q48 0 48 -42t-48 -42h-22z" />
    <glyph glyph-name="afii10068" unicode="&#x433;" horiz-adv-x="501" 
d="M131 -6v495h369v-65h75v-180h-133v-315h-236v65h-75zM137 0h224v315h133v168h-357v-483z" />
    <glyph glyph-name="afii10069" unicode="&#x434;" 
d="M201 489h474v-65h75v-329h70v-306h-180v65h-75v75h-221v-140h-180v65h-75v306q37 -3 61.5 12.5t34.5 45.5t13 52.5t3 49.5v169zM207 483v-163q0 -27 -2.5 -48t-12 -53t-34.5 -49.5t-63 -15.5v-294h168v140h308v-140h168v294h-70v329h-462zM459 154h-124q54 41 54 114v61
h70v-175z" />
    <glyph glyph-name="afii10070" unicode="&#x435;" horiz-adv-x="701" 
d="M638 88h106q-24 -78 -94 -129t-191 -51q-150 0 -227 100q-42 24 -70.5 59t-39 72t-14 59.5t-3.5 43.5q0 120 78 194t208 74q78 0 130.5 -22.5t96.5 -76.5q143 -84 134 -286h-93q-8 -18 -21 -37zM318 196h353q1 36 -3.5 72t-22 80.5t-46.5 77.5t-83 55.5t-125 22.5
q-128 0 -204 -72.5t-76 -189.5q0 -112 68.5 -187.5t204.5 -75.5q110 0 180.5 46t96.5 122h-200q-12 -42 -66 -42q-38 0 -58 27.5t-19 63.5zM468 294h-147q2 33 21.5 58.5t52.5 25.5q35 0 54 -25t19 -59z" />
    <glyph glyph-name="afii10072" unicode="&#x436;" horiz-adv-x="999" 
d="M429 -6v-6l-34 -59h-261l47 65h-122l187 258l-167 237h256l34 -65h41l19 -37v102h222v-65h60l34 65h253l-45 -65h120l-164 -237l187 -258h-261l-38 65h-37l-34 59v-124h-222v65h-75zM435 0h210v207l118 -207h246l-182 252l160 231h-238l-104 -199v199h-210v-199l-104 199
h-240l162 -231l-182 -252h246l118 207v-207z" />
    <glyph glyph-name="afii10073" unicode="&#x437;" horiz-adv-x="613" 
d="M171 330l-57 136q104 44 220 44q85 0 134 -22.5t79 -67.5q90 -40 90 -120q0 -69 -65 -107l7 -12q43 -14 65 -47.5t22 -67.5q0 -27 -13 -53t-40.5 -50.5t-80 -39.5t-122.5 -15q-123 0 -241 57l14 29q-45 14 -89 36l73 146q54 -38 130 -51v58h-75v124h6l-16 40
q-30 -12 -41 -17zM122 463l52 -125q66 33 128 33q72 0 72 -40q0 -30 -53 -30h-93v-112h83q63 0 63 -30q0 -16 -16 -28t-46 -12q-66 0 -143 48l-67 -134q116 -54 233 -54q132 0 191 47t59 105q0 41 -29.5 74.5t-85.5 44.5v2q34 13 60 40.5t26 72.5q0 61 -57.5 100t-164.5 39
q-109 0 -212 -41z" />
    <glyph glyph-name="afii10074" unicode="&#x438;" horiz-adv-x="739" 
d="M131 489h222v-65h75v-17l47 82h214v-65h75v-495h-222v65h-75v19l-46 -84h-215v65h-75v495zM137 483v-483h205l131 238v-238h210v483h-205l-131 -231v231h-210z" />
    <glyph glyph-name="afii10075" unicode="&#x439;" horiz-adv-x="739" 
d="M131 489h222v-65h75v-17l39 69q-92 7 -141 83q-42 19 -70.5 57.5t-35.5 89.5h148q-1 -49 31 -65h44v-2q15 -1 26.5 22.5t11.5 44.5h148q-8 -37 -20 -65h95q-6 -40 -22.5 -70.5t-38.5 -47t-34.5 -23.5t-24.5 -11h105v-65h75v-495h-222v65h-75v19l-46 -84h-215v65h-75v495z
M137 483v-483h205l131 238v-238h210v483h-205l-131 -231v231h-210zM362 700h-135q11 -66 61 -110t136 -44q87 0 137 44t61 110h-135q-5 -70 -63 -70q-33 0 -47.5 21.5t-14.5 48.5z" />
    <glyph glyph-name="afii10076" unicode="&#x43a;" horiz-adv-x="729" 
d="M131 -6v495h236v-65h65l36 65h265l-49 -65h124l-176 -233l194 -262h-271l-38 65h-37l-38 66v-131h-236v65h-75zM137 0h224v214l122 -214h256l-189 256l171 227h-249l-111 -197v197h-224v-483z" />
    <glyph glyph-name="afii10077" unicode="&#x43b;" 
d="M703 489v-65h75v-495h-236v65h-75v43q-8 -33 -27 -57t-38.5 -35.5t-48 -18t-45.5 -7.5t-41 -1q-49 0 -103 12v54q-33 3 -75 11v181q14 -5 28.5 -6t31.5 3.5t27.5 23.5t10.5 52v240h516zM697 483h-504v-234q0 -34 -10.5 -54.5t-27 -26t-31 -5t-29.5 4.5v-168
q50 -11 97 -11q53 0 91.5 12t58.5 28.5t31 42t13.5 44.5t2.5 45v154h84v-315h224v483z" />
    <glyph glyph-name="afii10078" unicode="&#x43c;" horiz-adv-x="915" 
d="M88 -6l79 495h262l18 -65h57l22 -79l40 144h263l10 -65h65l79 -495h-221l-11 65h-64l-3 14l-22 -79h-177l-20 65h-55l-10 31l-16 -96h-221l10 65h-85zM95 0h209l40 238l70 -238h168l69 238l41 -238h209l-77 483h-253l-73 -259l-74 259h-252z" />
    <glyph glyph-name="afii10079" unicode="&#x43d;" horiz-adv-x="732" 
d="M131 -6v495h236v-65h75v-89h4v154h236v-65h75v-495h-236v65h-75v110h-4v-175h-236v65h-75zM137 0h224v175h91v-175h224v483h-224v-154h-91v154h-224v-483z" />
    <glyph glyph-name="afii10080" unicode="&#x43e;" horiz-adv-x="725" 
d="M403 510q168 0 246 -104q63 -34 95 -96t32 -133q0 -115 -75 -192t-223 -77q-168 0 -246 104q-64 34 -95.5 95.5t-31.5 134.5q0 115 75 191.5t223 76.5zM472 251q-66 -7 -63 -84q66 7 63 84zM403 504q-145 0 -218.5 -75t-73.5 -187t74 -187.5t218 -75.5t218 75.5t74 187.5
t-73.5 187t-218.5 75zM403 161q-39 0 -57 25.5t-18 55.5q0 29 18 54.5t57 25.5t57 -25.5t18 -54.5q0 -30 -18 -55.5t-57 -25.5z" />
    <glyph glyph-name="afii10081" unicode="&#x43f;" horiz-adv-x="739" 
d="M131 489h558v-65h75v-495h-236v65h-75v264h-11v-329h-236v65h-75v495zM137 483v-483h224v329h98v-329h224v483h-546z" />
    <glyph glyph-name="afii10082" unicode="&#x440;" horiz-adv-x="762" 
d="M131 -202v691h229v-40q60 61 151 61q107 0 175 -91q127 -72 127 -242q0 -123 -67.5 -196t-159.5 -73q-87 0 -144 54v-229h-236v65h-75zM431 153q45 0 64.5 35.5t11.5 76.5q-41 0 -63 -32.5t-14 -79.5h1zM137 -196h224v238q58 -63 150 -63q89 0 155 71.5t66 191.5
q0 126 -67 194t-154 68q-101 0 -157 -73v52h-217v-679zM431 147q-37 0 -60.5 26t-23.5 69q0 42 23.5 68t60.5 26t60.5 -26t23.5 -68q0 -43 -23.5 -69t-60.5 -26z" />
    <glyph glyph-name="afii10083" unicode="&#x441;" horiz-adv-x="553" 
d="M531 211v-106q36 9 75 41v-201q-70 -37 -157 -37q-134 0 -214 98q-130 77 -130 236q0 112 74 190t195 78q76 0 157 -37v-38q35 -9 75 -27v-207q-52 50 -111 50q-47 0 -67 -25.5t-19 -57.5q62 -7 122 43zM525 14v185q-51 -38 -97 -38q-41 0 -70.5 19.5t-29.5 56.5
q0 41 27 63t65 22q53 0 105 -43v190q-80 35 -151 35q-119 0 -191 -75.5t-72 -186.5q0 -118 75 -190.5t188 -72.5q81 0 151 35z" />
    <glyph glyph-name="afii10084" unicode="&#x442;" horiz-adv-x="535" 
d="M190 -6v250h-33v65h-75v180h452v-65h75v-180h-108v-315h-236v65h-75zM196 0h224v315h108v168h-440v-168h108v-315z" />
    <glyph glyph-name="afii10085" unicode="&#x443;" horiz-adv-x="705" 
d="M61 489h266l32 -65h43l41 -84l52 149h229l-28 -65h103l-299 -691h-238l33 65h-108l128 258zM71 483l251 -427l-125 -252h224l294 679h-216l-73 -210l-103 210h-252z" />
    <glyph glyph-name="afii10086" unicode="&#x444;" horiz-adv-x="911" 
d="M385 -202v131q-101 15 -158 93q-59 31 -90.5 88t-31.5 132q0 61 20 108t49.5 74t69 44t73.5 22.5t68 5.5v210h222v-65h75v-152q101 -15 158 -93q59 -31 90.5 -88t31.5 -131q0 -61 -20 -108.5t-49.5 -74t-69.5 -44t-73.5 -23t-67.5 -5.5v-189h-222v65h-75zM391 -196h210
v189q36 0 70.5 5.5t73.5 22t68 43t48.5 72.5t19.5 106t-19 105.5t-48 72t-68.5 43t-74 22t-70.5 5.5v210h-210v-210q-36 0 -70.5 -5.5t-74 -22t-68.5 -43t-48 -72t-19 -105.5t19.5 -106t48.5 -72.5t68 -43t73.5 -22t70.5 -5.5v-189zM412 322v-161q-33 2 -62 19t-29 58
q0 35 24 59t67 25zM580 161v161q42 -1 66.5 -25t24.5 -59q0 -37 -27 -56t-64 -21z" />
    <glyph glyph-name="afii10087" unicode="&#x445;" horiz-adv-x="697" 
d="M446 32l-63 -103h-246l50 65h-125l200 262l-179 233h254l31 -65h44l-1 2l30 63h254l-50 -65h125l-179 -233l200 -262h-246l-40 65h-35zM389 137l84 -137h231l-196 256l175 227h-238l-56 -115l-56 115h-238l175 -227l-196 -256h231z" />
    <glyph glyph-name="afii10088" unicode="&#x446;" 
d="M131 -6v495h236v-65h71v65h236v-65h75v-329h71v-306h-180v65h-75v75h-359v65h-75zM137 0h434v-140h168v294h-71v329h-224v-329h-83v329h-224v-483z" />
    <glyph glyph-name="afii10089" unicode="&#x447;" horiz-adv-x="711" 
d="M425 -6v71q-102 -1 -151 21t-70 63q-87 30 -87 128v212h236v-65h72v65h236v-65h75v-495h-236v65h-75zM431 0h224v483h-224v-186q-20 -7 -38 -7q-22 0 -34 12t-12 48v133h-224v-206q0 -28 7 -49.5t27 -44t63.5 -35t108.5 -12.5q63 0 102 7v-143z" />
    <glyph glyph-name="afii10090" unicode="&#x448;" horiz-adv-x="991" 
d="M131 -6v495h222v-65h72v65h222v-65h72v65h222v-65h75v-495h-810v65h-75zM137 0h798v483h-210v-329h-84v329h-210v-329h-84v329h-210v-483z" />
    <glyph glyph-name="afii10091" unicode="&#x449;" horiz-adv-x="1019" 
d="M131 -6v495h222v-65h72v65h222v-65h72v65h222v-65h75v-329h70v-306h-180v65h-75v75h-625v65h-75zM137 0h700v-140h168v294h-70v329h-210v-329h-84v329h-210v-329h-84v329h-210v-483z" />
    <glyph glyph-name="afii10092" unicode="&#x44a;" horiz-adv-x="701" 
d="M82 489h320v-65h75v-96h19q54 0 99.5 -21t65.5 -61q96 -41 96 -153q0 -74 -53 -119t-133 -45h-330v65h-75v250h-9v65h-75v180zM88 483v-168h84v-315h324q78 0 129 43.5t51 114.5q0 68 -44 116t-136 48h-100v161h-308zM396 112v98h17q24 0 38.5 -12t14.5 -36
q0 -23 -14 -36.5t-39 -13.5h-17z" />
    <glyph glyph-name="afii10093" unicode="&#x44b;" horiz-adv-x="967" 
d="M367 424h75v-96h19q54 0 99.5 -21t65.5 -61q29 -13 55 -35v278h236v-65h75v-495h-236v65h-69q-53 -65 -151 -65h-330v65h-75v495h236v-65zM361 322v161h-224v-483h324q78 0 129 43.5t51 114.5q0 68 -44 116t-136 48h-100zM361 112v98h17q24 0 38.5 -12t14.5 -36
q0 -23 -14 -36.5t-39 -13.5h-17zM687 0h224v483h-224v-483z" />
    <glyph glyph-name="afii10094" unicode="&#x44c;" horiz-adv-x="666" 
d="M367 424h75v-96h19q54 0 99.5 -21t65.5 -61q96 -41 96 -153q0 -74 -53 -119t-133 -45h-330v65h-75v495h236v-65zM361 322v161h-224v-483h324q78 0 129 43.5t51 114.5q0 68 -44 116t-136 48h-100zM361 112v98h17q24 0 38.5 -12t14.5 -36q0 -23 -14 -36.5t-39 -13.5h-17z
" />
    <glyph glyph-name="afii10095" unicode="&#x44d;" horiz-adv-x="601" 
d="M117 3v161q72 -40 138 -39v55h-75v124h12v46q-40 -13 -75 -35v159q69 36 152 36q167 0 253 -106q60 -36 95 -94t35 -130q0 -109 -80 -190.5t-224 -81.5q-86 0 -156 30v43q-39 6 -75 22zM123 154v-147q67 -28 150 -28q127 0 212.5 73t85.5 193q0 108 -80.5 183.5
t-221.5 75.5q-78 0 -146 -34v-144q60 38 120 38q40 0 75 -15.5t46 -50.5h-178v-112h182q-6 -35 -39.5 -51t-78.5 -16q-65 0 -127 35z" />
    <glyph glyph-name="afii10096" unicode="&#x44e;" horiz-adv-x="1015" 
d="M353 424h75v-24q76 110 239 110q165 0 246 -104q64 -36 95.5 -97t31.5 -132q0 -116 -74 -192.5t-224 -76.5q-157 0 -232 101q-52 27 -82 75v-155h-222v65h-75v495h222v-65zM736 251q-66 -7 -63 -84q67 9 63 84zM347 322v161h-210v-483h210v168h51q18 -85 87 -137t182 -52
q147 0 219.5 75.5t72.5 187.5q0 111 -74.5 186.5t-217.5 75.5q-66 0 -116.5 -17.5t-80.5 -47t-46 -57.5t-25 -60h-52zM667 161q-39 0 -57 26t-18 55q0 28 18 54t57 26t57 -25t18 -55t-18 -55.5t-57 -25.5z" />
    <glyph glyph-name="afii10097" unicode="&#x44f;" horiz-adv-x="676" 
d="M97 -6l110 156l-3 4q-49 19 -73 61.5t-24 94.5q0 37 10.5 66.5t25.5 47.5t36.5 31.5t39 19.5t39 9.5t30 4t17.5 0.5h321v-65h75v-495h-222v65h-39l-35 -65h-233l46 65h-121zM109 0h217l77 143h7v-143h210v483h-315q-49 0 -86 -13.5t-56.5 -33t-31.5 -45t-15 -44.5t-3 -37
q0 -52 26 -96t79 -58zM410 259h-31q-56 0 -56 48q0 50 56 50h31v-98z" />
    <glyph glyph-name="afii10071" unicode="&#x451;" horiz-adv-x="701" 
d="M638 88h106q-24 -78 -94 -129t-191 -51q-150 0 -227 100q-42 24 -70.5 59t-39 72t-14 59.5t-3.5 43.5q0 84 41.5 150t124.5 99q-19 19 -29 44q-37 7 -59 36t-22 66q0 43 28.5 73.5t68.5 30.5q29 0 54 -17.5t36 -48.5q38 -7 60 -37t22 -66q0 -32 -18 -62q124 -2 206 -99
q143 -84 134 -286h-93q-8 -18 -21 -37zM427 637q0 43 28.5 73.5t68.5 30.5q29 0 54 -17.5t36 -48.5q38 -7 60 -37t22 -66q0 -43 -28 -73.5t-69 -30.5q-28 0 -53.5 17.5t-37.5 49.5q-37 7 -59 36t-22 66zM318 196h353q1 36 -3.5 72t-22 80.5t-46.5 77.5t-83 55.5t-125 22.5
q-128 0 -204 -72.5t-76 -189.5q0 -112 68.5 -187.5t204.5 -75.5q110 0 180.5 46t96.5 122h-200q-12 -42 -66 -42q-38 0 -58 27.5t-19 63.5zM468 294h-147q2 33 21.5 58.5t52.5 25.5q35 0 54 -25t19 -59zM167 637q0 -40 26.5 -69t64.5 -29q39 0 65 29t26 69t-26 69t-65 29
q-38 0 -64.5 -29t-26.5 -69zM433 637q0 -40 26.5 -69t64.5 -29q39 0 65 29t26 69t-26 69t-65 29q-38 0 -64.5 -29t-26.5 -69z" />
    <glyph glyph-name="afii10099" unicode="&#x452;" horiz-adv-x="771" 
d="M166 -6v495h-9v65h-75v117h84v70h236v-65h75v-5h114v-65h75v-117h-37q42 -21 66 -62q58 -24 88 -87t30 -145q0 -113 -36.5 -212.5t-106.5 -210.5l-178 77q10 16 15 26l-89 39l8 15h-185v65h-75zM477 180v-147q42 122 33 227q-33 -24 -33 -80zM172 0h224v245q0 36 15 63.5
t44 27.5q62 0 62 -90q0 -169 -91 -329l167 -72q139 218 139 415q0 104 -46.5 172.5t-137.5 68.5q-48 0 -89.5 -19.5t-62.5 -54.5v133h189v105h-189v70h-224v-70h-84v-105h84v-560z" />
    <glyph glyph-name="afii10100" unicode="&#x453;" horiz-adv-x="501" 
d="M131 -6v495h369v-65h75v-180h-133v-315h-236v65h-75zM137 0h224v315h133v168h-357v-483zM242 607l132 173h231l-86 -65h161l-230 -173h-133l48 65h-123zM254 613h119l214 161h-210z" />
    <glyph glyph-name="afii10101" unicode="&#x454;" horiz-adv-x="587" 
d="M500 239h75v-124h-12v-48q39 11 75 32v-161q-60 -30 -149 -30q-158 0 -242 106q-130 77 -130 231q0 121 88 193t213 72q80 0 145 -36v-37q42 -9 75 -28v-159q-70 46 -138 43v-54zM494 186v112h-165q10 32 41 49t74 17q51 0 113 -38v144q-63 34 -139 34q-123 0 -209 -70
t-86 -189t83.5 -192.5t207.5 -73.5q82 0 143 28v147q-60 -35 -120 -35q-51 0 -78 19t-33 48h168z" />
    <glyph glyph-name="afii10102" unicode="&#x455;" horiz-adv-x="567" 
d="M94 28l61 139q81 -51 139 -40q-28 2 -53.5 22t-39.5 48q-31 10 -51 30t-27.5 43t-9.5 36t-2 25q0 86 62 132.5t164 46.5q100 0 196 -48l-15 -30q47 -12 90 -35l-59 -124q-54 34 -100 34q-19 0 -29 -3q72 -16 103 -74q37 -12 63.5 -46.5t26.5 -94.5q0 -17 -2.5 -33.5
t-16 -45.5t-37 -49.5t-71.5 -36.5t-113 -16q-67 0 -110.5 11.5t-93.5 43.5l11 24q-43 12 -86 41zM158 158l-56 -128q81 -51 196 -51q64 0 111 15.5t70 35.5t36 48t15 43.5t2 32.5q0 126 -132 147q-5 1 -16 2.5t-16.5 2.5t-14.5 3t-13.5 4.5t-10 6.5t-7.5 9.5t-2 12.5
t2.5 13.5t15.5 14.5t36 8q45 0 97 -31l54 112q-81 45 -188 45q-109 0 -164.5 -49.5t-55.5 -123.5q0 -60 30.5 -92.5t93.5 -47.5q11 -3 28.5 -6.5t24 -5.5t15 -6t11 -10t2.5 -16q0 -2 -0.5 -4t-3 -7t-7.5 -8.5t-15.5 -6t-24.5 -2.5q-43 0 -113 39z" />
    <glyph glyph-name="afii10103" unicode="&#x456;" horiz-adv-x="417" 
d="M131 489h97q-19 22 -26 38q-39 13 -62 44.5t-23 65.5q0 49 39 83.5t93 34.5q39 0 72 -19.5t50 -53.5q39 -13 62 -44.5t23 -65.5q0 -35 -23 -66.5t-66 -45.5v-36h75v-495h-236v65h-75v495zM137 483v-483h224v483h-224zM123 637q0 -47 37.5 -79.5t88.5 -32.5t88.5 32.5
t37.5 79.5t-37.5 79.5t-88.5 32.5t-88.5 -32.5t-37.5 -79.5z" />
    <glyph glyph-name="afii10104" unicode="&#x457;" horiz-adv-x="473" 
d="M159 489h45q-24 17 -34 45q-39 6 -60 36t-21 67q0 43 26 73.5t64 30.5q26 0 50 -18t34 -49l25 -8q10 34 34 54.5t53 20.5q27 0 50 -17.5t34 -48.5q39 -6 60 -36t21 -67q0 -43 -26 -73.5t-64 -30.5q-26 0 -50 18t-34 49l-25 8q-10 -30 -29 -54h83v-65h75v-495h-236v65h-75
v495zM165 483v-483h224v483h-224zM95 637q0 -41 24 -69.5t60 -28.5t60 28.5t24 69.5t-24 69.5t-60 28.5t-60 -28.5t-24 -69.5zM291 637q0 -41 24 -69.5t60 -28.5t60 28.5t24 69.5t-24 69.5t-60 28.5t-60 -28.5t-24 -69.5z" />
    <glyph glyph-name="afii10105" unicode="&#x458;" horiz-adv-x="417" 
d="M131 489h97q-19 22 -26 38q-39 13 -62 44.5t-23 65.5q0 49 39 83.5t93 34.5q39 0 72 -19.5t50 -53.5q39 -13 62 -44.5t23 -65.5q0 -35 -23 -66.5t-66 -45.5v-36h75v-691h-236v65h-75v691zM137 483v-679h224v679h-224zM123 637q0 -47 37.5 -79.5t88.5 -32.5t88.5 32.5
t37.5 79.5t-37.5 79.5t-88.5 32.5t-88.5 -32.5t-37.5 -79.5z" />
    <glyph glyph-name="afii10106" unicode="&#x459;" horiz-adv-x="1002" 
d="M703 489v-65h75v-96h19q54 0 99.5 -21t65.5 -61q96 -41 96 -153q0 -74 -53 -119t-133 -45h-330v65h-75v48q-26 -124 -200 -124q-49 0 -103 12v54q-33 3 -75 11v181q14 -5 28.5 -6t31.5 3.5t27.5 23.5t10.5 52v240h516zM697 483h-504v-234q0 -34 -10.5 -54.5t-27 -26
t-31 -5t-29.5 4.5v-168q50 -11 97 -11q53 0 91.5 12t58.5 28.5t31 42t13.5 44.5t2.5 45v154h84v-315h324q78 0 129 43.5t51 114.5q0 68 -44 116t-136 48h-100v161zM697 112v98h17q24 0 38.5 -12t14.5 -36q0 -23 -14 -36.5t-39 -13.5h-17z" />
    <glyph glyph-name="afii10107" unicode="&#x45a;" horiz-adv-x="981" 
d="M131 -6v495h236v-65h75v-96h4v161h236v-65h75v-96h19q54 0 99.5 -21t65.5 -61q96 -41 96 -153q0 -74 -53 -119t-133 -45h-330v65h-75v103h-4v-168h-236v65h-75zM137 0h224v168h91v-168h324q78 0 129 43.5t51 114.5q0 68 -44 116t-136 48h-100v161h-224v-161h-91v161h-224
v-483zM676 112v98h17q24 0 38.5 -12t14.5 -36q0 -23 -14 -36.5t-39 -13.5h-17z" />
    <glyph glyph-name="afii10108" unicode="&#x45b;" horiz-adv-x="767" 
d="M166 -6v495h-9v65h-75v117h84v70h236v-65h75v-5h114v-65h75v-117h-30q36 -23 58 -57q61 -27 83 -81t22 -134v-288h-236v65h-75v245q-11 -20 -11 -59v-251h-236v65h-75zM172 0h224v245q0 43 16 67t41 24q41 0 41 -63v-273h224v282q0 222 -173 222q-95 0 -149 -77v133h189
v105h-189v70h-224v-70h-84v-105h84v-560z" />
    <glyph glyph-name="afii10109" unicode="&#x45c;" horiz-adv-x="729" 
d="M131 -6v495h236v-65h65l36 65h265l-49 -65h124l-176 -233l194 -262h-271l-38 65h-37l-38 66v-131h-236v65h-75zM137 0h224v214l122 -214h256l-189 256l171 227h-249l-111 -197v197h-224v-483zM333 614l132 173h231l-86 -65h161l-230 -173h-133l48 65h-123zM345 620h119
l214 161h-210z" />
    <glyph glyph-name="afii10110" unicode="&#x45e;" horiz-adv-x="705" 
d="M61 489h266l32 -65h43l41 -84l47 135q-52 -2 -96.5 20t-71.5 64q-42 19 -70.5 57.5t-35.5 89.5h148q1 -50 31 -65h43l1 -3q37 15 38 68h148q-8 -37 -20 -65h95q-8 -51 -37 -91.5t-78 -60.5h139l-28 -65h103l-299 -691h-238l33 65h-108l128 258zM71 483l251 -427
l-125 -252h224l294 679h-216l-73 -210l-103 210h-252zM358 700h-135q11 -66 61 -110t136 -44q87 0 137 44t61 110h-135q-6 -70 -62 -70q-57 0 -63 70z" />
    <glyph glyph-name="afii10193" unicode="&#x45f;" horiz-adv-x="739" 
d="M131 -6v495h236v-65h75v-264h11v329h236v-65h75v-495h-189v-140h-180v65h-75v75h-114v65h-75zM137 0h189v-140h168v140h189v483h-224v-329h-98v329h-224v-483z" />
    <glyph glyph-name="afii10050" unicode="&#x490;" horiz-adv-x="676" 
d="M138 -6v712h294v140h236v-65h75v-348h-238v-504h-292v65h-75zM144 0h280v504h238v336h-224v-140h-294v-700z" />
    <glyph glyph-name="afii10098" unicode="&#x491;" horiz-adv-x="515" 
d="M131 -6v495h238v126h145v-65h75v-306h-147v-315h-236v65h-75zM137 0h224v315h147v294h-133v-126h-238v-483z" />
    <glyph glyph-name="endash" unicode="&#x2013;" horiz-adv-x="725" 
d="M124 288v117h558v-65h75v-117h-558v65h-75zM130 294h546v105h-546v-105z" />
    <glyph glyph-name="emdash" unicode="&#x2014;" horiz-adv-x="858" 
d="M103 356h733v-65h75v-131h-733v65h-75v131zM109 350v-119h721v119h-721z" />
    <glyph glyph-name="quoteleft" unicode="&#x2018;" horiz-adv-x="473" 
d="M453 741l-20 -65h95l-102 -327h-252l37 65h-112l189 327h165zM445 735h-154l-182 -315h238z" />
    <glyph glyph-name="quoteright" unicode="&#x2019;" horiz-adv-x="473" 
d="M101 414l102 327h252l-37 -65h112l-189 -327h-165l20 65h-95zM109 420h154l182 315h-238z" />
    <glyph glyph-name="quotesinglbase" unicode="&#x201a;" horiz-adv-x="473" 
d="M101 -146l102 327h252l-37 -65h112l-189 -327h-165l20 65h-95zM109 -140h154l182 315h-238z" />
    <glyph glyph-name="quotedblleft" unicode="&#x201c;" horiz-adv-x="739" 
d="M439 741l-20 -65h95l-6 -21l45 86h166l-20 -65h95l-102 -327h-238l35 65h-56l-21 -65h-238l35 65h-110l174 327h166zM431 735h-154l-168 -315h224zM711 735h-154l-168 -315h224z" />
    <glyph glyph-name="quotedblright" unicode="&#x201d;" horiz-adv-x="739" 
d="M101 414l102 327h238l-35 -65h56l21 65h238l-35 -65h110l-174 -327h-166l20 65h-95l6 21l-45 -86h-166l20 65h-95zM109 420h154l168 315h-224zM389 420h154l168 315h-224z" />
    <glyph glyph-name="quotedblbase" unicode="&#x201e;" horiz-adv-x="739" 
d="M101 -146l102 327h238l-35 -65h56l21 65h238l-35 -65h110l-174 -327h-166l20 65h-95l6 21l-45 -86h-166l20 65h-95zM109 -140h154l168 315h-224zM389 -140h154l168 315h-224z" />
    <glyph glyph-name="dagger" unicode="&#x2020;" horiz-adv-x="697" 
d="M278 -202v467h-100v65h-75v201h175v210h222v-65h75v-145h100v-65h75v-201h-175v-532h-222v65h-75zM284 -196h210v532h175v189h-175v210h-210v-210h-175v-189h175v-532z" />
    <glyph glyph-name="bullet" unicode="&#x2022;" horiz-adv-x="541" 
d="M125 350q0 77 54.5 131.5t131.5 54.5q97 0 155 -83q52 -26 79 -72t27 -96q0 -77 -54.5 -131.5t-131.5 -54.5q-97 0 -155 83q-52 26 -79 72t-27 96zM131 350q0 -75 52.5 -127.5t127.5 -52.5t127.5 52.5t52.5 127.5t-52.5 127.5t-127.5 52.5t-127.5 -52.5t-52.5 -127.5z
" />
    <glyph glyph-name="ellipsis" unicode="&#x2026;" horiz-adv-x="1071" 
d="M138 84q0 44 32 76t76 32q32 0 59.5 -18t40.5 -50q39 -10 61 -40.5t22 -64.5q0 -44 -32 -76t-76 -32q-32 0 -59.5 18t-40.5 50q-39 10 -61 40.5t-22 64.5zM468 84q0 44 32 76t76 32q32 0 59.5 -18t40.5 -50q39 -10 61 -40.5t22 -64.5q0 -44 -32 -76t-76 -32
q-32 0 -59.5 18t-40.5 50q-39 10 -61 40.5t-22 64.5zM798 84q0 44 32 76t76 32q32 0 59.5 -18t40.5 -50q39 -10 61 -40.5t22 -64.5q0 -44 -32 -76t-76 -32q-32 0 -59.5 18t-40.5 50q-39 10 -61 40.5t-22 64.5zM144 84q0 -42 30 -72t72 -30t72 30t30 72t-30 72t-72 30
t-72 -30t-30 -72zM474 84q0 -42 30 -72t72 -30t72 30t30 72t-30 72t-72 30t-72 -30t-30 -72zM804 84q0 -42 30 -72t72 -30t72 30t30 72t-30 72t-72 30t-72 -30t-30 -72z" />
    <glyph glyph-name="perthousand" unicode="&#x2030;" horiz-adv-x="1389" 
d="M237 -27l177 283q-60 -13 -116 8.5t-91 72.5q-53 24 -82 74.5t-29 102.5q0 81 58.5 139.5t139.5 58.5q100 0 162 -86q38 -17 66.5 -52.5t39.5 -80.5l138 220h105l-463 -740h-105zM555 128l-138 -220h-105l463 740h105l-177 -283q60 13 116 -8.5t91 -72.5q44 -21 74 -62
q20 69 74 108.5t118 39.5q100 0 162 -86q53 -24 82 -74.5t29 -102.5q0 -81 -58.5 -139.5t-139.5 -58.5q-100 0 -162 86q-45 21 -74 62q-20 -69 -74 -108.5t-118 -39.5q-100 0 -162 86q-38 17 -66.5 52.5t-39.5 80.5zM248 -21h91l455 728h-91zM102 514q0 -79 56.5 -135.5
t135.5 -56.5t135.5 56.5t56.5 135.5t-56.5 135.5t-135.5 56.5t-135.5 -56.5t-56.5 -135.5zM218 514q0 32 22 54t54 22t54 -22t22 -54t-22 -54t-54 -22t-54 22t-22 54zM556 172q0 -79 56.5 -135.5t135.5 -56.5t135.5 56.5t56.5 135.5t-56.5 135.5t-135.5 56.5t-135.5 -56.5
t-56.5 -135.5zM672 172q0 32 22 54t54 22t54 -22t22 -54t-22 -54t-54 -22t-54 22t-22 54zM984 172q0 -79 56.5 -135.5t135.5 -56.5t135.5 56.5t56.5 135.5t-56.5 135.5t-135.5 56.5t-135.5 -56.5t-56.5 -135.5zM1100 172q0 32 22 54t54 22t54 -22t22 -54t-22 -54t-54 -22
t-54 22t-22 54z" />
    <glyph glyph-name="guilsinglleft" unicode="&#x2039;" horiz-adv-x="403" 
d="M278 13l-176 239l176 239l106 -65l-10 -13l85 -52l-128 -174l128 -173l-106 -66l-56 77zM280 21l95 60l-126 171l126 172l-95 59l-171 -231z" />
    <glyph glyph-name="guilsinglright" unicode="&#x203a;" horiz-adv-x="403" 
d="M206 491l56 -76l19 11l176 -239l-176 -239l-106 66l9 12l-84 53l128 173l-128 174zM204 483l-95 -59l126 -172l-126 -171l95 -60l171 231z" />
    <glyph glyph-name="Euro" unicode="&#x20ac;" 
d="M696 531h-33q-12 67 -50 97.5t-102 30.5q-85 0 -127.5 -63.5t-53.5 -188.5h286l-31 -68h-259v-34v-32h228l-30 -68h-193q7 -111 54 -169.5t126 -58.5q129 0 152 123h33l-9 -124q-65 -60 -220 -60q-161 0 -245 73t-107 216h-90l30 68h49q-2 11 -2 35q0 21 1 31h-78l30 68
h54q47 313 358 313q155 0 220 -59z" />
    <glyph glyph-name="afii61352" unicode="&#x2116;" horiz-adv-x="1320" 
d="M138 -6v712h271l38 -65h37l116 -198v263h257v-65h75v-123q62 76 164 76q112 0 170 -86q107 -52 107 -181q0 -114 -98 -181h-12v-65h75v-152h-334v65h-65v152h127q-37 28 -65 65q-41 21 -69 56v-338h-268l-38 65h-37l-119 204v-269h-257v65h-75zM144 0h245v350l203 -350
h259v700h-245v-343l-200 343h-262v-700zM1096 196q80 0 138 51t58 145t-58 145t-138 51t-138 -51t-58 -145t58 -145t138 -51zM1096 322q-22 0 -35.5 14t-17 28t-3.5 28t3.5 28t17 28t35.5 14t35.5 -14t17 -28t3.5 -28t-3.5 -28t-17 -28t-35.5 -14zM945 0h312v140h-312v-140z
" />
    <glyph glyph-name="trademark" unicode="&#x2122;" horiz-adv-x="873" 
d="M195 414v190h-70v102h272v-65h33l10 65h136l17 -65h38l17 65h136l10 -65h65l46 -292h-114l-10 65h-29l-18 -65h-94l-18 65h-29l-10 -65h-114l10 65h-85l20 125h-22v-190h-122v65h-75zM201 420h120v190h70v90h-260v-90h70v-190zM612 549l-41 151h-126l-44 -280h102l23 152
l44 -152h84l44 152l23 -152h102l-44 280h-126z" />
    <glyph glyph-name="hyphenminus" horiz-adv-x="466" 
d="M103 370h341v-65h75v-166h-341v65h-75v166zM109 364v-154h329v154h-329z" />
  </font>
</defs>
</svg>
