<?xml version="1.0" standalone="no"?>
<!DOCTYPE svg PUBLIC "-//W3C//DTD SVG 1.1//EN" "http://www.w3.org/Graphics/SVG/1.1/DTD/svg11.dtd" >
<svg xmlns="http://www.w3.org/2000/svg" xmlns:xlink="http://www.w3.org/1999/xlink" version="1.1">
<metadata>
Created by FontForge 20161013 at Mon Feb 21 17:52:03 2005
 By ,,,
Copyright (c) 1990 Neufville SL, Copyright (c) 1990-2000 ParaType, Inc. All Rights Reserved. Futura is a registered trade mark of Neufville SL.
</metadata>
<defs>
<font id="FuturaFuturisC-Italic" horiz-adv-x="590" >
  <font-face 
    font-family="FuturaFuturisC"
    font-weight="400"
    font-style="italic"
    font-stretch="normal"
    units-per-em="1000"
    panose-1="0 0 5 0 0 0 0 0 0 0"
    ascent="738"
    descent="-262"
    x-height="442"
    cap-height="700"
    bbox="-312 -262 1220 950"
    underline-thickness="50"
    underline-position="-200"
    slope="-7"
    unicode-range="U+0020-2122"
  />
<missing-glyph horiz-adv-x="233" 
 />
    <glyph glyph-name=".notdef" horiz-adv-x="233" 
 />
    <glyph glyph-name=".null" horiz-adv-x="0" 
 />
    <glyph glyph-name="nonmarkingreturn" horiz-adv-x="333" 
 />
    <glyph glyph-name="space" unicode=" " horiz-adv-x="233" 
 />
    <glyph glyph-name="space" unicode="&#xa0;" horiz-adv-x="233" 
 />
    <glyph glyph-name="exclam" unicode="!" horiz-adv-x="260" 
d="M178 156h-102l67 544h102zM120 118q27 0 43.5 -16t16.5 -44q0 -35 -21.5 -53.5t-51.5 -18.5q-26 0 -42.5 17.5t-16.5 42.5q0 31 20.5 51.5t51.5 20.5z" />
    <glyph glyph-name="quotedbl" unicode="&#x22;" horiz-adv-x="380" 
d="M226 700l-53 -280h-76l15 280h114zM396 700l-53 -280h-76l15 280h114z" />
    <glyph glyph-name="numbersign" unicode="#" horiz-adv-x="628" 
d="M405 0h-102l57 206h-122l-57 -206h-102l57 206h-113l27 92h113l32 118h-113l26 92h113l54 192h102l-54 -192h122l54 192h102l-54 -192h113l-26 -92h-113l-32 -118h113l-27 -92h-113zM387 298l32 118h-122l-32 -118h122z" />
    <glyph glyph-name="dollar" unicode="$" 
d="M549 595l-93 -50q-7 28 -34 48q-31 21 -71 21q-41 0 -71 -22t-30 -66q0 -53 64 -81l67 -29q139 -59 139 -198q0 -94 -56.5 -157t-146.5 -73l-12 -93h-78l12 94q-78 8 -126 69q-45 56 -45 135l108 23q-2 -54 22 -89q28 -42 91 -42q58 0 90.5 33t32.5 85q0 79 -87 119
l-63 29q-120 55 -120 165q0 73 48.5 130t129.5 64l10 89h78l-10 -89q56 -3 101 -44q32 -27 50 -71z" />
    <glyph glyph-name="percent" unicode="%" horiz-adv-x="846" 
d="M179 19l485 693l46 -29l-485 -693zM231 378q-74 0 -113.5 44t-39.5 106q0 70 48.5 124t136.5 54q74 0 113.5 -44t39.5 -106q0 -70 -48.5 -124t-136.5 -54zM237 452q41 0 69 28.5t28 73.5q0 36 -21 57t-56 21q-41 0 -69 -28.5t-28 -73.5q0 -36 21 -57t56 -21zM625 -6
q-74 0 -113.5 44t-39.5 106q0 70 48.5 124t136.5 54q74 0 113.5 -44t39.5 -106q0 -70 -48.5 -124t-136.5 -54zM631 68q41 0 69 28.5t28 73.5q0 36 -21 57t-56 21q-41 0 -69 -28.5t-28 -73.5q0 -36 21 -57t56 -21z" />
    <glyph glyph-name="ampersand" unicode="&#x26;" horiz-adv-x="676" 
d="M579 328l60 -71l-94 -95l109 -162h-130l-60 86q-29 -27 -65 -51q-74 -49 -159 -49q-89 0 -137 49t-48 126q0 116 111 198q35 25 73 47q-57 67 -57 142q0 67 45 116.5t138 49.5q44 0 76.5 -13.5t49 -35.5t24 -44t7.5 -45q0 -58 -41 -106q-31 -36 -97 -81l104 -151z
M410 162l-118 168q-51 -27 -84 -58q-47 -45 -47 -104q0 -45 26.5 -68.5t68.5 -23.5q38 0 82 28q38 24 72 58zM331 464l42 28q51 34 51 78q0 26 -17.5 40t-46.5 14q-30 0 -51 -16t-21 -51q0 -33 16 -55z" />
    <glyph glyph-name="quotesingle" unicode="'" horiz-adv-x="210" 
d="M226 700l-53 -280h-76l15 280h114z" />
    <glyph glyph-name="parenleft" unicode="(" horiz-adv-x="334" 
d="M229 -187l-99 -37q-49 143 -49 325q0 71 10 159q17 154 71 299q36 99 86 184l91 -36q-43 -76 -77 -167q-47 -129 -65 -280q-10 -90 -10 -165q0 -145 42 -282z" />
    <glyph glyph-name="parenright" unicode=")" horiz-adv-x="334" 
d="M125 706l99 37q49 -143 49 -325q0 -71 -10 -159q-17 -154 -71 -299q-36 -99 -86 -184l-91 36q43 76 77 167q47 129 65 280q10 90 10 165q0 146 -42 282z" />
    <glyph glyph-name="asterisk" unicode="*" horiz-adv-x="586" 
d="M199 657l108 -44l8 122h92l-22 -122l120 44l18 -88l-122 -29l65 -96l-80 -52l-54 103l-80 -103l-68 52l91 96l-116 35z" />
    <glyph glyph-name="plus" unicode="+" horiz-adv-x="520" 
d="M56 306v94h178v178h98v-178h178v-94h-178v-178h-98v178h-178z" />
    <glyph glyph-name="comma" unicode="," horiz-adv-x="260" 
d="M-43 -134l139 264l89 -34l-161 -260z" />
    <glyph glyph-name="hyphen" unicode="-" horiz-adv-x="332" 
d="M39 170l13 106h252l-13 -106h-252z" />
    <glyph glyph-name="hyphen" unicode="&#xad;" horiz-adv-x="332" 
d="M39 170l13 106h252l-13 -106h-252z" />
    <glyph glyph-name="period" unicode="." horiz-adv-x="260" 
d="M120 118q27 0 43.5 -16t16.5 -44q0 -35 -21.5 -53.5t-51.5 -18.5q-26 0 -42.5 17.5t-16.5 42.5q0 31 20.5 51.5t51.5 20.5z" />
    <glyph glyph-name="slash" unicode="/" horiz-adv-x="562" 
d="M-45 -184l514 927l80 -37l-514 -927z" />
    <glyph glyph-name="zero" unicode="0" 
d="M355 714q93 0 149 -76q61 -82 61 -226q0 -215 -104 -335q-79 -91 -184 -91q-93 0 -149 76q-61 82 -61 226q0 215 104 335q79 91 184 91zM288 82q63 0 110 69q61 91 61 258q0 105 -25 152q-28 57 -89 57q-63 0 -110 -69q-62 -91 -62 -258q0 -102 26 -152q30 -57 89 -57z
" />
    <glyph glyph-name="one" unicode="1" 
d="M238 0l74 602h-120l70 98h170l-86 -700h-108z" />
    <glyph glyph-name="two" unicode="2" 
d="M493 96l-11 -96h-470l280 294q66 69 98 109q45 58 45 114q0 42 -27 71q-29 30 -84 30q-58 0 -94 -43q-29 -35 -34 -85h-104q15 95 72 155q67 69 170 69q102 0 157 -55q50 -50 50 -133q0 -50 -17 -89t-51 -83q-31 -40 -115 -126l-129 -132h264z" />
    <glyph glyph-name="three" unicode="3" 
d="M216 523h-104q11 64 46 110q62 81 184 81q87 0 135.5 -47t48.5 -123q0 -12 -1 -24t-7.5 -35t-17.5 -42.5t-33 -40t-53 -32.5q85 -35 85 -144q0 -106 -64 -170q-68 -70 -183 -70q-130 0 -179 99q-23 48 -23 104h104q2 -45 26 -73q29 -34 87 -34q50 0 88 34t38 98
q0 52 -29.5 81t-75.5 29h-21l11 92h21q121 0 121 111q0 42 -23.5 66.5t-69.5 24.5q-47 0 -78 -30q-27 -25 -33 -65z" />
    <glyph glyph-name="four" unicode="4" 
d="M538 750l-67 -554h74l-13 -96h-74l-12 -100h-102l12 100h-346zM209 196h160l28 236z" />
    <glyph glyph-name="five" unicode="5" 
d="M563 700l-12 -96h-217l-48 -119q18 2 28 2q94 0 146 -54q58 -60 58 -166q0 -121 -76 -201q-77 -80 -208 -80q-151 0 -213 133l88 67q16 -44 51.5 -74t93.5 -30q71 0 113 47q45 49 45 125q0 68 -40 106q-33 31 -92 31q-82 0 -127 -61h-36l156 370h290z" />
    <glyph glyph-name="six" unicode="6" 
d="M440 724l70 -58l-195 -225q13 3 26 3q74 0 127 -45q67 -58 67 -166q0 -117 -78 -187q-69 -60 -174 -60q-99 0 -158 55q-61 57 -61 145q0 101 91 208zM311 348q-65 0 -103 -40.5t-38 -101.5q0 -52 30.5 -88t87.5 -36q65 0 103 40.5t38 101.5q0 52 -30.5 88t-87.5 36z" />
    <glyph glyph-name="seven" unicode="7" 
d="M32 28l420 576h-346l12 96h518l-519 -724z" />
    <glyph glyph-name="eight" unicode="8" 
d="M191 364q-59 48 -59 138q0 97 59.5 154.5t161.5 57.5q89 0 138 -47.5t49 -127.5q0 -121 -95 -175q74 -42 74 -152q0 -102 -65 -164t-174 -62q-90 0 -146.5 49.5t-56.5 135.5q0 41 10.5 75t24.5 54t32.5 35.5t28 20.5t18.5 8zM341 618q-49 0 -80 -32t-31 -82
q0 -46 29 -71.5t72 -25.5q50 0 80.5 32t30.5 84q0 44 -28.5 69.5t-72.5 25.5zM305 317q-58 0 -90 -36t-32 -90q0 -50 29 -79.5t79 -29.5q57 0 89.5 36t32.5 92q0 48 -29 77.5t-79 29.5z" />
    <glyph glyph-name="nine" unicode="9" 
d="M192 -24l-70 58l195 225q-13 -3 -26 -3q-32 0 -67 14t-60 36q-67 59 -67 162q0 116 78 186q69 60 174 60q99 0 158 -55q61 -57 61 -145q0 -101 -91 -208zM321 352q65 0 103 40.5t38 101.5q0 52 -30.5 88t-87.5 36q-65 0 -103 -40.5t-38 -101.5q0 -52 30.5 -88t87.5 -36z
" />
    <glyph glyph-name="colon" unicode=":" horiz-adv-x="260" 
d="M162 454q27 0 43.5 -16t16.5 -44q0 -35 -21.5 -53.5t-51.5 -18.5q-26 0 -42.5 17.5t-16.5 42.5q0 31 20.5 51.5t51.5 20.5zM120 118q27 0 43.5 -16t16.5 -44q0 -35 -21.5 -53.5t-51.5 -18.5q-26 0 -42.5 17.5t-16.5 42.5q0 31 20.5 51.5t51.5 20.5z" />
    <glyph glyph-name="semicolon" unicode=";" horiz-adv-x="260" 
d="M162 454q27 0 43.5 -16t16.5 -44q0 -35 -21.5 -53.5t-51.5 -18.5q-26 0 -42.5 17.5t-16.5 42.5q0 31 20.5 51.5t51.5 20.5zM-43 -134l139 264l89 -34l-161 -260z" />
    <glyph glyph-name="less" unicode="&#x3c;" horiz-adv-x="522" 
d="M33 392l456 222v-102l-346 -163l346 -163v-102l-456 222v86z" />
    <glyph glyph-name="equal" unicode="=" horiz-adv-x="522" 
d="M56 400v88h456v-88h-456zM56 230v88h456v-88h-456z" />
    <glyph glyph-name="greater" unicode="&#x3e;" horiz-adv-x="522" 
d="M489 306l-456 -222v102l346 163l-346 163v102l456 -222v-86z" />
    <glyph glyph-name="question" unicode="?" horiz-adv-x="450" 
d="M201 513h-104q0 68 25 114q47 87 161 87q76 0 116.5 -41t40.5 -111q0 -57 -20 -89.5t-56 -55.5q-32 -22 -111 -50q-38 -14 -52 -29t-14 -40q0 -20 12.5 -32.5t33.5 -12.5q31 0 47 23q13 17 15 48h104q-8 -55 -37 -96q-47 -67 -135 -67q-67 0 -105 37t-38 99q0 39 13 68.5
t38 47.5t44 27.5t47 18.5q62 21 80 33q31 21 31 66q0 12 -2 23t-17 26t-42 15q-43 0 -63 -37q-16 -27 -12 -72zM215 118q27 0 43.5 -16t16.5 -44q0 -35 -21.5 -53.5t-51.5 -18.5q-26 0 -42.5 17.5t-16.5 42.5q0 31 20.5 51.5t51.5 20.5z" />
    <glyph glyph-name="at" unicode="@" horiz-adv-x="764" 
d="M494 461l11 54h72l-41 -211q-6 -32 -6 -47q0 -22 10.5 -32t22.5 -10q16 0 35 13.5t29 28.5q15 21 25 63t10 79q0 97 -67.5 173t-192.5 76q-127 0 -213.5 -88t-86.5 -216q0 -91 48 -167t131 -107q58 -21 127 -21q108 0 206 43l18 -64q-99 -41 -226 -41q-155 0 -254 85
q-118 101 -118 273q0 159 103.5 262t261.5 103q143 0 237 -83.5t94 -226.5q0 -113 -50 -179q-22 -29 -54.5 -47.5t-66.5 -18.5q-11 0 -22.5 2t-31.5 18t-25 45q-50 -71 -131 -71q-62 0 -105 44.5t-43 123.5q0 97 57 154t127 57q16 0 33 -3.5t41 -19.5t35 -44zM360 223
q46 0 79.5 40t33.5 101q0 10 -2 21t-8.5 29t-24.5 29t-44 11q-45 0 -78 -36.5t-33 -99.5q0 -45 22 -70t55 -25z" />
    <glyph glyph-name="A" unicode="A" horiz-adv-x="688" 
d="M546 0l-53 170h-294l-98 -170h-119l439 740l241 -740h-116zM254 270h209l-75 236z" />
    <glyph glyph-name="B" unicode="B" horiz-adv-x="546" 
d="M144 700h120q51 0 85 -7t65 -30q64 -48 64 -142q0 -97 -78 -144q101 -37 101 -156q0 -112 -84 -172q-70 -49 -179 -49h-180zM240 600l-25 -201h40q66 0 92.5 34.5t26.5 78.5q0 88 -102 88h-32zM204 311l-26 -211h72q72 0 107.5 33.5t35.5 84.5q0 93 -126 93h-63z" />
    <glyph glyph-name="C" unicode="C" horiz-adv-x="646" 
d="M659 662l-15 -126q-73 78 -188 78q-118 0 -196.5 -81t-78.5 -213q0 -105 62 -169.5t164 -64.5q105 0 191 81l-16 -128q-80 -53 -194 -53q-141 0 -234 97q-85 89 -85 234q0 184 128 300q108 97 269 97q117 0 193 -52z" />
    <glyph glyph-name="D" unicode="D" horiz-adv-x="670" 
d="M144 700h127q55 0 89 -2.5t86 -18.5t91 -47q106 -83 106 -248q0 -211 -161 -317q-100 -67 -259 -67h-165zM240 600l-62 -500h65q114 0 182 50q106 78 106 226q0 118 -68 175q-60 49 -188 49h-35z" />
    <glyph glyph-name="E" unicode="E" horiz-adv-x="518" 
d="M530 700l-12 -100h-278l-21 -168h270l-12 -100h-270l-29 -232h278l-12 -100h-386l86 700h386z" />
    <glyph glyph-name="F" unicode="F" horiz-adv-x="466" 
d="M494 700l-12 -100h-242l-21 -168h234l-12 -100h-234l-41 -332h-108l86 700h350z" />
    <glyph glyph-name="G" unicode="G" horiz-adv-x="780" 
d="M454 264l13 100h288l-3 -22q-20 -141 -87 -224q-14 -18 -33 -35.5t-53.5 -42t-84.5 -39.5t-105 -15q-142 0 -235 97q-85 89 -85 233q0 185 127 301q109 97 270 97q130 0 217 -67q41 -32 67 -76l-85 -72q-70 115 -214 115q-117 0 -193.5 -80.5t-76.5 -211.5
q0 -107 61 -171.5t160 -64.5q12 0 26 1.5t46 11t58 26.5t54 53.5t42 85.5h-174z" />
    <glyph glyph-name="H" unicode="H" horiz-adv-x="674" 
d="M252 700l-33 -274h298l33 274h108l-86 -700h-108l40 326h-298l-40 -326h-108l86 700h108z" />
    <glyph glyph-name="I" unicode="I" horiz-adv-x="268" 
d="M144 700h108l-86 -700h-108z" />
    <glyph glyph-name="J" unicode="J" horiz-adv-x="376" 
d="M252 700h108l-55 -453q-14 -110 -42 -160q-58 -101 -175 -101q-68 0 -125 36l63 90q28 -26 69 -26q49 0 75 47q16 26 27 113z" />
    <glyph glyph-name="K" unicode="K" horiz-adv-x="610" 
d="M252 700l-34 -282l304 282h140l-354 -320l270 -380h-138l-233 336l-41 -336h-108l86 700h108z" />
    <glyph glyph-name="L" unicode="L" horiz-adv-x="408" 
d="M144 700h108l-74 -600h204l-12 -100h-312z" />
    <glyph glyph-name="M" unicode="M" horiz-adv-x="888" 
d="M150 0h-112l240 752l178 -544l311 544l39 -752h-106l-20 422l-257 -454l-148 455z" />
    <glyph glyph-name="N" unicode="N" horiz-adv-x="774" 
d="M166 0h-108l92 746l440 -530l60 484h108l-91 -742l-441 530z" />
    <glyph glyph-name="O" unicode="O" horiz-adv-x="824" 
d="M461 714q156 0 251 -97q85 -88 85 -231q0 -187 -128 -303q-109 -97 -264 -97q-156 0 -251 97q-85 88 -85 231q0 187 128 303q109 97 264 97zM409 86q120 0 198 80.5t78 212.5q0 107 -62 171t-166 64q-120 0 -198 -80.5t-78 -212.5q0 -107 62 -171t166 -64z" />
    <glyph glyph-name="P" unicode="P" horiz-adv-x="498" 
d="M144 700h144q99 0 155 -41q69 -50 69 -153q0 -114 -84 -173q-70 -49 -179 -49h-48l-35 -284h-108zM239 600l-26 -216h48q72 0 107.5 33.5t35.5 84.5q0 98 -120 98h-45z" />
    <glyph glyph-name="Q" unicode="Q" horiz-adv-x="824" 
d="M636 -14l-41 46q-84 -46 -189 -46q-157 0 -252 97q-85 88 -85 231q0 187 128 303q109 97 264 97q156 0 251 -97q85 -88 85 -231q0 -177 -120 -295l93 -105h-134zM513 277l95 -108q77 84 77 210q0 107 -62 171t-166 64q-120 0 -198 -80.5t-78 -212.5q0 -108 62 -171.5
t166 -63.5q65 0 119 24l-149 167h134z" />
    <glyph glyph-name="R" unicode="R" horiz-adv-x="556" 
d="M144 700h143q99 0 155 -41q69 -51 69 -151q0 -110 -84 -169q-41 -29 -95 -40l182 -299h-128l-165 287h-20l-35 -287h-108zM240 600l-28 -221h48q66 0 104.5 32.5t38.5 89.5q0 50 -30.5 74.5t-82.5 24.5h-50z" />
    <glyph glyph-name="S" unicode="S" horiz-adv-x="538" 
d="M523 595l-93 -50q-7 28 -34 48q-31 21 -71 21q-41 0 -71 -22t-30 -66q0 -53 64 -81l67 -29q139 -59 139 -198q0 -103 -67 -167.5t-176 -64.5q-108 0 -164 72q-45 56 -45 135l108 23q-2 -54 22 -89q28 -42 91 -42q58 0 90.5 33t32.5 85q0 79 -87 119l-63 29
q-120 55 -120 165q0 79 56 138.5t157 59.5q88 0 144 -48q33 -30 50 -71z" />
    <glyph glyph-name="T" unicode="T" horiz-adv-x="448" 
d="M490 600h-160l-74 -600h-108l74 600h-160l12 100h428z" />
    <glyph glyph-name="U" unicode="U" horiz-adv-x="678" 
d="M144 700h108l-52 -422q-4 -38 -4 -57q0 -64 33 -98q35 -37 98 -37q94 0 139 71q26 42 36 121l52 422h108l-55 -450q-13 -111 -83 -182q-80 -82 -206 -82q-122 0 -186 82q-45 59 -45 139q0 29 2 43z" />
    <glyph glyph-name="V" unicode="V" horiz-adv-x="630" 
d="M68 700h116l138 -488l258 488h110l-402 -744z" />
    <glyph glyph-name="W" unicode="W" horiz-adv-x="986" 
d="M68 700h116l125 -468l244 502l132 -502l249 468h112l-398 -744l-128 495l-245 -495z" />
    <glyph glyph-name="X" unicode="X" horiz-adv-x="572" 
d="M-12 0l265 365l-152 335h118l107 -243l169 243h122l-243 -335l166 -365h-118l-120 272l-192 -272h-122z" />
    <glyph glyph-name="Y" unicode="Y" horiz-adv-x="566" 
d="M207 0l37 302l-180 398h122l126 -288l200 288h118l-278 -398l-37 -302h-108z" />
    <glyph glyph-name="Z" unicode="Z" horiz-adv-x="578" 
d="M612 700l-416 -600h334l-12 -100h-510l420 600h-290l12 100h462z" />
    <glyph glyph-name="bracketleft" unicode="[" horiz-adv-x="326" 
d="M337 643h-90l-94 -761h90l-11 -92h-192l116 945h192z" />
    <glyph glyph-name="backslash" unicode="\" horiz-adv-x="562" 
d="M517 -185l-88 -37l-286 928l88 37z" />
    <glyph glyph-name="bracketright" unicode="]" horiz-adv-x="326" 
d="M9 -118h90l94 761h-90l11 92h192l-116 -945h-192z" />
    <glyph glyph-name="asciicircum" unicode="^" horiz-adv-x="524" 
d="M316 622l-166 -252h-110l220 330h132l140 -330h-110z" />
    <glyph glyph-name="underscore" unicode="_" horiz-adv-x="420" 
d="M0 -150v90h420v-90h-420z" />
    <glyph glyph-name="grave" unicode="`" horiz-adv-x="512" 
d="M290 508l-145 152l101 48l105 -164z" />
    <glyph glyph-name="a" unicode="a" horiz-adv-x="552" 
d="M414 390l6 52h102l-54 -442h-102l5 46q-48 -60 -136 -60q-82 0 -136 54.5t-54 152.5q0 121 69 191t167 70q88 0 133 -64zM285 362q-61 0 -97.5 -47t-36.5 -113q0 -52 30.5 -88t84.5 -36q55 0 94 41t39 115q0 61 -31 94.5t-83 33.5z" />
    <glyph glyph-name="b" unicode="b" horiz-adv-x="552" 
d="M232 735l-42 -345q51 64 133 64q87 0 140.5 -54t53.5 -147q0 -112 -64.5 -189.5t-166.5 -77.5q-89 0 -139 60l-5 -46h-102l90 735h102zM296 362q-57 0 -95 -43t-38 -119q0 -64 34.5 -93t83.5 -29q57 0 93.5 45.5t36.5 115.5q0 58 -32 90.5t-83 32.5z" />
    <glyph glyph-name="c" unicode="c" horiz-adv-x="438" 
d="M436 422l-17 -134q-37 74 -120 74q-65 0 -106.5 -44.5t-41.5 -114.5q0 -56 30 -90.5t84 -34.5q86 0 138 75l-16 -134q-59 -33 -131 -33q-109 0 -165 68q-46 55 -46 139q0 127 91 204q67 57 170 57q75 0 130 -32z" />
    <glyph glyph-name="d" unicode="d" horiz-adv-x="552" 
d="M414 390l42 345h102l-90 -735h-102l5 46q-48 -60 -136 -60q-82 0 -136 54.5t-54 152.5q0 121 69 191t167 70q88 0 133 -64zM285 362q-61 0 -97.5 -47t-36.5 -113q0 -52 30.5 -88t84.5 -36q55 0 94 41t39 115q0 61 -31 94.5t-83 33.5z" />
    <glyph glyph-name="e" unicode="e" horiz-adv-x="506" 
d="M378 163l80 -48q-21 -42 -61 -75q-67 -54 -155 -54t-142.5 55t-54.5 147q0 116 64 191t174 75q112 0 159 -80q26 -44 26 -115q0 -34 -3 -63h-316q-3 -44 22 -81t86 -37q39 0 72 24q32 23 49 61zM164 280h205q-4 36 -29.5 59t-64.5 23q-41 0 -70.5 -22.5t-40.5 -59.5z" />
    <glyph glyph-name="f" unicode="f" horiz-adv-x="284" 
d="M311 350h-112l-43 -350h-102l43 350h-56l11 92h56l18 140q12 92 60 133q40 33 100 33q33 0 72 -16l-13 -104q-32 20 -63 20q-24 0 -38 -16q-11 -13 -16 -50l-18 -140h112z" />
    <glyph glyph-name="g" unicode="g" horiz-adv-x="552" 
d="M414 390l6 52h102l-51 -423q-12 -105 -58 -162q-64 -81 -187 -81q-80 0 -136.5 42t-65.5 121h102q17 -71 110 -71q63 0 97 43q24 30 34 104l4 31q-48 -60 -136 -60q-82 0 -136 54.5t-54 152.5q0 121 69 191t167 70q88 0 133 -64zM285 362q-61 0 -97.5 -47t-36.5 -113
q0 -52 30.5 -88t84.5 -36q55 0 94 41t39 115q0 61 -31 94.5t-83 33.5z" />
    <glyph glyph-name="h" unicode="h" horiz-adv-x="504" 
d="M40 0l90 735h102l-40 -331q51 50 125 50q89 0 123 -60q23 -40 13 -123l-33 -271h-102l33 271q7 47 -12 70q-17 21 -55 21q-49 0 -78 -29q-28 -28 -33 -76l-31 -257h-102z" />
    <glyph glyph-name="i" unicode="i" horiz-adv-x="226" 
d="M94 442h102l-54 -442h-102zM174 690q27 0 43.5 -16t16.5 -44q0 -35 -21.5 -53.5t-51.5 -18.5q-26 0 -42.5 17.5t-16.5 42.5q0 31 20.5 51.5t51.5 20.5z" />
    <glyph glyph-name="j" unicode="j" horiz-adv-x="226" 
d="M94 442h102l-80 -652h-102zM175 690q27 0 43.5 -16t16.5 -44q0 -35 -21.5 -53.5t-51.5 -18.5q-26 0 -42.5 17.5t-16.5 42.5q0 31 20.5 51.5t51.5 20.5z" />
    <glyph glyph-name="k" unicode="k" horiz-adv-x="460" 
d="M130 735h102l-54 -445l162 152h136l-208 -189l168 -253h-126l-141 220l-27 -220h-102z" />
    <glyph glyph-name="l" unicode="l" horiz-adv-x="226" 
d="M130 735h102l-90 -735h-102z" />
    <glyph glyph-name="m" unicode="m" horiz-adv-x="730" 
d="M40 0l54 442h102l-5 -41q50 53 117 53q79 0 106 -66q52 66 139 66t117 -70q12 -28 12 -65q0 -23 -3 -46l-33 -273h-102l35 283q1 6 1 19q0 60 -60 60q-41 0 -65 -26q-23 -24 -28 -68l-33 -268h-102l35 283q9 79 -57 79q-42 0 -67 -26q-23 -24 -28 -68l-33 -268h-102z" />
    <glyph glyph-name="n" unicode="n" horiz-adv-x="504" 
d="M40 0l54 442h102l-4 -38q51 50 125 50q89 0 123 -60q17 -29 17 -74q0 -17 -4 -49l-33 -271h-102l33 271q2 16 2 25q0 28 -14 45q-17 21 -55 21q-49 0 -78 -29q-28 -28 -33 -76l-31 -257h-102z" />
    <glyph glyph-name="o" unicode="o" horiz-adv-x="552" 
d="M302 454q93 0 154 -57.5t61 -158.5q0 -117 -75 -184.5t-182 -67.5q-92 0 -153.5 57.5t-61.5 156.5q0 104 70 179t187 75zM264 78q64 0 105.5 43t41.5 115q0 59 -31 92.5t-82 33.5q-64 0 -105.5 -43t-41.5 -115q0 -59 31 -92.5t82 -33.5z" />
    <glyph glyph-name="p" unicode="p" horiz-adv-x="552" 
d="M196 442l-6 -48q50 60 133 60q87 0 140.5 -54t53.5 -147q0 -111 -64.5 -189t-167.5 -78q-86 0 -138 60l-31 -256h-102l80 652h102zM296 362q-57 0 -95 -43t-38 -119q0 -59 31.5 -90.5t82.5 -31.5q60 0 97 45.5t37 115.5q0 58 -32 90.5t-83 32.5z" />
    <glyph glyph-name="q" unicode="q" horiz-adv-x="552" 
d="M414 394l6 48h102l-80 -652h-102l31 258q-48 -62 -136 -62q-82 0 -136 54.5t-54 152.5q0 121 69 191t167 70q86 0 133 -60zM285 362q-61 0 -97.5 -47t-36.5 -113q0 -52 30.5 -88t84.5 -36q55 0 94 41t39 115q0 61 -31 94.5t-83 33.5z" />
    <glyph glyph-name="r" unicode="r" horiz-adv-x="346" 
d="M40 0l54 442h102l-5 -40q44 52 111 52q45 0 81 -26l-58 -93q-21 21 -57 21q-43 0 -68 -30q-20 -23 -27 -76l-31 -250h-102z" />
    <glyph glyph-name="s" unicode="s" horiz-adv-x="374" 
d="M344 367l-90 -45q-2 17 -14 28.5t-31 11.5q-18 0 -28 -9.5t-10 -23.5q0 -6 1 -11t4.5 -9t6 -7t8.5 -7t9 -5.5l11 -5.5t11 -6q65 -35 89 -63q32 -37 32 -91q0 -57 -42.5 -97.5t-122.5 -40.5q-16 0 -32 3t-42.5 12t-48 33.5t-32.5 61.5l92 39q5 -27 23.5 -42t43.5 -15
t40 13.5t15 33.5q0 16 -10.5 30.5t-19 19.5t-23.5 13q-50 26 -68 42q-43 36 -43 90q0 61 40.5 97.5t106.5 36.5q98 0 124 -87z" />
    <glyph glyph-name="t" unicode="t" horiz-adv-x="252" 
d="M269 350h-78l-43 -350h-102l43 350h-44l11 92h44l20 158h102l-20 -158h78z" />
    <glyph glyph-name="u" unicode="u" horiz-adv-x="502" 
d="M94 442h102l-31 -254q0 -1 -1.5 -14.5t-1.5 -20.5q0 -33 18 -53q20 -22 59 -22q45 0 71 29q22 25 29 81l31 254h102l-31 -256q-11 -99 -64 -147q-58 -53 -146 -53q-57 0 -102 24q-69 39 -69 123q0 26 3 53z" />
    <glyph glyph-name="v" unicode="v" horiz-adv-x="470" 
d="M38 442h112l87 -252l143 252h116l-286 -472z" />
    <glyph glyph-name="w" unicode="w" horiz-adv-x="720" 
d="M369 254l-160 -284l-171 472h116l82 -252l155 290l97 -290l143 252h115l-279 -472z" />
    <glyph glyph-name="x" unicode="x" horiz-adv-x="520" 
d="M263 165l-139 -165h-130l211 239l-129 203h122l83 -130l113 130h126l-184 -208l156 -234h-124z" />
    <glyph glyph-name="y" unicode="y" horiz-adv-x="506" 
d="M1 -210l191 292l-154 360h124l100 -249l154 249h116l-407 -652h-124z" />
    <glyph glyph-name="z" unicode="z" horiz-adv-x="502" 
d="M518 442l-311 -348h254l-11 -94h-456l313 347h-218l11 95h418z" />
    <glyph glyph-name="braceleft" unicode="{" horiz-adv-x="512" 
d="M340 542l-20 -155q-7 -52 -21 -78q-21 -35 -59 -49q52 -25 52 -90q0 -25 -2 -37l-20 -155q-1 -8 -1 -24q0 -30 11 -43q15 -17 73 -17h8l-11 -88h-49q-74 0 -105 25q-34 28 -34 78q0 21 3 42l22 180q2 18 2 25q0 22 -13 39t-37 23l10 84q60 13 70 87l22 180q11 88 61 120
q38 25 111 25h49l-11 -88h-8q-58 0 -77 -17q-19 -16 -26 -67z" />
    <glyph glyph-name="bar" unicode="|" horiz-adv-x="504" 
d="M212 -262v1049h100v-1049h-100z" />
    <glyph glyph-name="braceright" unicode="}" horiz-adv-x="512" 
d="M210 -22l20 155q7 52 21 78q21 35 59 49q-52 25 -52 90q0 25 2 37l20 155q1 8 1 24q0 30 -11 43q-15 17 -73 17h-8l11 88h49q74 0 105 -25q34 -28 34 -78q0 -21 -3 -42l-22 -180q-2 -18 -2 -25q0 -22 13 -39t37 -23l-10 -84q-60 -13 -70 -87l-22 -180q-11 -88 -61 -120
q-38 -25 -111 -25h-49l11 88h8q58 0 77 17q19 16 26 67z" />
    <glyph glyph-name="asciitilde" unicode="~" horiz-adv-x="692" 
d="M571 437l57 -34q-32 -60 -81 -98q-38 -29 -91 -29q-37 0 -114 33q-65 28 -90 28q-28 0 -54 -23q-20 -19 -37 -48l-53 38q27 51 63 87q44 44 101 44q43 0 112 -32q62 -29 94 -29q31 0 54 18q19 14 39 45z" />
    <glyph glyph-name="currency" unicode="&#xa4;" horiz-adv-x="698" 
d="M95 693l104 -104q65 50 150 50t150 -50l104 104l57 -57l-104 -104q47 -61 47 -147q0 -85 -47 -146l104 -104l-57 -57l-104 104q-62 -51 -150 -51t-150 51l-104 -104l-57 57l104 104q-47 61 -47 146q0 86 47 147l-104 104zM349 221q68 0 114 46.5t46 117.5t-46 117.5
t-114 46.5t-114 -46.5t-46 -117.5t46 -117.5t114 -46.5z" />
    <glyph glyph-name="brokenbar" unicode="&#xa6;" horiz-adv-x="504" 
d="M212 409v378h100v-378h-100zM212 -262v377h100v-377h-100z" />
    <glyph glyph-name="section" unicode="&#xa7;" horiz-adv-x="588" 
d="M551 534h-100q8 42 -11 80t-78 38q-49 0 -75.5 -28.5t-26.5 -69.5q0 -57 64 -83q5 -2 74 -25q48 -17 77 -46q43 -43 43 -112q0 -67 -33 -113t-85 -68q61 -37 61 -119q0 -95 -59.5 -152t-154.5 -57q-71 0 -115.5 30t-60.5 77q-17 48 -8 97h100q-6 -38 14 -73t77 -35
q50 0 77.5 27t27.5 68q0 40 -24 64q-20 21 -89 43q-65 21 -98 53q-44 43 -44 115q0 66 32.5 113t87.5 67q-66 45 -66 122q0 90 60 145.5t157 55.5q49 0 85.5 -14.5t54 -37.5t28.5 -52t10 -57t-2 -53zM320 371q-48 0 -79 -33.5t-31 -80.5q0 -42 27 -67t66 -25q48 0 78.5 33
t30.5 81q0 41 -26 66.5t-66 25.5z" />
    <glyph glyph-name="copyright" unicode="&#xa9;" horiz-adv-x="792" 
d="M396 714q156 0 259.5 -104.5t103.5 -260.5t-103.5 -259.5t-259.5 -103.5t-259.5 103.5t-103.5 259.5t103.5 260.5t259.5 104.5zM396 660q-132 0 -217.5 -89t-85.5 -222q0 -132 85.5 -220.5t217.5 -88.5t217.5 88.5t85.5 220.5q0 133 -85.5 222t-217.5 89zM536 535v-91
q-57 52 -124 52q-63 0 -104.5 -42t-41.5 -106t41 -104t106 -40t123 53v-92q-59 -33 -124 -33q-97 0 -161.5 61.5t-64.5 154.5q0 96 65 158t165 62q63 0 120 -33z" />
    <glyph glyph-name="guillemotleft" unicode="&#xab;" horiz-adv-x="530" 
d="M150 228l114 -178l-74 -48l-144 226l200 226l62 -48zM346 228l114 -178l-74 -48l-144 226l200 226l62 -48z" />
    <glyph glyph-name="logicalnot" unicode="&#xac;" horiz-adv-x="522" 
d="M496 0h-102v188h-354v92h456v-280z" />
    <glyph glyph-name="registered" unicode="&#xae;" horiz-adv-x="792" 
d="M396 714q156 0 259.5 -104.5t103.5 -260.5t-103.5 -259.5t-259.5 -103.5t-259.5 103.5t-103.5 259.5t103.5 260.5t259.5 104.5zM396 660q-132 0 -217.5 -89t-85.5 -222q0 -132 85.5 -220.5t217.5 -88.5t217.5 88.5t85.5 220.5q0 133 -85.5 222t-217.5 89zM257 561h108
q150 0 150 -127q0 -47 -25 -77.5t-67 -38.5l140 -177h-90l-124 166h-20v-166h-72v420zM329 495v-122h27q87 0 87 61t-85 61h-29z" />
    <glyph glyph-name="degree" unicode="&#xb0;" horiz-adv-x="512" 
d="M149 548q0 64 44 108t108 44t108 -44t44 -108t-44 -108t-108 -44t-108 44t-44 108zM213 548q0 -40 25 -66t63 -26t63 26t25 66t-25 66t-63 26t-63 -26t-25 -66z" />
    <glyph glyph-name="plusminus" unicode="&#xb1;" horiz-adv-x="522" 
d="M56 367v94h179v171h98v-171h179v-94h-179v-171h-98v171h-179zM56 62v94h456v-94h-456z" />
    <glyph glyph-name="mu" unicode="&#xb5;" horiz-adv-x="544" 
d="M120 -180h-102l76 622h102l-26 -215q-12 -93 29 -127q25 -20 60 -20q55 0 94 52q26 35 34 101l25 209h102l-54 -442h-102l10 77q-20 -40 -53.5 -65.5t-70.5 -25.5q-30 0 -57 19t-38 55z" />
    <glyph glyph-name="mu" unicode="&#x3bc;" horiz-adv-x="544" 
d="M120 -180h-102l76 622h102l-26 -215q-12 -93 29 -127q25 -20 60 -20q55 0 94 52q26 35 34 101l25 209h102l-54 -442h-102l10 77q-20 -40 -53.5 -65.5t-70.5 -25.5q-30 0 -57 19t-38 55z" />
    <glyph glyph-name="paragraph" unicode="&#xb6;" horiz-adv-x="642" 
d="M279 -102h-86l53 435h-14q-12 0 -25 1t-41 9.5t-48 23.5t-36.5 47.5t-16.5 76.5q0 70 34.5 121t96.5 72q45 16 122 16h316l-10 -80h-69l-88 -722h-86l88 722h-102z" />
    <glyph glyph-name="periodcentered" unicode="&#xb7;" horiz-adv-x="233" 
d="M144 439q34 0 55 -20.5t21 -55.5q0 -42 -26 -65t-63 -23q-33 0 -54 21.5t-21 54.5q0 34 23 61t65 27z" />
    <glyph glyph-name="periodcentered" unicode="&#x2219;" horiz-adv-x="233" 
d="M144 439q34 0 55 -20.5t21 -55.5q0 -42 -26 -65t-63 -23q-33 0 -54 21.5t-21 54.5q0 34 23 61t65 27z" />
    <glyph glyph-name="guillemotright" unicode="&#xbb;" horiz-adv-x="530" 
d="M392 228l-114 178l74 48l144 -226l-200 -226l-62 48zM196 228l-114 178l74 48l144 -226l-200 -226l-62 48z" />
    <glyph glyph-name="afii10023" unicode="&#x401;" horiz-adv-x="518" 
d="M530 700l-12 -100h-278l-21 -168h270l-12 -100h-270l-29 -232h278l-12 -100h-386l86 700h386zM256 900q27 0 43.5 -16t16.5 -44q0 -35 -21.5 -53.5t-51.5 -18.5q-26 0 -42.5 17.5t-16.5 42.5q0 31 20.5 51.5t51.5 20.5zM460 900q27 0 43.5 -16t16.5 -44
q0 -35 -21.5 -53.5t-51.5 -18.5q-26 0 -42.5 17.5t-16.5 42.5q0 31 20.5 51.5t51.5 20.5z" />
    <glyph glyph-name="afii10051" unicode="&#x402;" horiz-adv-x="730" 
d="M562 600h-232l-23 -186q74 7 140 7q103 0 156 -33q82 -50 82 -162q0 -110 -64.5 -174t-169.5 -64q-69 0 -129 32l37 98q48 -30 101 -30q56 0 86.5 33t30.5 88q0 65 -52 94q-34 18 -103 18q-66 0 -127 -7l-39 -314h-108l74 600h-160l12 100h500z" />
    <glyph glyph-name="afii10052" unicode="&#x403;" horiz-adv-x="460" 
d="M494 700l-12 -100h-242l-74 -600h-108l86 700h350zM308 762l-45 40l164 148l83 -62z" />
    <glyph glyph-name="afii10053" unicode="&#x404;" horiz-adv-x="646" 
d="M659 662l-15 -126q-73 78 -188 78q-98 0 -169.5 -56t-94.5 -149h342l-12 -100h-341q1 -97 63.5 -160t162.5 -63q105 0 191 81l-16 -128q-80 -53 -194 -53q-141 0 -234 97q-85 89 -85 234q0 184 128 300q108 97 269 97q117 0 193 -52z" />
    <glyph glyph-name="afii10054" unicode="&#x405;" horiz-adv-x="538" 
d="M523 595l-93 -50q-7 28 -34 48q-31 21 -71 21q-41 0 -71 -22t-30 -66q0 -53 64 -81l67 -29q139 -59 139 -198q0 -103 -67 -167.5t-176 -64.5q-108 0 -164 72q-45 56 -45 135l108 23q-2 -54 22 -89q28 -42 91 -42q58 0 90.5 33t32.5 85q0 79 -87 119l-63 29
q-120 55 -120 165q0 79 56 138.5t157 59.5q88 0 144 -48q33 -30 50 -71z" />
    <glyph glyph-name="afii10055" unicode="&#x406;" horiz-adv-x="268" 
d="M144 700h108l-86 -700h-108z" />
    <glyph glyph-name="afii10056" unicode="&#x407;" horiz-adv-x="268" 
d="M144 700h108l-86 -700h-108zM140 893q26 0 40.5 -15.5t14.5 -39.5q0 -28 -17.5 -45.5t-45.5 -17.5q-26 0 -40.5 15.5t-14.5 39.5q0 28 17.5 45.5t45.5 17.5zM296 893q26 0 40.5 -15.5t14.5 -39.5q0 -28 -17.5 -45.5t-45.5 -17.5q-26 0 -40.5 15.5t-14.5 39.5
q0 28 17.5 45.5t45.5 17.5z" />
    <glyph glyph-name="afii10057" unicode="&#x408;" horiz-adv-x="376" 
d="M252 700h108l-55 -453q-14 -110 -42 -160q-58 -101 -175 -101q-68 0 -125 36l63 90q28 -26 69 -26q49 0 75 47q16 26 27 113z" />
    <glyph glyph-name="afii10058" unicode="&#x409;" horiz-adv-x="942" 
d="M215 700h447l-34 -282h78q110 0 165 -56q50 -50 50 -138q0 -113 -84 -175q-69 -49 -179 -49h-190l74 600h-231l-43 -349q-9 -73 -29.5 -126t-65.5 -89q-54 -42 -131 -42q-24 0 -50 6l12 100q17 -7 34 -7q43 0 70 24q40 34 56 166zM615 318l-27 -218h82q73 0 108 33.5
t35 84.5q0 34 -15 56.5t-39 31t-38.5 10.5t-29.5 2h-76z" />
    <glyph glyph-name="afii10059" unicode="&#x40a;" horiz-adv-x="938" 
d="M144 700h108l-34 -282h298l34 282h108l-34 -282h78q110 0 165 -56q50 -50 50 -138q0 -113 -84 -175q-69 -49 -179 -49h-190l39 318h-298l-39 -318h-108zM611 318l-27 -218h82q73 0 108 33.5t35 84.5q0 34 -15 56.5t-39 31t-38.5 10.5t-29.5 2h-76z" />
    <glyph glyph-name="afii10060" unicode="&#x40b;" horiz-adv-x="720" 
d="M574 700l-12 -100h-231l-23 -187q94 8 132 8q116 0 173 -51q54 -47 54 -123q0 -27 -2 -40l-26 -207h-108l23 191q2 13 2 40q0 48 -27 69q-26 21 -109 21q-61 0 -124 -8l-39 -313h-108l74 600h-161l12 100h500z" />
    <glyph glyph-name="afii10061" unicode="&#x40c;" horiz-adv-x="610" 
d="M252 700l-34 -282l304 282h140l-354 -320l270 -380h-138l-233 336l-41 -336h-108l86 700h108zM351 762l-45 40l164 148l83 -62z" />
    <glyph glyph-name="afii10062" unicode="&#x40e;" horiz-adv-x="600" 
d="M70 700h130l141 -367l205 367h112l-398 -700h-116l121 217zM220 873l88 37q5 -25 25 -41q22 -17 57 -17q33 0 61 17q26 16 35 41l80 -37q-26 -46 -67 -73q-51 -34 -119 -34q-71 0 -112 34q-34 25 -48 73z" />
    <glyph glyph-name="afii10145" unicode="&#x40f;" horiz-adv-x="664" 
d="M58 0l86 700h108l-74 -600h288l74 600h108l-86 -700h-202l-24 -190h-100l24 190h-202z" />
    <glyph glyph-name="afii10017" unicode="&#x410;" horiz-adv-x="688" 
d="M546 0l-53 170h-294l-98 -170h-119l439 740l241 -740h-116zM254 270h209l-75 236z" />
    <glyph glyph-name="afii10018" unicode="&#x411;" horiz-adv-x="546" 
d="M58 0l86 700h351l-12 -100h-243l-22 -182h68q110 0 165 -56q50 -50 50 -138q0 -113 -84 -175q-69 -49 -179 -49h-180zM205 318l-27 -218h72q73 0 108 33.5t35 84.5q0 34 -15 56.5t-39 31t-38.5 10.5t-29.5 2h-66z" />
    <glyph glyph-name="afii10019" unicode="&#x412;" horiz-adv-x="546" 
d="M144 700h120q51 0 85 -7t65 -30q64 -48 64 -142q0 -97 -78 -144q101 -37 101 -156q0 -112 -84 -172q-70 -49 -179 -49h-180zM240 600l-25 -201h40q66 0 92.5 34.5t26.5 78.5q0 88 -102 88h-32zM204 311l-26 -211h72q72 0 107.5 33.5t35.5 84.5q0 93 -126 93h-63z" />
    <glyph glyph-name="afii10020" unicode="&#x413;" horiz-adv-x="444" 
d="M494 700l-12 -100h-242l-74 -600h-108l86 700h350z" />
    <glyph glyph-name="afii10021" unicode="&#x414;" horiz-adv-x="680" 
d="M214 700h438l-75 -600h79l-31 -258h-100l19 158h-452l-19 -158h-100l31 258q26 1 49 13t38.5 30.5t23 30t12.5 21.5q33 64 47 184zM310 600l-28 -222q-16 -127 -47 -195q-21 -47 -61 -83h296l62 500h-222z" />
    <glyph glyph-name="afii10022" unicode="&#x415;" horiz-adv-x="518" 
d="M530 700l-12 -100h-278l-21 -168h270l-12 -100h-270l-29 -232h278l-12 -100h-386l86 700h386z" />
    <glyph glyph-name="afii10024" unicode="&#x416;" horiz-adv-x="888" 
d="M454 700h108l-35 -286l284 286h130l-332 -325l253 -375h-130l-216 330l-40 -330h-108l40 330l-290 -330h-136l339 375l-246 325h128l216 -286z" />
    <glyph glyph-name="afii10025" unicode="&#x417;" horiz-adv-x="594" 
d="M194 543l-63 68q46 50 98 75q59 28 127 28q95 0 145 -50q45 -45 45 -117q0 -109 -105 -162q36 -13 60.5 -36t33.5 -50t11.5 -42t2.5 -29q0 -129 -106 -196q-71 -46 -169 -46q-110 0 -182 67q-47 45 -69 102l100 49q14 -41 44 -71q47 -47 126 -47q54 0 92 23q56 32 56 102
q0 52 -35 81q-33 28 -116 28h-63l13 100h63q60 0 99 31q40 33 40 83q0 33 -21 54q-25 26 -77 26q-53 0 -96 -25q-27 -16 -54 -46z" />
    <glyph glyph-name="afii10026" unicode="&#x418;" horiz-adv-x="740" 
d="M530 0l57 467l-532 -497l89 730h108l-57 -467l533 497l-90 -730h-108z" />
    <glyph glyph-name="afii10027" unicode="&#x419;" horiz-adv-x="740" 
d="M530 0l57 467l-532 -497l89 730h108l-57 -467l533 497l-90 -730h-108zM284 873l88 37q5 -25 25 -41q22 -17 57 -17q33 0 61 17q26 16 35 41l80 -37q-26 -46 -67 -73q-51 -34 -119 -34q-71 0 -112 34q-34 25 -48 73z" />
    <glyph glyph-name="afii10028" unicode="&#x41a;" horiz-adv-x="610" 
d="M252 700l-34 -282l304 282h140l-354 -320l270 -380h-138l-233 336l-41 -336h-108l86 700h108z" />
    <glyph glyph-name="afii10029" unicode="&#x41b;" horiz-adv-x="678" 
d="M215 700h447l-86 -700h-108l74 600h-231l-43 -349q-9 -73 -29.5 -126t-65.5 -89q-54 -42 -131 -42q-24 0 -50 6l12 100q17 -7 34 -7q43 0 70 24q40 34 56 166z" />
    <glyph glyph-name="afii10030" unicode="&#x41c;" horiz-adv-x="888" 
d="M150 0h-112l240 752l178 -544l311 544l39 -752h-106l-20 422l-257 -454l-148 455z" />
    <glyph glyph-name="afii10031" unicode="&#x41d;" horiz-adv-x="674" 
d="M252 700l-33 -274h298l33 274h108l-86 -700h-108l40 326h-298l-40 -326h-108l86 700h108z" />
    <glyph glyph-name="afii10032" unicode="&#x41e;" horiz-adv-x="824" 
d="M461 714q156 0 251 -97q85 -88 85 -231q0 -187 -128 -303q-109 -97 -264 -97q-156 0 -251 97q-85 88 -85 231q0 187 128 303q109 97 264 97zM409 86q120 0 198 80.5t78 212.5q0 107 -62 171t-166 64q-120 0 -198 -80.5t-78 -212.5q0 -107 62 -171t166 -64z" />
    <glyph glyph-name="afii10033" unicode="&#x41f;" horiz-adv-x="674" 
d="M144 700h514l-86 -700h-108l74 600h-298l-74 -600h-108z" />
    <glyph glyph-name="afii10034" unicode="&#x420;" horiz-adv-x="498" 
d="M144 700h144q99 0 155 -41q69 -50 69 -153q0 -114 -84 -173q-70 -49 -179 -49h-48l-35 -284h-108zM239 600l-26 -216h48q72 0 107.5 33.5t35.5 84.5q0 98 -120 98h-45z" />
    <glyph glyph-name="afii10035" unicode="&#x421;" horiz-adv-x="646" 
d="M659 662l-15 -126q-73 78 -188 78q-118 0 -196.5 -81t-78.5 -213q0 -105 62 -169.5t164 -64.5q105 0 191 81l-16 -128q-80 -53 -194 -53q-141 0 -234 97q-85 89 -85 234q0 184 128 300q108 97 269 97q117 0 193 -52z" />
    <glyph glyph-name="afii10036" unicode="&#x422;" horiz-adv-x="448" 
d="M490 600h-160l-74 -600h-108l74 600h-160l12 100h428z" />
    <glyph glyph-name="afii10037" unicode="&#x423;" horiz-adv-x="600" 
d="M70 700h130l141 -367l205 367h112l-398 -700h-116l121 217z" />
    <glyph glyph-name="afii10038" unicode="&#x424;" horiz-adv-x="862" 
d="M355 0l12 99h-18q-126 0 -193 53q-84 65 -84 194q0 159 123 242q83 56 222 56h18l9 84h108l-9 -84h18q126 0 193 -53q84 -65 84 -194q0 -159 -123 -242q-83 -56 -222 -56h-18l-12 -99h-108zM380 199l42 345h-21q-88 0 -141 -32q-80 -50 -80 -162q0 -81 53 -121
q40 -30 126 -30h21zM530 544l-42 -345h21q88 0 141 32q80 50 80 162q0 81 -53 121q-40 30 -126 30h-21z" />
    <glyph glyph-name="afii10039" unicode="&#x425;" horiz-adv-x="572" 
d="M-12 0l265 365l-152 335h118l107 -243l169 243h122l-243 -335l166 -365h-118l-120 272l-192 -272h-122z" />
    <glyph glyph-name="afii10040" unicode="&#x426;" horiz-adv-x="688" 
d="M58 0l86 700h108l-74 -600h288l74 600h108l-74 -600h90l-31 -258h-100l19 158h-494z" />
    <glyph glyph-name="afii10041" unicode="&#x427;" horiz-adv-x="630" 
d="M420 0l35 287q-94 -8 -132 -8q-116 0 -173 51q-54 47 -54 123q0 27 2 40l26 207h108l-23 -191q-2 -13 -2 -40q0 -48 27 -69q26 -21 109 -21q61 0 124 8l39 313h108l-86 -700h-108z" />
    <glyph glyph-name="afii10042" unicode="&#x428;" horiz-adv-x="976" 
d="M178 100h246l74 600h108l-74 -600h246l74 600h108l-86 -700h-816l86 700h108z" />
    <glyph glyph-name="afii10043" unicode="&#x429;" horiz-adv-x="1000" 
d="M178 100h246l74 600h108l-74 -600h246l74 600h108l-74 -600h90l-31 -258h-100l19 158h-806l86 700h108z" />
    <glyph glyph-name="afii10044" unicode="&#x42a;" horiz-adv-x="620" 
d="M146 0l74 600h-158l12 100h266l-34 -282h78q110 0 165 -56q50 -50 50 -138q0 -113 -84 -175q-69 -49 -179 -49h-190zM293 318l-27 -218h82q73 0 108 33.5t35 84.5q0 34 -15 56.5t-39 31t-38.5 10.5t-29.5 2h-76z" />
    <glyph glyph-name="afii10045" unicode="&#x42b;" horiz-adv-x="768" 
d="M58 0l86 700h108l-34 -282h78q110 0 165 -56q50 -50 50 -138q0 -113 -84 -175q-69 -49 -179 -49h-190zM205 318l-27 -218h82q73 0 108 33.5t35 84.5q0 34 -15 56.5t-39 31t-38.5 10.5t-29.5 2h-76zM644 700h108l-86 -700h-108z" />
    <glyph glyph-name="afii10046" unicode="&#x42c;" horiz-adv-x="532" 
d="M58 0l86 700h108l-34 -282h78q110 0 165 -56q50 -50 50 -138q0 -113 -84 -175q-69 -49 -179 -49h-190zM205 318l-27 -218h82q73 0 108 33.5t35 84.5q0 34 -15 56.5t-39 31t-38.5 10.5t-29.5 2h-76z" />
    <glyph glyph-name="afii10047" unicode="&#x42d;" horiz-adv-x="648" 
d="M92 534l15 128q85 52 194 52q141 0 234 -97q86 -91 86 -234q0 -184 -129 -300q-108 -97 -269 -97q-118 0 -193 53l15 126q71 -79 188 -79q119 0 194 78q59 61 74 145h-344l12 100h337q-5 79 -51 133q-62 72 -173 72q-104 0 -190 -80z" />
    <glyph glyph-name="afii10048" unicode="&#x42e;" horiz-adv-x="1044" 
d="M218 422h103q25 119 113 197q106 95 257 95q148 0 241 -97q85 -89 85 -231q0 -187 -128 -303q-105 -97 -254 -97q-152 0 -243 97q-86 91 -83 239h-104l-39 -322h-108l86 700h108zM637 86q127 0 197.5 88.5t70.5 204.5q0 107 -60 171t-160 64q-127 0 -197.5 -88.5
t-70.5 -204.5q0 -107 60 -171t160 -64z" />
    <glyph glyph-name="afii10049" unicode="&#x42f;" horiz-adv-x="557" 
d="M-2 0l244 292q-67 10 -109 60q-40 48 -40 119q0 119 83 180q67 49 179 49h186l-86 -700h-108l34 280h-29l-220 -280h-134zM393 380l28 220h-80q-11 0 -22.5 -1t-34.5 -7.5t-40 -18t-30 -36t-13 -58.5q0 -99 122 -99h70z" />
    <glyph glyph-name="afii10065" unicode="&#x430;" horiz-adv-x="552" 
d="M414 390l6 52h102l-54 -442h-102l5 46q-48 -60 -136 -60q-82 0 -136 54.5t-54 152.5q0 121 69 191t167 70q88 0 133 -64zM285 362q-61 0 -97.5 -47t-36.5 -113q0 -52 30.5 -88t84.5 -36q55 0 94 41t39 115q0 61 -31 94.5t-83 33.5z" />
    <glyph glyph-name="afii10066" unicode="&#x431;" horiz-adv-x="552" 
d="M465 735h105q-17 -54 -58.5 -93t-97.5 -53l-76 -19q-80 -20 -119 -66q-38 -45 -55 -113h3q59 63 150 63q81 0 138 -55q62 -62 62 -161q0 -105 -68.5 -178.5t-187.5 -73.5q-105 0 -163 66q-53 59 -53 164q0 71 21 155q33 129 85 193q59 73 149 94l74 17q71 16 91 60z
M264 78q64 0 105.5 43t41.5 115q0 59 -31 92.5t-82 33.5q-64 0 -105.5 -43t-41.5 -115q0 -59 31 -92.5t82 -33.5z" />
    <glyph glyph-name="afii10067" unicode="&#x432;" horiz-adv-x="458" 
d="M94 442h169q67 0 98 -26q34 -28 34 -76q0 -68 -63 -95q31 -8 52 -30q28 -31 28 -76q0 -73 -55 -111q-41 -28 -107 -28h-210zM175 270h58q27 0 42 9q20 13 20 36q0 22 -16 34q-12 9 -46 9h-47zM153 84h81q37 0 55 13q21 15 21 41q0 22 -17 36q-14 12 -52 12h-76z" />
    <glyph glyph-name="afii10068" unicode="&#x433;" horiz-adv-x="340" 
d="M40 0l54 442h270l-11 -92h-168l-43 -350h-102z" />
    <glyph glyph-name="afii10069" unicode="&#x434;" horiz-adv-x="510" 
d="M136 442h332l-43 -350h66l-27 -218h-94l16 126h-310l-16 -126h-94l27 218q58 6 89 58q24 42 33 117zM323 92l32 258h-132l-15 -122q-11 -96 -69 -136h184z" />
    <glyph glyph-name="afii10070" unicode="&#x435;" horiz-adv-x="506" 
d="M378 163l80 -48q-21 -42 -61 -75q-67 -54 -155 -54t-142.5 55t-54.5 147q0 116 64 191t174 75q112 0 159 -80q26 -44 26 -115q0 -34 -3 -63h-316q-3 -44 22 -81t86 -37q39 0 72 24q32 23 49 61zM164 280h205q-4 36 -29.5 59t-64.5 23q-41 0 -70.5 -22.5t-40.5 -59.5z" />
    <glyph glyph-name="afii10072" unicode="&#x436;" horiz-adv-x="654" 
d="M308 442h102l-20 -164l154 164h124l-196 -204l158 -238h-124l-125 196l-25 -196h-102l25 196l-169 -196h-130l218 242l-148 200h124l114 -164z" />
    <glyph glyph-name="afii10073" unicode="&#x437;" horiz-adv-x="458" 
d="M141 328l-59 58q38 31 69 45q50 23 108 23q73 0 109 -31q37 -31 37 -80q0 -68 -71 -98q30 -7 51 -28q28 -28 28 -76q0 -76 -72 -121q-54 -34 -132 -34q-79 0 -125 37q-33 25 -55 68l88 42q11 -26 33 -43q25 -20 66 -20q38 0 63 15q28 17 28 51q0 26 -20 42q-17 12 -56 12
h-49l10 84h50q29 0 43 10q20 13 20 39q0 23 -18 36q-15 11 -43 11q-33 0 -62 -14q-23 -10 -41 -28z" />
    <glyph glyph-name="afii10074" unicode="&#x438;" horiz-adv-x="530" 
d="M94 442h102l-30 -247l340 287l-60 -482h-102l32 253l-340 -287z" />
    <glyph glyph-name="afii10075" unicode="&#x439;" horiz-adv-x="530" 
d="M94 442h102l-30 -247l340 287l-60 -482h-102l32 253l-340 -287zM414 688l81 -24q-23 -58 -68 -89q-47 -35 -117 -35q-64 0 -108 39q-38 34 -47 85l87 24q5 -32 23 -48q20 -20 55 -20q36 0 60 19q21 17 34 49z" />
    <glyph glyph-name="afii10076" unicode="&#x43a;" horiz-adv-x="460" 
d="M196 442l-20 -162l171 162h132l-213 -200l170 -242h-128l-141 204l-25 -204h-102l54 442h102z" />
    <glyph glyph-name="afii10077" unicode="&#x43b;" horiz-adv-x="490" 
d="M460 442l-54 -442h-102l43 350h-132l-22 -178q-10 -85 -56 -130q-47 -44 -123 -44q-10 0 -28 2l11 92q12 -2 18 -2q34 0 56 22q20 20 24 58l33 272h332z" />
    <glyph glyph-name="afii10078" unicode="&#x43c;" horiz-adv-x="608" 
d="M98 0h-106l165 482l143 -336l223 336l49 -482h-100l-22 224l-172 -258l-110 256z" />
    <glyph glyph-name="afii10079" unicode="&#x43d;" horiz-adv-x="512" 
d="M196 442l-20 -164h184l20 164h102l-54 -442h-102l23 186h-184l-23 -186h-102l54 442h102z" />
    <glyph glyph-name="afii10080" unicode="&#x43e;" horiz-adv-x="552" 
d="M302 454q93 0 154 -57.5t61 -158.5q0 -117 -75 -184.5t-182 -67.5q-92 0 -153.5 57.5t-61.5 156.5q0 104 70 179t187 75zM264 78q64 0 105.5 43t41.5 115q0 59 -31 92.5t-82 33.5q-64 0 -105.5 -43t-41.5 -115q0 -59 31 -92.5t82 -33.5z" />
    <glyph glyph-name="afii10081" unicode="&#x43f;" horiz-adv-x="508" 
d="M94 442h384l-54 -442h-102l43 350h-180l-43 -350h-102z" />
    <glyph glyph-name="afii10082" unicode="&#x440;" horiz-adv-x="552" 
d="M196 442l-6 -48q50 60 133 60q87 0 140.5 -54t53.5 -147q0 -111 -64.5 -189t-167.5 -78q-86 0 -138 60l-31 -256h-102l80 652h102zM296 362q-57 0 -95 -43t-38 -119q0 -59 31.5 -90.5t82.5 -31.5q60 0 97 45.5t37 115.5q0 58 -32 90.5t-83 32.5z" />
    <glyph glyph-name="afii10083" unicode="&#x441;" horiz-adv-x="438" 
d="M436 422l-17 -134q-37 74 -120 74q-65 0 -106.5 -44.5t-41.5 -114.5q0 -56 30 -90.5t84 -34.5q86 0 138 75l-16 -134q-59 -33 -131 -33q-109 0 -165 68q-46 55 -46 139q0 127 91 204q67 57 170 57q75 0 130 -32z" />
    <glyph glyph-name="afii10084" unicode="&#x442;" horiz-adv-x="378" 
d="M391 350h-130l-43 -350h-102l43 350h-130l11 92h362z" />
    <glyph glyph-name="afii10085" unicode="&#x443;" horiz-adv-x="506" 
d="M1 -210l191 292l-154 360h124l100 -249l154 249h116l-407 -652h-124z" />
    <glyph glyph-name="afii10086" unicode="&#x444;" horiz-adv-x="698" 
d="M250 -210l25 203q-105 2 -166 56q-62 55 -62 150q0 120 87 191q75 60 197 59l31 251h102l-31 -251q105 -2 166 -56q62 -55 62 -150q0 -120 -87 -191q-75 -60 -197 -59l-25 -203h-102zM287 85l33 272q-63 5 -111 -30q-56 -41 -56 -123q0 -66 45 -96q37 -25 89 -23z
M422 357l-33 -272q63 -5 111 30q56 41 56 123q0 66 -45 96q-37 25 -89 23z" />
    <glyph glyph-name="afii10087" unicode="&#x445;" horiz-adv-x="520" 
d="M263 165l-139 -165h-130l211 239l-129 203h122l83 -130l113 130h126l-184 -208l156 -234h-124z" />
    <glyph glyph-name="afii10088" unicode="&#x446;" horiz-adv-x="524" 
d="M40 0l54 442h102l-43 -350h176l43 350h102l-43 -350h74l-27 -218h-94l16 126h-360z" />
    <glyph glyph-name="afii10089" unicode="&#x447;" horiz-adv-x="466" 
d="M280 0l21 171q-54 -9 -92 -9q-71 0 -109 32q-35 30 -35 75q0 9 2 31l17 142h102l-15 -121q-1 -6 -1 -18q0 -31 21 -43q16 -10 50 -10q38 0 71 11l22 181h102l-54 -442h-102z" />
    <glyph glyph-name="afii10090" unicode="&#x448;" horiz-adv-x="726" 
d="M153 92h148l43 350h102l-43 -350h148l43 350h102l-54 -442h-602l54 442h102z" />
    <glyph glyph-name="afii10091" unicode="&#x449;" horiz-adv-x="746" 
d="M153 92h148l43 350h102l-43 -350h148l43 350h102l-43 -350h74l-27 -218h-94l16 126h-582l54 442h102z" />
    <glyph glyph-name="afii10092" unicode="&#x44a;" horiz-adv-x="456" 
d="M40 442h196l-19 -157h72q70 0 108 -42q30 -35 30 -88q0 -83 -56 -124q-43 -31 -106 -31h-185l43 350h-94zM192 88h53q38 0 57 14q19 16 19 45q0 22 -13 35q-15 15 -54 15h-48z" />
    <glyph glyph-name="afii10093" unicode="&#x44b;" horiz-adv-x="602" 
d="M94 442h102l-19 -157h72q70 0 108 -42q30 -35 30 -88q0 -83 -56 -124q-43 -31 -106 -31h-185zM470 442h102l-54 -442h-102zM152 88h53q38 0 57 14q19 16 19 45q0 22 -13 35q-15 15 -54 15h-48z" />
    <glyph glyph-name="afii10094" unicode="&#x44c;" horiz-adv-x="416" 
d="M94 442h102l-19 -157h72q70 0 108 -42q30 -35 30 -88q0 -83 -56 -124q-43 -31 -106 -31h-185zM152 88h53q38 0 57 14q19 16 19 45q0 22 -13 35q-15 15 -54 15h-48z" />
    <glyph glyph-name="afii10095" unicode="&#x44d;" horiz-adv-x="446" 
d="M59 333l10 98q56 23 131 23q109 0 165 -68q46 -55 46 -139q0 -127 -91 -204q-68 -57 -170 -57q-68 0 -130 26l11 98q54 -32 122 -32q11 0 24 2t40 10.5t48.5 32.5t28.5 60h-204l11 92h201q-5 42 -38.5 64.5t-79.5 22.5q-62 0 -125 -29z" />
    <glyph glyph-name="afii10096" unicode="&#x44e;" horiz-adv-x="730" 
d="M176 278h64q14 58 53 101q68 75 187 75q94 0 154.5 -57.5t60.5 -156.5q0 -106 -67.5 -180t-181.5 -74t-170 70q-44 54 -44 130h-67l-23 -186h-102l54 442h102zM444 78q63 0 104 43.5t41 114.5q0 58 -31.5 92t-81.5 34q-62 0 -102.5 -43t-40.5 -113q0 -58 31.5 -93
t79.5 -35z" />
    <glyph glyph-name="afii10097" unicode="&#x44f;" horiz-adv-x="436" 
d="M-14 0l161 175q-33 6 -57 27q-35 31 -35 88q0 80 56 121q43 31 106 31h189l-54 -442h-102l20 163h-25l-135 -163h-124zM281 247l13 107h-70q-39 0 -57 -14q-20 -15 -20 -43q0 -22 14 -36q15 -14 54 -14h66z" />
    <glyph glyph-name="afii10071" unicode="&#x451;" horiz-adv-x="509" 
d="M378 163l80 -48q-21 -42 -61 -75q-67 -54 -155 -54t-142.5 55t-54.5 147q0 116 64 191t174 75q112 0 159 -80q26 -44 26 -115q0 -34 -3 -63h-316q-3 -44 22 -81t86 -37q39 0 72 24q32 23 49 61zM164 280h205q-4 36 -29.5 59t-64.5 23q-41 0 -70.5 -22.5t-40.5 -59.5z
M221 690q27 0 43.5 -16t16.5 -44q0 -35 -21.5 -53.5t-51.5 -18.5q-26 0 -42.5 17.5t-16.5 42.5q0 31 20.5 51.5t51.5 20.5zM411 690q27 0 43.5 -16t16.5 -44q0 -35 -21.5 -53.5t-51.5 -18.5q-26 0 -42.5 17.5t-16.5 42.5q0 31 20.5 51.5t51.5 20.5z" />
    <glyph glyph-name="afii10099" unicode="&#x452;" horiz-adv-x="504" 
d="M40 0l69 564h-76l10 80h76l11 91h102l-11 -91h210l-10 -80h-210l-19 -160q51 50 125 50q89 0 123 -60q17 -29 17 -74q0 -17 -4 -49l-42 -343q-11 -87 -61 -123q-41 -29 -103 -29q-13 0 -19 1q-19 2 -44 9l10 88q19 -10 45 -10q37 0 54 23q13 17 19 63l39 321q2 16 2 25
q0 28 -14 45q-17 21 -55 21q-49 0 -78 -29q-28 -28 -33 -76l-31 -257h-102z" />
    <glyph glyph-name="afii10100" unicode="&#x453;" horiz-adv-x="373" 
d="M62 0l54 442h270l-11 -92h-168l-43 -350h-102zM360 708l87 -48l-183 -152l-51 36z" />
    <glyph glyph-name="afii10101" unicode="&#x454;" horiz-adv-x="446" 
d="M437 425l-15 -109q-46 46 -121 46q-45 0 -82.5 -22t-53.5 -65h204l-12 -94h-204q2 -45 32.5 -74t85.5 -29q71 0 129 48l-13 -108q-53 -32 -131 -32q-107 0 -165 68q-46 55 -46 139q0 127 91 204q67 57 179 57q71 0 122 -29z" />
    <glyph glyph-name="afii10102" unicode="&#x455;" horiz-adv-x="374" 
d="M344 367l-90 -45q-2 17 -14 28.5t-31 11.5q-18 0 -28 -9.5t-10 -23.5q0 -6 1 -11t4.5 -9t6 -7t8.5 -7t9 -5.5l11 -5.5t11 -6q65 -35 89 -63q32 -37 32 -91q0 -57 -42.5 -97.5t-122.5 -40.5q-16 0 -32 3t-42.5 12t-48 33.5t-32.5 61.5l92 39q5 -27 23.5 -42t43.5 -15
t40 13.5t15 33.5q0 16 -10.5 30.5t-19 19.5t-23.5 13q-50 26 -68 42q-43 36 -43 90q0 61 40.5 97.5t106.5 36.5q98 0 124 -87z" />
    <glyph glyph-name="afii10103" unicode="&#x456;" horiz-adv-x="226" 
d="M94 442h102l-54 -442h-102zM174 690q27 0 43.5 -16t16.5 -44q0 -35 -21.5 -53.5t-51.5 -18.5q-26 0 -42.5 17.5t-16.5 42.5q0 31 20.5 51.5t51.5 20.5z" />
    <glyph glyph-name="afii10104" unicode="&#x457;" horiz-adv-x="232" 
d="M94 442h102l-54 -442h-102zM107 666q23 0 35.5 -14t12.5 -34q0 -26 -17 -43t-43 -17q-23 0 -35.5 13.5t-12.5 34.5q0 27 17 43.5t43 16.5zM241 666q23 0 35.5 -14t12.5 -34q0 -26 -17 -43t-43 -17q-23 0 -35.5 13.5t-12.5 34.5q0 27 17 43.5t43 16.5z" />
    <glyph glyph-name="afii10105" unicode="&#x458;" horiz-adv-x="226" 
d="M94 442h102l-80 -652h-102zM175 690q27 0 43.5 -16t16.5 -44q0 -35 -21.5 -53.5t-51.5 -18.5q-26 0 -42.5 17.5t-16.5 42.5q0 31 20.5 51.5t51.5 20.5z" />
    <glyph glyph-name="afii10106" unicode="&#x459;" horiz-adv-x="680" 
d="M460 442l-19 -157h72q70 0 108 -42q30 -35 30 -88q0 -83 -56 -124q-43 -31 -106 -31h-185l43 350h-132l-22 -178q-10 -85 -56 -130q-47 -44 -123 -44q-10 0 -28 2l11 92q12 -2 18 -2q34 0 56 22q20 20 24 58l33 272h332zM416 88h53q40 0 57 14q20 16 20 45q0 21 -14 35
q-15 15 -54 15h-48z" />
    <glyph glyph-name="afii10107" unicode="&#x45a;" horiz-adv-x="702" 
d="M40 0l54 442h102l-19 -157h184l19 157h102l-19 -157h72q70 0 108 -42q30 -35 30 -88q0 -83 -56 -124q-43 -31 -106 -31h-185l25 197h-184l-25 -197h-102zM438 88h53q40 0 57 14q20 16 20 45q0 21 -14 35q-15 15 -54 15h-48z" />
    <glyph glyph-name="afii10108" unicode="&#x45b;" horiz-adv-x="504" 
d="M40 0l69 564h-76l10 80h76l11 91h102l-11 -91h210l-10 -80h-210l-19 -160q51 50 125 50q89 0 123 -60q23 -40 13 -123l-33 -271h-102l33 271q7 47 -12 70q-17 21 -55 21q-49 0 -78 -29q-28 -28 -33 -76l-31 -257h-102z" />
    <glyph glyph-name="afii10109" unicode="&#x45c;" horiz-adv-x="460" 
d="M196 442l-20 -162l171 162h132l-213 -200l170 -242h-128l-141 204l-25 -204h-102l54 442h102zM369 708l87 -48l-183 -152l-51 36z" />
    <glyph glyph-name="afii10110" unicode="&#x45e;" horiz-adv-x="506" 
d="M1 -210l191 292l-154 360h124l100 -249l154 249h116l-407 -652h-124zM405 688l81 -24q-23 -58 -68 -89q-47 -35 -117 -35q-64 0 -108 39q-38 34 -47 85l87 24q5 -32 23 -48q20 -20 55 -20q36 0 60 19q21 17 34 49z" />
    <glyph glyph-name="afii10193" unicode="&#x45f;" horiz-adv-x="504" 
d="M40 0l54 442h102l-43 -350h176l43 350h102l-54 -442h-143l-18 -150h-94l18 150h-143z" />
    <glyph glyph-name="afii10050" unicode="&#x490;" horiz-adv-x="444" 
d="M58 0l86 700h250l20 158h100l-32 -258h-242l-74 -600h-108z" />
    <glyph glyph-name="afii10098" unicode="&#x491;" horiz-adv-x="340" 
d="M40 0l54 442h176l16 126h94l-27 -218h-168l-43 -350h-102z" />
    <glyph glyph-name="endash" unicode="&#x2013;" horiz-adv-x="604" 
d="M50 176l11 92h504l-11 -92h-504z" />
    <glyph glyph-name="emdash" unicode="&#x2014;" horiz-adv-x="834" 
d="M50 176l11 92h734l-11 -92h-734z" />
    <glyph glyph-name="quoteleft" unicode="&#x2018;" horiz-adv-x="300" 
d="M314 700l-139 -264l-89 34l162 260z" />
    <glyph glyph-name="quoteright" unicode="&#x2019;" horiz-adv-x="350" 
d="M85 466l139 264l90 -34l-163 -260z" />
    <glyph glyph-name="quotesinglbase" unicode="&#x201a;" horiz-adv-x="350" 
d="M11 -134l139 264l89 -34l-161 -260z" />
    <glyph glyph-name="quotedblleft" unicode="&#x201c;" horiz-adv-x="480" 
d="M494 700l-141 -264l-85 34l162 260zM312 700l-141 -264l-85 34l162 260z" />
    <glyph glyph-name="quotedblright" unicode="&#x201d;" horiz-adv-x="530" 
d="M85 466l141 264l86 -34l-163 -260zM267 466l141 264l86 -34l-163 -260z" />
    <glyph glyph-name="quotedblbase" unicode="&#x201e;" horiz-adv-x="530" 
d="M11 -134l141 264l85 -34l-161 -260zM193 -134l141 264l85 -34l-161 -260z" />
    <glyph glyph-name="dagger" unicode="&#x2020;" horiz-adv-x="586" 
d="M290 572l20 163h102l-20 -163h146l-11 -96h-146l-85 -686h-102l85 686h-146l11 96h146z" />
    <glyph glyph-name="daggerdbl" unicode="&#x2021;" horiz-adv-x="585" 
d="M289 572l20 163h102l-20 -163h146l-11 -96h-146l-34 -276h146l-11 -96h-147l-39 -314h-102l39 314h-145l11 96h146l34 276h-146l11 96h146z" />
    <glyph glyph-name="bullet" unicode="&#x2022;" horiz-adv-x="680" 
d="M370 503q60 0 99 -37.5t39 -102.5q0 -73 -44.5 -112.5t-105.5 -39.5q-65 0 -103.5 40.5t-38.5 99.5q0 66 43.5 109t110.5 43z" />
    <glyph glyph-name="ellipsis" unicode="&#x2026;" horiz-adv-x="780" 
d="M120 118q27 0 43.5 -16t16.5 -44q0 -35 -21.5 -53.5t-51.5 -18.5q-26 0 -42.5 17.5t-16.5 42.5q0 31 20.5 51.5t51.5 20.5zM380 118q27 0 43.5 -16t16.5 -44q0 -35 -21.5 -53.5t-51.5 -18.5q-26 0 -42.5 17.5t-16.5 42.5q0 31 20.5 51.5t51.5 20.5zM640 118
q27 0 43.5 -16t16.5 -44q0 -35 -21.5 -53.5t-51.5 -18.5q-26 0 -42.5 17.5t-16.5 42.5q0 31 20.5 51.5t51.5 20.5z" />
    <glyph glyph-name="perthousand" unicode="&#x2030;" horiz-adv-x="1256" 
d="M179 19l485 693l46 -29l-485 -693zM231 378q-74 0 -113.5 44t-39.5 106q0 70 48.5 124t136.5 54q74 0 113.5 -44t39.5 -106q0 -70 -48.5 -124t-136.5 -54zM237 452q41 0 69 28.5t28 73.5q0 36 -21 57t-56 21q-41 0 -69 -28.5t-28 -73.5q0 -36 21 -57t56 -21zM625 -6
q-74 0 -113.5 44t-39.5 106q0 70 48.5 124t136.5 54q74 0 113.5 -44t39.5 -106q0 -70 -48.5 -124t-136.5 -54zM631 68q41 0 69 28.5t28 73.5q0 36 -21 57t-56 21q-41 0 -69 -28.5t-28 -73.5q0 -36 21 -57t56 -21zM1035 -6q-74 0 -113.5 44t-39.5 106q0 70 48.5 124t136.5 54
q74 0 113.5 -44t39.5 -106q0 -70 -48.5 -124t-136.5 -54zM1041 68q41 0 69 28.5t28 73.5q0 36 -21 57t-56 21q-41 0 -69 -28.5t-28 -73.5q0 -36 21 -57t56 -21z" />
    <glyph glyph-name="guilsinglleft" unicode="&#x2039;" horiz-adv-x="336" 
d="M152 228l114 -176l-76 -50l-144 226l200 226l64 -50z" />
    <glyph glyph-name="guilsinglright" unicode="&#x203a;" horiz-adv-x="336" 
d="M196 228l-114 176l76 50l144 -226l-200 -226l-64 50z" />
    <glyph glyph-name="Euro" unicode="&#x20ac;" 
d="M605 671l-13 -107q-49 53 -151 53q-77 0 -127 -40t-70 -110h298l-40 -82h-280q-1 -8 -5 -30q-2 -29 -3 -35h255l-39 -83h-214q4 -74 44.5 -114t115.5 -40q97 0 163 54l-13 -108q-21 -16 -68 -29t-107 -13q-111 0 -173.5 62t-66.5 188h-81l39 83h44q0 6 2 34q3 21 6 31
h-73l39 82h51q34 114 109.5 180.5t193.5 66.5q55 0 99 -13t65 -30z" />
    <glyph glyph-name="afii61352" unicode="&#x2116;" horiz-adv-x="1106" 
d="M166 0h-108l92 746l403 -506l56 460h108l-91 -742l-403 506zM923 370q-74 0 -113.5 44t-39.5 107q0 71 48.5 125t136.5 54q74 0 113.5 -44t39.5 -107q0 -71 -48.5 -125t-136.5 -54zM927 446q43 0 71 28.5t28 72.5q0 35 -21 56t-54 21q-43 0 -71 -28.5t-28 -72.5
q0 -35 21 -56t54 -21zM751 213l11 84h296l-11 -84h-296z" />
    <glyph glyph-name="trademark" unicode="&#x2122;" horiz-adv-x="744" 
d="M250 632h-88v-332h-74v332h-88v68h250v-68zM348 300h-75l86 436l132 -294l134 294l85 -436h-75l-37 218l-107 -224l-107 224z" />
    <glyph glyph-name="hyphenminus" horiz-adv-x="332" 
d="M39 170l13 106h252l-13 -106h-252z" />
    <glyph glyph-name="accent" horiz-adv-x="2" 
d="M-129 708l87 -48l-183 -152l-51 36z" />
    <glyph glyph-name="Accent" horiz-adv-x="2" 
d="M-267 762l-45 40l164 148l83 -62z" />
    </font>
</defs>
</svg>
